<svg xmlns="http://www.w3.org/2000/svg" viewBox="0 0 213.27 61.26"><defs><style>.cls-1{fill:#6d8a91;}</style></defs><g id="Layer_2" data-name="Layer 2"><g id="Object"><path class="cls-1" d="M136.17,61.26l-.25-.12c-.17-.08-.42-.19-.74-.36-.65-.32-1.61-.82-2.86-1.48s-2.8-1.5-4.64-2.46-4-2-6.47-3.08c-1.24-.52-2.57-1-4-1.5a29.5,29.5,0,0,0-4.6-1.09c-.41-.07-.83-.09-1.25-.13l-.64,0c-.22,0-.43,0-.65,0h-.66l-.66.06-.66.09c-.23.05-.45.07-.67.13l-.67.18c-.22.06-.44.15-.66.23a5.11,5.11,0,0,0-.64.27,5.38,5.38,0,0,0-.64.31,5.9,5.9,0,0,0-2.28,1.88,2.33,2.33,0,0,0-.35,1.61,2.65,2.65,0,0,0,.83,1.45,6.05,6.05,0,0,0,2.86,1.37,9.45,9.45,0,0,0,3.23.1,10.25,10.25,0,0,0,1.62-.37c.26-.08.52-.18.78-.28s.52-.22.78-.34a7.34,7.34,0,0,0,1.46-.93,4.66,4.66,0,0,0,1.17-1.39,4,4,0,0,0,.47-1.82,5.65,5.65,0,0,0-.28-1.83,8.84,8.84,0,0,0-.74-1.66,15.32,15.32,0,0,0-1-1.52,23.06,23.06,0,0,0-2.43-2.72,31.83,31.83,0,0,0-6-4.52,37,37,0,0,0-7.15-3.22,31.59,31.59,0,0,0-8-1.58,19.7,19.7,0,0,0-8.49,1.25,14.6,14.6,0,0,0-3.85,2.31l-.43.37-.41.4-.41.4-.38.44a7,7,0,0,0-1.26,2.07,4.53,4.53,0,0,0-.24,2.59,5.09,5.09,0,0,0,1.19,2.29,9,9,0,0,0,1.86,1.58,13.68,13.68,0,0,0,2.1,1.12,23,23,0,0,0,9.29,1.85l.62,0,.59,0L91.12,53c.79-.06,1.58-.18,2.37-.3l1.18-.17,1.18-.22c.79-.15,1.58-.29,2.37-.49a92.59,92.59,0,0,0,18.59-6.55q4.56-2.11,9-4.63l2.23-1.27L130.32,38q2.2-1.34,4.42-2.71c5.89-3.65,11.83-7.44,18-11a122.36,122.36,0,0,1,19.47-9.24l1.74-.61c.58-.2,1.16-.37,1.75-.54,1.17-.34,2.35-.63,3.54-.9a67.94,67.94,0,0,1,7.18-1.17,54.07,54.07,0,0,1,7.18-.32,33.56,33.56,0,0,1,7,.85,17.28,17.28,0,0,1,6.16,2.7,10.52,10.52,0,0,1,3.8,5.13,13.08,13.08,0,0,1,.65,3.2,27.15,27.15,0,0,1,.09,3.37l0,.83-.09.83c0,.55-.15,1.09-.24,1.63a17.6,17.6,0,0,1-.92,3.13l-.15.37c0,.13-.11.25-.17.37l-.35.73c-.27.46-.52.94-.83,1.37s-.63.86-1,1.28c-.17.21-.36.4-.54.6a3.71,3.71,0,0,1-.27.29l-.29.28a19.65,19.65,0,0,1-5.28,3.59,32.12,32.12,0,0,1-6.08,2.09,48.57,48.57,0,0,1-6.31,1.05,80,80,0,0,1-12.55.22c-4.12-.22-8.16-.67-12.08-1.25s-7.76-1.31-11.47-2.12-7.32-1.73-10.78-2.75c-1.74-.5-3.43-1.07-5.11-1.62l-5-1.62c-1.62-.54-3.21-1.12-4.78-1.66s-3.12-1.08-4.63-1.63C110.3,28.44,100,24.23,91.54,20.77l-6.62-2.86-7.29-3.18-7.94-3.47c-2.75-1.19-5.62-2.42-8.62-3.63S55,5.24,51.67,4.17a94.68,94.68,0,0,0-10.28-2.8A62.61,62.61,0,0,0,30.19,0a44.57,44.57,0,0,0-5.87.22,38.27,38.27,0,0,0-5.94,1A27.36,27.36,0,0,0,7.18,6.76a21.49,21.49,0,0,0-4.35,4.85l-.45.7L2,13c-.07.12-.14.24-.2.37l-.18.38c-.12.25-.24.5-.35.76-.2.53-.42,1-.57,1.59-.08.28-.17.54-.23.82l-.19.84a14.51,14.51,0,0,0,.33,6.86A16.23,16.23,0,0,0,4,30.73l.29.33.3.31L5.2,32c.42.4.87.78,1.3,1.17s.92.73,1.39,1.07l1.44,1a36.59,36.59,0,0,0,6.25,3.15,53.6,53.6,0,0,0,13.78,3.21c2.37.27,4.76.39,7.17.44,1.2,0,2.41,0,3.61,0s2.42-.07,3.63-.14a132.45,132.45,0,0,0,14.6-1.61c4.88-.8,9.75-1.85,14.62-3.11l10.58-2.89c1.75-.48,3.5-.94,5.23-1.45L94,31.31l5.13-1.5c1.71-.51,3.41-1,5.09-1.53l10-3.16,2.47-.78,2.45-.82L124,21.88l4.81-1.63,2.39-.81,2.37-.85c6.27-2.31,12.31-4.74,18.37-6.49S164.09,9.28,170,9.76a42.08,42.08,0,0,1,8.62,1.44,24.5,24.5,0,0,1,3.95,1.47A13.64,13.64,0,0,1,186,14.9a7.64,7.64,0,0,1,2.14,3.16,7.67,7.67,0,0,1,.23,3.75,13.17,13.17,0,0,1-1.24,3.64,12.75,12.75,0,0,1-2.15,3.12,14.17,14.17,0,0,1-2.89,2.35,18.2,18.2,0,0,1-3.34,1.58,28.74,28.74,0,0,1-7.08,1.44,49.24,49.24,0,0,1-7,.05c-2.27-.12-4.48-.37-6.62-.66s-4.21-.66-6.21-1-3.94-.78-5.79-1.23a69,69,0,0,1-18.23-6.89,30.79,30.79,0,0,1-9.38-7.93l-.31-.4-.28-.4-.48-.72c-.28-.47-.52-.85-.69-1.17l-.51-1s.16.33.49,1c.16.33.4.71.66,1.18.14.23.31.47.47.74l.27.4.31.42a31,31,0,0,0,9.28,8.15,68.83,68.83,0,0,0,18.24,7.25c1.86.48,3.79.93,5.8,1.33s4.08.8,6.24,1.14,4.38.61,6.68.77a51,51,0,0,0,7.11,0,29.74,29.74,0,0,0,7.38-1.4,20.2,20.2,0,0,0,3.58-1.64,15.55,15.55,0,0,0,3.17-2.52,14.2,14.2,0,0,0,2.4-3.38,14.28,14.28,0,0,0,1.4-4,9,9,0,0,0-.23-4.42,9,9,0,0,0-2.48-3.76,15,15,0,0,0-3.71-2.51A25.78,25.78,0,0,0,179,9.74a44,44,0,0,0-8.92-1.58A42,42,0,0,0,165.48,8c-.78.05-1.56.07-2.34.14s-1.56.14-2.34.25a68.18,68.18,0,0,0-9.34,2c-6.19,1.73-12.29,4.14-18.54,6.39-.78.29-1.56.56-2.35.83l-2.38.8L123.38,20l-4.86,1.61-2.45.81-2.47.77-10,3.11c-1.67.53-3.37,1-5.07,1.51L93.4,29.33l-5.16,1.51c-1.73.5-3.48.95-5.23,1.44L72.46,35.15c-4.8,1.25-9.62,2.29-14.43,3.08a133.87,133.87,0,0,1-14.37,1.62c-1.19.07-2.37.11-3.56.14s-2.36,0-3.54,0c-2.35,0-4.68-.16-7-.41a51.52,51.52,0,0,1-13.29-3,34.92,34.92,0,0,1-5.94-2.94L9,32.72c-.44-.32-.86-.66-1.29-1s-.81-.7-1.2-1.06l-.56-.57-.28-.29c-.09-.09-.17-.2-.26-.3a14.51,14.51,0,0,1-3.07-5.36,12.71,12.71,0,0,1-.34-6l.16-.74c0-.25.14-.49.2-.74.13-.49.33-1,.5-1.43l.31-.69.16-.35.18-.33.36-.67.4-.64A20.22,20.22,0,0,1,8.24,8c.37-.34.78-.63,1.17-.94s.82-.57,1.23-.86.84-.53,1.28-.77l.65-.35c.22-.12.43-.24.66-.34.45-.21.88-.44,1.34-.62s.91-.38,1.38-.53l.69-.24c.23-.09.47-.15.7-.22.48-.13.94-.29,1.42-.4a39.2,39.2,0,0,1,5.71-1,43.63,43.63,0,0,1,5.69-.28,62.34,62.34,0,0,1,11,1.2A94.84,94.84,0,0,1,51.32,5.26c3.26,1,6.38,2.16,9.38,3.31s5.88,2.35,8.65,3.5l8,3.35,7.34,3.06q3.5,1.47,6.66,2.76c8.36,3.6,18.65,8,30.72,12.55,1.51.57,3,1.12,4.62,1.7s3.15,1.16,4.77,1.73l5,1.68c1.68.57,3.37,1.17,5.12,1.7q5.23,1.59,10.84,2.89c3.73.86,7.58,1.63,11.54,2.26s8,1.12,12.22,1.38A80.88,80.88,0,0,0,188.94,47a49.54,49.54,0,0,0,6.55-1,33.08,33.08,0,0,0,6.45-2.17,21.32,21.32,0,0,0,5.81-3.9l.33-.31.3-.33c.21-.22.41-.43.61-.66.37-.47.76-.93,1.09-1.44s.64-1,.94-1.54l.4-.82c.07-.13.14-.27.2-.41l.17-.42a19.81,19.81,0,0,0,1-3.47c.1-.6.23-1.19.27-1.79l.1-.9,0-.91a29,29,0,0,0-.08-3.61,14.91,14.91,0,0,0-.73-3.68,13.48,13.48,0,0,0-.75-1.76,12,12,0,0,0-1-1.63,11.68,11.68,0,0,0-1.26-1.46,12.36,12.36,0,0,0-1.46-1.25,15.19,15.19,0,0,0-1.6-1c-.56-.3-1.12-.59-1.71-.84a23.69,23.69,0,0,0-3.57-1.18,35.51,35.51,0,0,0-7.4-.92,54.62,54.62,0,0,0-7.45.31A69.72,69.72,0,0,0,178.8,11c-1.23.27-2.45.57-3.67.92-.61.18-1.23.36-1.82.57l-1.79.63a121.17,121.17,0,0,0-19.79,9.41c-6.24,3.57-12.18,7.4-18,11.06l-4.39,2.72-2.19,1.31-2.2,1.27C122,40.59,119,42.14,116,43.55A91.86,91.86,0,0,1,97.82,50.1c-.76.19-1.53.34-2.29.49l-1.15.22L93.23,51c-.76.11-1.52.24-2.29.3l-1.14.12-.57.06-.55,0a20.44,20.44,0,0,1-4.41-.39,20.92,20.92,0,0,1-4.19-1.25,12,12,0,0,1-1.88-1,7.5,7.5,0,0,1-1.55-1.28A3.51,3.51,0,0,1,75.79,46,3,3,0,0,1,76,44.28a5.49,5.49,0,0,1,1-1.64l.33-.39.36-.36.36-.36.39-.34a13.11,13.11,0,0,1,3.44-2.11,18.33,18.33,0,0,1,7.88-1.23,30.1,30.1,0,0,1,7.71,1.42,36.81,36.81,0,0,1,7,3,30.26,30.26,0,0,1,5.83,4.29,22.65,22.65,0,0,1,2.36,2.56,12.68,12.68,0,0,1,.94,1.4,7.34,7.34,0,0,1,.69,1.48,4.46,4.46,0,0,1,.26,1.52,3.09,3.09,0,0,1-.34,1.41,4.93,4.93,0,0,1-2.22,2c-.24.11-.47.23-.71.33l-.73.27a9.39,9.39,0,0,1-1.48.36,8.64,8.64,0,0,1-3,0,5.35,5.35,0,0,1-2.53-1.15,1.9,1.9,0,0,1-.63-1.05,1.6,1.6,0,0,1,.24-1.15,4,4,0,0,1,.88-1,7.69,7.69,0,0,1,1.12-.73c.2-.11.4-.22.6-.31a6.57,6.57,0,0,1,.61-.26l.61-.23.63-.17c.21-.07.42-.09.63-.14a4.48,4.48,0,0,1,.64-.09l.63-.07.63,0c.21,0,.42,0,.63,0l.62,0c.41,0,.82.05,1.22.11a27.74,27.74,0,0,1,4.55,1c1.42.42,2.75.91,4,1.41,2.49,1,4.65,2,6.5,2.95s3.42,1.73,4.68,2.37,2.24,1.12,2.9,1.42l.74.35Z"/></g></g></svg>