<?xml version="1.0" encoding="UTF-8"?>
<svg width="752pt" height="752pt" version="1.1" viewBox="0 0 752 752" xmlns="http://www.w3.org/2000/svg">
 <path d="m167.62 474.51 294.57-295.04c3.3164-3.3164 8.0508-5.6836 12.785-5.6836h22.258c4.7344 0 9.4727 2.3672 12.785 5.6836l6.6289 6.6289 11.84-8.0508c4.7344-3.3164 11.367-2.8398 15.156 1.4219l1.4219 1.4219c3.3164-2.8398 10.418-5.6836 20.836-9.4727 2.3711-0.94531 3.7891-3.7891 5.2109-5.2109 2.3672-2.3672 6.1562-2.3672 8.5234 0.47656l3.7891 3.3125 3.7891 3.7891c2.3672 2.3672 2.3672 6.6289 0 8.9961-1.4219 1.4219-4.7344 2.8398-5.2109 5.2109-2.8398 10.891-6.1562 17.996-8.9961 21.312l0.94531 0.94531c4.2617 4.2617 4.7344 10.418 1.4219 15.156l-8.0508 11.84 6.6289 7.1055c3.3164 3.3164 4.7344 8.0508 4.7344 12.785l0.003906 14.68c0 1.4219-0.47266 8.5234-1.8945 9.9453 0 0-302.62 302.62-303.09 303.09-6.1562 4.2617-14.68 3.7891-20.363-1.8945l-85.246-85.719c-6.6289-6.1562-6.6289-16.574-0.47266-22.73zm387.86-179.49h0.47266l17.051-17.051c0.47266-0.47266 0.47266-0.94531-0.47266-1.8945l-89.508-89.504c-0.47266 0-0.94531 0-1.4219 0.47266l-11.84 11.84 60.148 60.617c1.4219 1.4219 1.4219 3.3164 0 4.7344l-3.3164 3.3164 27.469 27.469h1.418zm-21.785 21.785h0.47266l17.051-17.051c0.47266-0.47266 0.47266-0.94531-0.47266-1.8945l-27.469-27.469-3.3164 3.3164c-1.4219 1.4219-3.3164 1.4219-4.7344 0l-60.617-60.617-7.1055 7.1055 60.621 61.09c1.4219 1.4219 1.4219 3.3164 0 4.7344l-3.3164 3.3164 27.469 26.996c0.47266 0.47266 0.94531 0.47266 1.418 0.47266zm-22.258 21.785h0.47266l17.051-17.051v-0.47266c0-0.47266-0.47266-0.94531-0.47266-1.4219l-27.469-27.469-3.3164 3.3164c-1.4219 1.4219-3.3164 1.4219-4.7344 0l-60.145-60.145-7.1055 7.1055 60.621 60.617c1.4219 1.4219 1.4219 3.3164 0 4.7344l-3.3164 3.3164 27.469 26.992c0.47266 0.47656 0.94531 0.47656 0.94531 0.47656zm-21.785 22.258h0.47266l17.051-17.051c0.47266-0.47266 0.47266-0.94531-0.47266-1.8945l-27.469-27.469-3.3164 3.3164c-1.4219 1.4219-3.3164 1.4219-4.7344 0l-60.617-60.617-11.84 11.84c-0.47266 0.47266-0.47266 0.47266-0.94531 0.94531 0.47266 0.47266 0.94531 0.47266 1.4219 0.94531l89.031 89.035c0.47266 0.94922 1.418 0.94922 1.418 0.94922zm-21.781 21.785h0.47266l17.051-17.051v-0.47266c0-0.47266-0.47266-0.94531-0.47266-1.4219l-89.035-89.035c-0.47266-0.47266-0.94531-0.94531-0.94531-1.4219-0.47266 0-0.47266 0.47266-0.94531 0.94531l-11.84 11.84 60.141 61.098c1.4219 1.4219 1.4219 3.3164 0 4.7344l-3.3164 3.3164 27.469 27.469h1.4219zm-21.785 21.785h0.47266l17.051-17.051v-0.47266c0-0.47266-0.47266-0.94531-0.47266-1.4219l-27.469-27.469-3.3164 3.3164c-1.4219 1.4219-3.3164 1.4219-4.7344 0l-60.617-60.617-7.1055 7.1055 60.617 61.09c1.4219 1.4219 1.4219 3.3164 0 4.7344l-3.3164 3.3164 27.469 27.469h1.4219zm-22.258 21.781h0.47266l17.051-17.051v-0.47266c0-0.47266-0.47266-0.94531-0.47266-1.4219l-27.469-27.469-3.3164 3.3164c-1.4219 1.4219-3.3164 1.4219-4.7344 0l-60.617-60.617-12.785 12.785 89.98 89.98c1.4141 0.94922 1.8906 0.94922 1.8906 0.94922zm-21.785 22.734h0.47266l17.051-17.051v-0.47266c0-0.47266-0.47266-0.94531-0.47266-1.4219l-89.508-89.508c-0.47266 0-0.94531 0-1.4219 0.47266l-11.367 11.367 60.145 60.148c1.4219 1.4219 1.4219 3.3164 0 4.7344l-3.7891 3.7891 27.469 27.469c0.47266 0 1.4219 0.47266 1.4219 0.47266zm-21.785 21.785h0.47266l17.051-17.051v-0.47266c0-0.47266-0.47266-0.94531-0.47266-1.4219l-27.469-27.469-2.3672 2.3672c-1.4219 1.4219-3.3164 1.4219-4.7344 0l-60.621-60.141-7.1055 7.1055 60.145 60.613c1.4219 1.4219 1.4219 3.3164 0 4.7344l-3.7891 3.7891 27.469 27.469c0.47266 0.47656 0.94922 0.47656 1.4219 0.47656zm-21.785 21.785h0.47266l16.574-17.051c0.47656 0 0.47656-0.94531-0.47266-1.8945l-27.469-27.469-2.3672 2.3672c-1.4219 1.4219-3.3164 1.4219-4.7344 0l-60.617-60.617-7.1055 7.1055 60.617 61.09c1.4219 1.4219 1.4219 3.3164 0 4.7344l-3.7891 3.7891 27.469 27.469c0.47266 0.47656 0.94922 0.47656 1.4219 0.47656zm-22.258 21.781h0.47266l17.051-17.051c0.47266-0.47266 0.47266-0.94531-0.47266-1.8945l-27.469-27.469-2.3672 2.3672c-1.4219 1.4219-3.3164 1.4219-4.7344 0l-60.617-60.617-12.785 12.785c-0.47266 0.47266-0.47266 0.47266-0.94531 0.94531 0.47266 0.47266 0.94531 0.47266 1.4219 0.94531l89.496 89.516c0.47656 0.47266 0.94922 0.47266 0.94922 0.47266zm-21.785 22.262h0.47266l17.051-17.051c0.47266-0.47266 0.47266-0.94531-0.47266-1.8945l-89.035-89.035c-0.47266-0.47266-0.94531-0.94531-0.94531-1.4219-0.47266 0-0.47266 0.47266-0.94531 0.94531l-11.367 11.367 60.141 60.621c1.4219 1.4219 1.4219 3.3164 0 4.7344l-3.7891 3.7891 27.469 27.469c0.47266 0 1.4219 0.47656 1.4219 0.47656zm-21.785 21.785h0.47266l16.574-17.051c0.47266-0.47266 0.47266-0.94531-0.47266-1.8945l-27.469-27.469-2.3672 2.3672c-1.4219 1.4219-3.3164 1.4219-4.7344 0l-60.617-60.617-7.1055 7.1055 60.617 61.09c1.4219 1.4219 1.4219 3.3164 0 4.7344l-3.7891 3.7891 27.469 27.469c0.47656 0.47656 0.94922 0.47656 1.4219 0.47656zm-23.207 21.309c0.47266 0.47266 0.94531 0.47266 1.4219 0.47266h0.47266l17.051-17.051c0.47266-0.47266 0.47266-0.94531-0.47266-1.8945l-27.469-27.469-2.3672 2.3672c-1.4219 1.4219-3.3164 1.4219-4.7344 0l-60.617-60.617-13.262 13.262z"/>
</svg>
