<?xml version="1.0" encoding="UTF-8"?>
<svg width="752pt" height="752pt" version="1.1" viewBox="0 0 752 752" xmlns="http://www.w3.org/2000/svg">
 <defs>
  <clipPath id="b">
   <path d="m142 297h527v155h-527z"/>
  </clipPath>
  <clipPath id="a">
   <path d="m710.87 376-334.87-334.87-334.87 334.87 334.87 334.87z"/>
  </clipPath>
 </defs>
 <g clip-path="url(#b)">
  <g clip-path="url(#a)">
   <path d="m159 298.31 416.92-0.33203c4.6875 0 9.7109 1.6758 13.059 5.0234l15.738 15.738c3.3477 3.3477 5.0234 8.3711 5.0234 13.059v9.375l14.066 2.6797c5.6914 1.0039 10.047 6.0273 9.7109 11.719v2.0078c4.3516 0.33594 11.387 3.3477 21.434 8.0352 2.3438 1.0117 5.3555 0.003907 7.3672 0.003907 3.3477 0 6.0273 2.6797 5.6914 6.3633l0.33594 5.0234v5.3594c0 3.3477-3.0156 6.3633-6.3633 6.3633-2.0078 0-5.3594-1.3398-7.3672 0-9.7109 5.6914-17.078 8.3711-21.434 8.707v1.3398c0 6.0273-4.0195 10.715-9.7109 11.719l-14.066 2.6797-0.33594 9.7109c0 4.6875-2.3438 9.043-5.6914 12.391l-10.379 10.379c-1.0039 1.0039-6.3633 5.6914-8.3711 5.6914h-428.64c-7.3672-1.3398-13.059-7.7031-13.059-15.738l0.33594-120.89c-0.33984-9.0391 7.0273-16.406 15.734-16.406zm401.18 147.34 0.33594 0.33594h24.109c0.66797 0 1.0039-0.33594 1.0039-1.6758v-126.58c-0.33594-0.33594-0.66797-0.66797-1.3398-0.66797h-16.742l-0.33594 85.391c0 2.0078-1.3398 3.3477-3.3477 3.3477h-4.6875v38.844c0.33203 0.33984 0.66797 0.67578 1.0039 1.0078zm-30.809 0 0.33594 0.33594h24.109c0.66797 0 1.0039-0.33594 1.0039-1.6758v-38.844h-4.6875c-2.0078 0-3.3477-1.3398-3.3477-3.3477v-85.727h-10.047l-0.33594 86.059c0 2.0078-1.3398 3.3477-3.3477 3.3477h-4.6875l0.33203 38.512c0 0.67188 0.33594 1.0078 0.67188 1.3398zm-31.145-0.33203 0.33594 0.33594h24.109s0.33594-0.33594 0.33594-0.33594c0.33594-0.33594 0.33594-1.0039 0.66797-1.3398v-38.844h-4.6875c-2.0078 0-3.3477-1.3398-3.3477-3.3477v-85.062h-10.047v85.727c0 2.0078-1.3398 3.3477-3.3477 3.3477h-4.6875l0.33203 38.512c0 0.67188 0.33594 1.0078 0.33594 1.0078zm-31.141 0.33203 0.33594 0.33594h24.109c0.66797 0 1.0039-0.33594 1.0039-1.6758v-38.844h-4.6875c-2.0078 0-3.3477-1.3398-3.3477-3.3477v-85.727h-16.742-1.3398c0 0.66797 0.33594 1.0039 0.33594 1.6758l-0.003906 125.91c-0.33594 1.0039 0.33594 1.6719 0.33594 1.6719zm-30.809 0 0.33594 0.33594h24.109l0.33594-0.33594c0.33594-0.33594 0.33594-1.0039 0.66797-1.3398v-125.91c0-0.66797 0-1.3398 0.33594-1.6758-0.33594-0.33594-0.66797 0-1.3398 0h-16.742l-0.67188 85.727c0 2.0078-1.3398 3.3477-3.3477 3.3477h-4.6875v38.844c0.33203 0.33984 0.66797 0.67578 1.0039 1.0078zm-30.809 0 0.33594 0.33594h24.109l0.33594-0.33594c0.33594-0.33594 0.33594-1.0039 0.66797-1.3398v-38.844h-4.6875c-2.0078 0-3.3477-1.3398-3.3477-3.3477v-85.727h-10.047l-0.33594 86.059c0 2.0078-1.3398 3.3477-3.3477 3.3477h-4.6875v38.844c0.33203 0.33984 0.66797 0.67578 1.0039 1.0078zm-31.145-0.33203c0.33594 0.33594 0.33594 0.33594 0.33594 0.33594h24.109l0.33594-0.33594c0.33594-0.33594 0.33594-1.0039 0.66797-1.3398v-38.844h-4.6875c-2.0078 0-3.3477-1.3398-3.3477-3.3477v-85.727h-18.082v127.25c0.33203 1.6719 0.66797 2.0078 0.66797 2.0078zm-31.477 0.66797 0.33594 0.33594h24.109s0.33594-0.33594 0.33594-0.33594c0.33594-0.33594 0.33594-1.0039 0.66797-1.3398v-126.58c-0.33594-0.33594-0.66797-0.66797-1.3398-0.66797h-16.074v85.055c0 2.0078-1.3398 3.3477-3.3477 3.3477h-5.3594v38.844c0.33594 0.33984 0.67188 1.3438 0.67188 1.3438zm-30.809 0 0.33594 0.33594h24.109s0.33594-0.33594 0.33594-0.33594c0.33594-0.33594 0.33594-1.0039 0.66797-1.3398v-38.844h-3.3477c-2.0078 0-3.3477-1.3398-3.3477-3.3477l-0.33594-85.395h-10.047l-0.33594 85.391c0 2.0078-1.3398 3.3477-3.3477 3.3477h-5.3594v38.844c0 0.67578 0.33594 1.0078 0.67187 1.3438zm-30.809 0c0.33594 0.33594 0.33594 0.33594 0.33594 0.33594l23.773-0.33594c0.33594 0.33594 1.0039-0.33594 1.0039-1.6758v-38.844h-3.3477c-2.0078 0-3.3477-1.3398-3.3477-3.3477v-85.727h-10.047l-0.33594 86.059c0 2.0078-1.3398 3.3477-3.3477 3.3477h-5.3594v38.848c0 0.67187 0.33594 1.0039 0.67188 1.3398zm-31.145-0.33594 0.33594 0.33594h24.109c0.66797 0 1.0039-0.33594 1.0039-1.6758v-38.844h-3.3477c-2.0078 0-3.3477-1.3398-3.3477-3.3477v-85.727h-18.082-1.3398c0 0.66797 0.33594 1.0039 0.33594 1.6758l-0.003906 126.58c0 0.67187 0.33594 1.0039 0.33594 1.0039zm-31.141 0.33594 0.33594 0.33594h24.109c0.66797 0 1.0039-0.33594 1.0039-1.6758v-125.91c0-0.66797 0-1.3398 0.33594-1.6758-0.33594-0.33594-0.66797 0-1.3398 0h-16.074l-0.33594 85.391c0 2.0078-1.3398 3.3477-3.3477 3.3477h-5.3594v38.844c0.33594 0.33984 0.67187 1.3438 0.67187 1.3438zm-30.809 0c0.33594 0.33594 0.33594 0.33594 0.33594 0.33594l23.773-0.33594c0.66797 0 1.0039-0.33594 1.0039-1.6758v-38.844h-3.3477c-2.0078 0-3.3477-1.3398-3.3477-3.3477v-85.727h-10.047l-0.33594 86.059c0 2.0078-1.3398 3.3477-3.3477 3.3477h-5.3594v38.844c0 0.67578 0.33594 1.0078 0.67188 1.3438zm-31.48-1.3398c0 0.66797 0.33594 1.0039 0.66797 1.3398 0.33594 0.33594 0.33594 0.33594 0.33594 0.33594h24.109c0.66797 0 1.0039-0.33594 1.0039-1.6758v-38.844h-3.3477c-2.0078 0-3.3477-1.3398-3.3477-3.3477v-85.727h-18.754z"/>
  </g>
 </g>
</svg>
