<svg xmlns="http://www.w3.org/2000/svg" viewBox="0 0 115.91 36.54"><defs><style>.cls-1{fill:#847b73;fill-rule:evenodd;}</style></defs><g id="Layer_2" data-name="Layer 2"><g id="Layer_2-2" data-name="Layer 2"><path class="cls-1" d="M38.11,23.91A6,6,0,0,1,43,30.45c-.59,7.41-11,8.13-15,1.74a9.62,9.62,0,0,1,.15-9.5c-2.45-1.69-3.48-5.47-4.86-9.07a18.67,18.67,0,0,0-3-1.36C10.58,9,7.75,22.2,16.27,23.05c4.88.49,7-4.78,4.33-6.11-1.14-.57-2.88.18-2.28,1.66.45,1.11-.78,1-1.38,0-.4-.67.3-2.17,1.37-2.63a3.24,3.24,0,0,1,4.4,2.67c.44,2.6-1.76,5.78-6.8,5.28a6.19,6.19,0,0,1-5.64-5.53,2.27,2.27,0,0,1-4.4-1.07c.17-.74,1.1-2,1.68-1-.07.64-1,.47-1,1.2-.25,2,2.4,3.25,3.74.73a6.64,6.64,0,0,1,0-1.18,7.26,7.26,0,0,1,4-5.94A2.69,2.69,0,0,1,12,9.31a2.33,2.33,0,0,1,1.34-2.83c.31-.12.89,0,.52.39-1.81,1.65-.5,3.43,1.07,4a9.54,9.54,0,0,1,5.41-.33,10.73,10.73,0,0,1,2,.64,15,15,0,0,0-1.4-2.38C18.09,4.92,13.67,1.2,8.07,1.9A7.1,7.1,0,0,0,3.2,5c-2.34,3.48-1,6.25.86,7.5,2.21,1.47,7-.27,5.24-4.56a1.06,1.06,0,0,0-2,.83c.46,1.11-1.3,1.12-1.9.12-.4-.67.3-2.17,1.37-2.63,3.29-1.43,5.61,3.5,3,6A6,6,0,0,1,5,13.71C.94,13.19-.86,9.13.4,5.5S5.43.39,8.27.06C13.73-.56,19.4,3.59,22.71,8.68a35.27,35.27,0,0,1,1.81,3.57,85.58,85.58,0,0,1,8.2,5.7,13.77,13.77,0,0,1,4.74-1.81,14.84,14.84,0,0,1,6.6.37A8.19,8.19,0,0,1,41.26,10c.21-4.47,5.25-6.37,8.19-5C53,6.69,52.59,12,48.88,12.36a3.68,3.68,0,0,1-1.65,0,.76.76,0,0,0-.2,0A2.7,2.7,0,0,1,45,9.27c.17-1.15,1.43-2.22,2.18-2,1.13.31,1.5,1.49.31,1.34a1.82,1.82,0,0,0-.4,0c-1.38.73-1.43,3.12,1.56,2.62s2.67-4.68-.41-5.37C45.14,5,42.8,7.39,42.53,10.14c-.57,6.42,8.72,8.69,13.38,13.92A10.14,10.14,0,0,1,58,27.4c-1.65-3.13-6.24-5.94-9.5-5.07a5.21,5.21,0,0,0-3.78,3.3c.76.34,1.53.65,2.29.91a2.28,2.28,0,0,1,.2-.65c.36-.69,2-.88,3-.21A3.28,3.28,0,0,1,51.5,27.5a12.77,12.77,0,0,0,1.75,0,3.78,3.78,0,0,1-2.88-2.21A1.94,1.94,0,0,1,51.68,23c.32-.13.93.06.54.41-2.12,1.92,0,3.86,1.91,4.08.44-.06.88-.14,1.31-.24A2.58,2.58,0,0,1,53,25.69a1.29,1.29,0,0,1,.87-1.56c.21-.08.61,0,.36.27C52.42,26,55,27.3,56,27.09a15.1,15.1,0,0,1-4.41.79A3.54,3.54,0,0,1,50.41,31c-1.95,1.76-5.73,1.89-6.95-1.56a6.51,6.51,0,0,1-.3-3.33,46.42,46.42,0,0,1-6.91-3.8c-2.93,1.35-5.06,1.58-6.68,1.08a8.2,8.2,0,0,0,.57,8.43c3.69,5.36,11.87,4.4,12.3-1.73.4-5.53-5.64-6.89-6.69-4.37a1.66,1.66,0,0,0,0,1c.41,1.2,2.08,2,2.76.56.51-1.09,1.31-.14,1,1-.22.75-1.8,1.24-2.87.77a2.67,2.67,0,0,1,1.47-5.09Zm16.29-.79c-4.34-3.95-11-6.8-16.23-5.64A16.14,16.14,0,0,0,34.07,19,66.63,66.63,0,0,0,43.45,25a5.86,5.86,0,0,1,4.69-3.75c2-.45,4.36.43,6.26,1.84Zm-6.32,3.77a19.56,19.56,0,0,0,2.22.48c-.48-.82-1.48-1.29-2.22-.48Zm2.44,1a19.92,19.92,0,0,1-6.05-1.29A5,5,0,0,0,44.75,29a3,3,0,0,0,3.73,1.82,2.69,2.69,0,0,0,2.09-2.72,1.74,1.74,0,0,0,0-.22ZM25.7,15c1.08,2.57,2,4.82,3.41,6.25a12.76,12.76,0,0,1,2.24-2.36c-2-1.39-3.86-2.74-5.65-3.89Zm7,4.82a10.37,10.37,0,0,0-2.37,2.35c1.42.84,3.29,1,5.95.07C35,21.48,33.82,20.66,32.65,19.84Z"/><path class="cls-1" d="M77.8,23.91a6,6,0,0,0-4.91,6.54c.59,7.41,11,8.13,15,1.74a9.62,9.62,0,0,0-.15-9.5c2.44-1.69,3.47-5.47,4.85-9.07a19.07,19.07,0,0,1,3-1.36c9.78-3.22,12.6,9.94,4.08,10.79-4.88.49-7-4.78-4.32-6.11,1.13-.57,2.88.18,2.28,1.66-.46,1.11.78,1,1.38,0,.4-.67-.31-2.17-1.38-2.63a3.25,3.25,0,0,0-4.4,2.67C92.77,21.29,95,24.47,100,24a6.18,6.18,0,0,0,5.64-5.53,2.27,2.27,0,0,0,4.41-1.07c-.17-.74-1.11-2-1.69-1,.07.64,1,.47,1,1.2.25,2-2.4,3.25-3.75.73a6.64,6.64,0,0,0,0-1.18,7.3,7.3,0,0,0-4-5.94,2.72,2.72,0,0,0,2.25-1.84,2.34,2.34,0,0,0-1.34-2.83c-.31-.12-.9,0-.53.39,1.82,1.65.5,3.43-1.07,4a9.51,9.51,0,0,0-5.4-.33,10.59,10.59,0,0,0-2,.64A14.35,14.35,0,0,1,95,8.78c2.83-3.86,7.25-7.58,12.84-6.88A7.12,7.12,0,0,1,112.72,5c2.34,3.48,1,6.25-.87,7.5-2.2,1.47-6.95-.27-5.23-4.56a1.06,1.06,0,0,1,1.94.83c-.45,1.11,1.31,1.12,1.91.12.39-.67-.31-2.17-1.38-2.63-3.29-1.43-5.6,3.5-3,6A6,6,0,0,0,111,13.71c4-.52,5.82-4.58,4.56-8.21s-5-5.11-7.88-5.44C102.18-.56,96.51,3.59,93.2,8.68a40,40,0,0,0-1.81,3.57A84.3,84.3,0,0,0,83.2,18a13.85,13.85,0,0,0-4.74-1.81,14.84,14.84,0,0,0-6.6.37A8.18,8.18,0,0,0,74.65,10c-.21-4.47-5.25-6.37-8.18-5C62.93,6.69,63.33,12,67,12.36a3.68,3.68,0,0,0,1.65,0,.74.74,0,0,1,.2,0,2.72,2.72,0,0,0,2-3.1c-.17-1.15-1.43-2.22-2.18-2-1.13.31-1.5,1.49-.32,1.34a1.92,1.92,0,0,1,.41,0c1.38.73,1.42,3.12-1.57,2.62s-2.66-4.68.41-5.37c3.08-.86,5.43,1.54,5.69,4.29C74,16.56,64.67,18.83,60,24.06a10.28,10.28,0,0,0-2,3.34c1.65-3.13,6.24-5.94,9.49-5.07a5.19,5.19,0,0,1,3.78,3.3c-.76.34-1.52.65-2.29.91a1.79,1.79,0,0,0-.2-.65c-.36-.69-2-.88-3-.21a3.26,3.26,0,0,0-1.35,1.82,12.78,12.78,0,0,1-1.75,0,3.77,3.77,0,0,0,2.87-2.21A1.94,1.94,0,0,0,64.24,23c-.33-.13-.93.06-.55.41,2.12,1.92,0,3.86-1.9,4.08q-.66-.09-1.32-.24A2.58,2.58,0,0,0,63,25.69a1.29,1.29,0,0,0-.86-1.56c-.22-.08-.62,0-.36.27,1.76,1.61-.76,2.9-1.8,2.69a15,15,0,0,0,4.41.79A3.52,3.52,0,0,0,65.51,31c1.94,1.76,5.72,1.89,6.95-1.56a6.5,6.5,0,0,0,.29-3.33,46.52,46.52,0,0,0,6.92-3.8c2.92,1.35,5,1.58,6.67,1.08a8.2,8.2,0,0,1-.56,8.43c-3.7,5.36-11.87,4.4-12.31-1.73-.39-5.53,5.64-6.89,6.7-4.37a1.73,1.73,0,0,1,0,1c-.42,1.2-2.09,2-2.77.56-.51-1.09-1.3-.14-1,1,.22.75,1.79,1.24,2.86.77a2.67,2.67,0,0,0-1.47-5.09Zm-16.29-.79c4.34-3.95,11-6.8,16.24-5.64A16.28,16.28,0,0,1,81.85,19,67.21,67.21,0,0,1,72.47,25a5.86,5.86,0,0,0-4.69-3.75c-2.06-.45-4.37.43-6.27,1.84Zm6.33,3.77a19.73,19.73,0,0,1-2.23.48c.49-.82,1.49-1.29,2.23-.48Zm-2.44,1a20,20,0,0,0,6-1.29A5.13,5.13,0,0,1,71.17,29a3,3,0,0,1-3.74,1.82,2.68,2.68,0,0,1-2.08-2.72,1.74,1.74,0,0,1,.05-.22ZM90.21,15c-1.07,2.57-2,4.82-3.4,6.25a13.1,13.1,0,0,0-2.24-2.36c2-1.39,3.85-2.74,5.64-3.89Zm-6.95,4.82a10.23,10.23,0,0,1,2.38,2.35c-1.43.84-3.29,1-6,.07C80.9,21.48,82.09,20.66,83.26,19.84Z"/></g></g></svg>