<svg xmlns="http://www.w3.org/2000/svg" viewBox="0 0 120.32 35.29"><defs><style>.cls-1{fill:#847b73;fill-rule:evenodd;}</style></defs><g id="Layer_2" data-name="Layer 2"><g id="Layer_2-2" data-name="Layer 2"><path class="cls-1" d="M35.47,26.23c1.59,3.64-2.32,9.74-8.41,6.21s-3-10.61,2.17-14.33c4.57-3.28,12.08-4.82,17-1.85,3.79,2.28,6.76,7.22,15.12,11.19,6.74,3.19,13.26,3.22,18-3.95,2.86-4.31,2.35-10.91-1.55-15.41C69.17-1.92,56.57,9.22,65,16.24c3.06,2.56,8.24.41,5.92-3.08-1.2-1.8-3.82-3.35-3.87-3.47-1.57-3.6,7-2.78,9.7,1.28,6.17,9.15-3.36,18.55-12.08,16.1C57.18,25,49.41,16.25,48.83,14.15c6,1,10.15-1.26,11.26-4.94A7.09,7.09,0,0,0,54,.07C50.51-.44,46.73,2,45.71,4.61c-.6,1.55-.17,3.54,1.13,3.77,2.95.52,1.42-4,1.46-4C50,1.54,54.39,1.2,56.6,3.23c3.19,2.94,2.92,9.45-7.15,8.92C40,11.66,24.37,14.75,22,26.3c-.58,2.76,1,6.1,4,7.81,4.09,2.33,11.33,1.64,12.72-5.95C39.82,21.68,33.81,22.45,35.47,26.23Z"/><path class="cls-1" d="M23.69,24.74c3.52,4.56,9.27.26,8.7-4.64-.54-4.6-6.84-6.57-10.61-3.52C17,20.41,19.62,27.8,15.9,31.51a9.22,9.22,0,0,1-8,2.61C4.17,33.66.53,30.86.09,27.78c-1-6.53,6.05-8.46,9.47-3.86,2.88,3.88-2.87,8.26-4.95,4.88-2.75-4.46,5.2-3.32,2.6-1.24C6.39,28.21,8.15,29,9,28c1.63-1.85-.39-4.36-1.79-4.88C2.33,21.34-.41,27,3.48,31c3.53,3.57,11.17,2.94,12.79-2.6.17-.57-1.23.4-2.4,1.35-1.48,1.2.22-2.62,1-3.44s1.71-3,2.4-3.92c1-1.34-1.75,1.76-2.51,2.06-1.16.44-.84-1.22.54-3.15a13.41,13.41,0,0,1,4.78-4.15c3.48-3.77,10.14-4.71,13.54.18S33,28.46,27.54,28.46C25,28.46,22.82,26.81,23.69,24.74Z"/><path class="cls-1" d="M84.85,26.23c-1.59,3.64,2.32,9.74,8.41,6.21s3-10.61-2.17-14.33c-4.57-3.28-12.08-4.82-17-1.85-3.79,2.28-6.76,7.22-15.12,11.19-6.74,3.19-13.26,3.22-18-3.95-2.86-4.31-2.34-10.91,1.55-15.41,8.68-10,21.28,1.13,12.89,8.15-3.06,2.56-8.24.41-5.92-3.08,1.2-1.8,3.82-3.35,3.87-3.47,1.57-3.6-7-2.78-9.7,1.28C37.44,20.12,47,29.52,55.69,27.07,63.14,25,70.91,16.25,71.49,14.15c-6,1-10.15-1.26-11.26-4.94A7.09,7.09,0,0,1,66.29.07c3.52-.51,7.3,1.88,8.32,4.54.6,1.55.17,3.54-1.14,3.77-2.94.52-1.41-4-1.45-4-1.68-2.81-6.1-3.15-8.29-1.12-3.2,2.94-2.93,9.45,7.14,8.92,9.42-.49,25.08,2.6,27.5,14.15.58,2.76-1,6.1-4,7.81-4.08,2.33-11.33,1.64-12.72-5.95C80.5,21.68,86.51,22.45,84.85,26.23Z"/><path class="cls-1" d="M96.62,24.74c-3.51,4.56-9.26.26-8.69-4.64.54-4.6,6.84-6.57,10.61-3.52,4.74,3.83,2.16,11.22,5.88,14.93a9.22,9.22,0,0,0,8,2.61c3.76-.46,7.4-3.26,7.84-6.34,1-6.53-6-8.46-9.47-3.86-2.88,3.88,2.87,8.26,4.95,4.88,2.75-4.46-5.2-3.32-2.6-1.24.82.65-.94,1.41-1.79.46-1.63-1.85.39-4.36,1.79-4.88,4.88-1.8,7.62,3.88,3.73,7.81-3.53,3.57-11.17,2.94-12.79-2.6-.17-.57,1.23.4,2.4,1.35,1.48,1.2-.22-2.62-1-3.44s-1.71-3-2.4-3.92c-1-1.34,1.75,1.76,2.51,2.06,1.16.44.84-1.22-.54-3.15a13.41,13.41,0,0,0-4.78-4.15c-3.48-3.77-10.15-4.71-13.54.18s.64,11.18,6.1,11.18C95.37,28.46,97.5,26.81,96.62,24.74Z"/></g></g></svg>