<svg xmlns="http://www.w3.org/2000/svg" viewBox="0 0 124.24 28.5"><defs><style>.cls-1{fill:#847b73;fill-rule:evenodd;}</style></defs><g id="Layer_2" data-name="Layer 2"><g id="Layer_2-2" data-name="Layer 2"><path class="cls-1" d="M19.86,21.37C30,25.86,35,23.56,41.58,17.59c-1.87-1.05-3.74-2.21-5.66-3.4-7,2.21-19.38,1.66-18.71-8.35-5.28-.31-9,1-11.34,3.1A11.22,11.22,0,0,0,2.12,18.8c1,5.52,6.29,10.19,11.69,8.11,5-1.94,7.35-9.36,2.81-12.27-3.8-2.44-10.82,0-7.44,7-2.65-3.26-1.35-6.45,1.05-7.9,3.51-2.11,9.48-1,9.83,4.9a9.76,9.76,0,0,1-.2,2.7Zm84.52,0c-10.17,4.49-15.11,2.19-21.72-3.78,1.86-1.05,3.74-2.21,5.66-3.4,7,2.21,19.37,1.66,18.71-8.35,5.28-.31,9,1,11.34,3.1a11.27,11.27,0,0,1,3.75,9.86c-1,5.52-6.29,10.19-11.69,8.11-5.05-1.94-7.35-9.36-2.81-12.27,3.8-2.44,10.82,0,7.44,7,2.65-3.26,1.35-6.45-1.06-7.9-3.5-2.11-9.47-1-9.83,4.9a9.75,9.75,0,0,0,.21,2.7ZM90.28,13c5.7,1.45,16.21,1.33,15.59-7a25.82,25.82,0,0,0-8.38,2.86C95,10.12,92.59,11.55,90.28,13Zm6.39-6.41C94.55,3.79,96.27.81,99.2.14c2.66-.61,6.4.78,7.48,3.89,15-.49,19.19,9.5,17,16.72-2.73,9.13-16,11.19-19.29.77C94.86,27.66,87.48,24,81.07,18.45c-6,3.14-11.95,4.84-18.95,2.43-7,2.41-13,.71-18.95-2.43-6.42,5.54-13.8,9.21-23.35,3.07C16.56,31.94,3.25,29.88.53,20.75-1.63,13.53,2.58,3.54,17.56,4,18.64.92,22.38-.47,25,.14c2.93.67,4.65,3.65,2.53,6.42C29.35.65,20.89-.62,18.81,4.13a14,14,0,0,1,1.91.38c5.57,1.57,10.41,4.75,15.11,7.91a17.63,17.63,0,0,0,1.78-.76c8.46-4.27,10.73-8.67,18.53-7a14.27,14.27,0,0,1,3.69-1.58,8.24,8.24,0,0,1,2.29-.3,8.12,8.12,0,0,1,2.28.3,14.18,14.18,0,0,1,3.7,1.58c7.79-1.65,10.07,2.75,18.53,7a16.7,16.7,0,0,0,1.78.76c4.7-3.16,9.54-6.34,15.1-7.91a13.87,13.87,0,0,1,1.92-.38C103.34-.62,94.89.65,96.67,6.56ZM46,13.42c-1.23,1.19-2.37,2.3-3.47,3.31-1.65-1-3.3-2.05-4.95-3.15.31-.13.61-.27.89-.42,7.68-3.93,9.64-8.08,16.09-7.48-4.21,3-5.59,4.86-8.56,7.74Zm3.44-1c-1.71,1.72-3.48,3.5-5.32,5.17,5.08,2.73,10.38,4.31,16.62,2.71a32.3,32.3,0,0,1-6.6-3.79,32,32,0,0,1-4.7-4.09ZM66.08,5.17a9.44,9.44,0,0,0-4-1.18,9.4,9.4,0,0,0-4,1.18,40.25,40.25,0,0,1,3.92,1.45l0,0,0,0a40.25,40.25,0,0,1,3.92-1.45ZM60.75,7.23a31.46,31.46,0,0,0-4-1.2,57.68,57.68,0,0,0-5.87,5,90.36,90.36,0,0,0,9.9-3.82Zm1.37.51c-1.93.75-4.41,1.64-6.54,2.27-4,1.2-7,1.68-3.19,4.56a33.56,33.56,0,0,0,9.73,5.36,33.69,33.69,0,0,0,9.73-5.36c3.14-2.39,1.78-3.11-1.08-4-2.34-.73-5.64-1.67-8.65-2.84Zm1.37-.51a90.36,90.36,0,0,0,9.9,3.82,59.93,59.93,0,0,0-5.87-5,31.46,31.46,0,0,0-4,1.2Zm11.32,5.23a31.38,31.38,0,0,1-4.69,4.09,32.84,32.84,0,0,1-6.6,3.79c6.24,1.6,11.54,0,16.62-2.71-1.84-1.67-3.61-3.45-5.33-5.17ZM69.7,5.68c4.2,3,5.59,4.86,8.56,7.74,1.22,1.19,2.37,2.3,3.47,3.31,1.65-1,3.29-2.05,4.94-3.15-.3-.13-.6-.27-.88-.42C78.1,9.23,76.15,5.08,69.7,5.68ZM34,13c-5.7,1.45-16.21,1.33-15.59-7a25.77,25.77,0,0,1,8.37,2.86C29.26,10.12,31.65,11.55,34,13Z"/></g></g></svg>