<svg xmlns="http://www.w3.org/2000/svg" viewBox="0 0 195.88 18.23"><defs><style>.cls-1{fill:#847b73;}</style></defs><g id="Layer_2" data-name="Layer 2"><g id="Layer_2-2" data-name="Layer 2"><path class="cls-1" d="M110.22,11.54a14,14,0,0,0,2,.34,29.24,29.24,0,0,1,2.67-1.9,4,4,0,0,1,0-.43,11.06,11.06,0,0,0-.13-1.16,14.56,14.56,0,0,0-2.13,1.27,27.11,27.11,0,0,0-2.33,1.88ZM0,8.68H71.83a5.07,5.07,0,0,0,1,.87H0V8.68Zm123,0h72.88v.87H124a5.33,5.33,0,0,0-1-.87Zm-37.34-2a15.48,15.48,0,0,0-2-.34A29.58,29.58,0,0,1,81,8.26a3.75,3.75,0,0,1,0,.42,8.58,8.58,0,0,0,.14,1.16,13.65,13.65,0,0,0,2.12-1.27,27.11,27.11,0,0,0,2.33-1.88ZM80.6,6.4a13.19,13.19,0,0,0-1.39.29A6.37,6.37,0,0,0,75.5,8.8,6.45,6.45,0,0,0,77,8.49,14.39,14.39,0,0,0,80.6,6.4ZM75.16,9.53a1.06,1.06,0,0,0,0,.56,1.21,1.21,0,0,0,.62.68,3.55,3.55,0,0,0,2,.15,11.09,11.09,0,0,0,3-.87,6.78,6.78,0,0,1-.16-1.26v-.3A8.27,8.27,0,0,1,79.57,9a7.47,7.47,0,0,1-4,.58l-.42-.08ZM73.88,2.11a4.87,4.87,0,0,0-.69.37,3.89,3.89,0,0,0-.53.41,3.49,3.49,0,0,0-1.22,2.44,3.13,3.13,0,0,0,1,2.41,3.53,3.53,0,0,0,2,1,5.07,5.07,0,0,0,.56.05q1-1.7,4.08-2.52a14,14,0,0,1,2.18-.38c.65-.49,1.35-1,2.1-1.66l1.36-1.13a18.62,18.62,0,0,1,2.52-1.74A8.44,8.44,0,0,1,89.48.51,6.67,6.67,0,0,1,92.2.41a4.06,4.06,0,0,1,1.71.76,15.56,15.56,0,0,1,2-.64,12.09,12.09,0,0,1,7.38.43A4.8,4.8,0,0,1,105.2.13,7.17,7.17,0,0,1,110,.94a9.08,9.08,0,0,1,3.16,2.54,9.35,9.35,0,0,1,1.7,3.72,16.17,16.17,0,0,1,3.25-.46,4.69,4.69,0,0,1,2.17.38,1.56,1.56,0,0,1,.83.91,1.54,1.54,0,0,1,0,.77,5.82,5.82,0,0,1,2.45,1.48A4.37,4.37,0,0,1,125,13.63,4.83,4.83,0,0,1,123.34,17a4.67,4.67,0,0,1-1.88,1.15,1.36,1.36,0,0,1-1.42-.2,1,1,0,0,1-.28-.81,1.19,1.19,0,0,1,.38-.82,2.07,2.07,0,0,1,1-.57.74.74,0,0,1,.75.16.82.82,0,0,1,.11.17.16.16,0,0,0,0,.06,5,5,0,0,0,.7-.37,4.48,4.48,0,0,0,.52-.41,3.49,3.49,0,0,0,1.22-2.44,3.15,3.15,0,0,0-1-2.41,3.52,3.52,0,0,0-2-1,5,5,0,0,0-.56-.06c-.63,1.13-2,2-4.08,2.52a13.58,13.58,0,0,1-2.18.38c-.64.49-1.34,1-2.1,1.67-.58.48-1,.86-1.36,1.12a18,18,0,0,1-2.52,1.74,8.44,8.44,0,0,1-2.24.88,6.67,6.67,0,0,1-2.72.1,4.07,4.07,0,0,1-1.7-.76,16.23,16.23,0,0,1-2,.64,12.07,12.07,0,0,1-7.37-.43,5,5,0,0,1-1.94.84,7.32,7.32,0,0,1-4.82-.81,9.31,9.31,0,0,1-3.16-2.55A9.34,9.34,0,0,1,81,11a16.26,16.26,0,0,1-3.26.46,4.65,4.65,0,0,1-2.16-.38,1.52,1.52,0,0,1-.84-.91,1.54,1.54,0,0,1,0-.77A5.78,5.78,0,0,1,72.3,8,4.37,4.37,0,0,1,70.86,4.6a4.85,4.85,0,0,1,1.68-3.35A4.67,4.67,0,0,1,74.42.1a1.36,1.36,0,0,1,1.42.2,1,1,0,0,1,.28.81,1.23,1.23,0,0,1-.37.82,2.16,2.16,0,0,1-1,.57A.76.76,0,0,1,74,2.34a.93.93,0,0,1-.1-.17l0-.06ZM104,1.25l.69.32A9.05,9.05,0,0,1,109,5.72a5.48,5.48,0,0,1,.3,4.13q.85-.55,1.74-1a21.58,21.58,0,0,1,3.42-1.46,8.52,8.52,0,0,0-1.58-3.57,8.62,8.62,0,0,0-3.05-2.49,6.36,6.36,0,0,0-4.19-.73,4.31,4.31,0,0,0-1.67.67Zm-.12,12.9a9.2,9.2,0,0,1-1.17.08,3,3,0,0,0-.7,1.16c.6-.36,1.23-.78,1.87-1.24Zm-2.94-.09a9.91,9.91,0,0,1-1.76-.55,4.84,4.84,0,0,1-1.73.75,6,6,0,0,1-3-.07A4.62,4.62,0,0,1,94,15.65a4.76,4.76,0,0,1-.92,1.26,9.25,9.25,0,0,0,5.56,0,13.47,13.47,0,0,0,2.43-1,2.52,2.52,0,0,1-.26-1.15,2.7,2.7,0,0,1,.11-.71Zm-2.21-.75-.34-.16a6.54,6.54,0,0,1-3.17-3,4.08,4.08,0,0,1,.1-3.68,6.16,6.16,0,0,1,.55-.87,7.74,7.74,0,0,0-1.49-.31l-.16.16a2.52,2.52,0,0,1-1.63.74A1.9,1.9,0,0,1,91,5.61l0,0a6.52,6.52,0,0,0-2,1l-.39.35.75.32.66.31a8.14,8.14,0,0,1,3.89,3.74,5.28,5.28,0,0,1,.56,2.52,6,6,0,0,0,2.71.11,4.82,4.82,0,0,0,1.49-.57Zm-2-8.59A4.92,4.92,0,0,1,98.47,4a6,6,0,0,1,3,.07,4.68,4.68,0,0,1,.46-1.46,4.58,4.58,0,0,1,.93-1.26,9.25,9.25,0,0,0-5.56,0,13.47,13.47,0,0,0-2.43,1,2.68,2.68,0,0,1,.25,1.15,2.71,2.71,0,0,1-.1.71,10.71,10.71,0,0,1,1.75.55Zm5.68-.35.63.29a9.07,9.07,0,0,1,2.23,1.56c.64.6.91,1,.82,1.18l0,0s0,0,0,0-.38-.33-1-.93a8.2,8.2,0,0,0-2-1.44l-.51-.24a5.89,5.89,0,0,0,.67,1.92,9,9,0,0,0,4,3.74l.37.17.28.13a5,5,0,0,0,.65-1,4.4,4.4,0,0,0,0-4.21A8.33,8.33,0,0,0,104.56,2c-.33-.17-.67-.32-1-.45a3.67,3.67,0,0,0-1.14,2.79Zm-1,.09a6,6,0,0,0-2.71-.11,4.78,4.78,0,0,0-1.5.57l.34.16a6.49,6.49,0,0,1,3.17,3,4.05,4.05,0,0,1-.1,3.68,5.37,5.37,0,0,1-.55.87,8.61,8.61,0,0,0,1.49.32l.16-.17a2.52,2.52,0,0,1,1.63-.74,1.88,1.88,0,0,1,1.52.56l0,0a6.57,6.57,0,0,0,2-1l.39-.35L106.5,11c-.24-.1-.46-.21-.66-.31A8.14,8.14,0,0,1,102,7a5.27,5.27,0,0,1-.55-2.52ZM96.27,5.72a4.32,4.32,0,0,0-.52.79,3.16,3.16,0,0,0,0,3A5.94,5.94,0,0,0,98.5,12a9.93,9.93,0,0,0,1.12.48,4.28,4.28,0,0,0,.51-.79,3.16,3.16,0,0,0,0-3A5.94,5.94,0,0,0,97.38,6.2q-.55-.27-1.11-.48ZM93.21,4a2.91,2.91,0,0,0,.7-1.16c-.6.36-1.22.78-1.86,1.24A8.92,8.92,0,0,1,93.21,4Zm.41-2.71,0,0A2.21,2.21,0,0,0,91.07,1a18.7,18.7,0,0,0-4.42,2.88c-.35.28-.83.69-1.47,1.22l-.92.76a18.84,18.84,0,0,1,2,.26,27.44,27.44,0,0,1,7.31-4.87Zm-7,7.09q-.86.55-1.74,1a22.91,22.91,0,0,1-3.41,1.47A8.4,8.4,0,0,0,83,14.43a8.75,8.75,0,0,0,3,2.5,6.42,6.42,0,0,0,4.19.72A4.25,4.25,0,0,0,91.92,17l-.68-.32a9,9,0,0,1-4.34-4.15,5.43,5.43,0,0,1-.31-4.13Zm5.73,8.27a3.64,3.64,0,0,0,.75-1,3.54,3.54,0,0,0,.39-1.78c-.21-.09-.42-.18-.62-.29A9.13,9.13,0,0,1,90.6,12c-.63-.6-.91-1-.81-1.18l0,0h0s.39.34,1,.93a8.31,8.31,0,0,0,2,1.44c.17.09.35.17.52.24a5.92,5.92,0,0,0-.68-1.92,9,9,0,0,0-4-3.74l-.38-.17-.28-.13a5.81,5.81,0,0,0-.65,1,4.4,4.4,0,0,0,0,4.21,8.25,8.25,0,0,0,3.87,3.55c.34.17.67.32,1,.45Zm23-4.82a11.61,11.61,0,0,0,1.4-.29,6.32,6.32,0,0,0,3.7-2.11,6.8,6.8,0,0,0-1.5.31,14.23,14.23,0,0,0-3.6,2.09Zm5.44-3.13a1,1,0,0,0,0-.56,1.17,1.17,0,0,0-.62-.68,3.54,3.54,0,0,0-2-.15,11.63,11.63,0,0,0-3,.88,6.59,6.59,0,0,1,.16,1.25v.3a9.78,9.78,0,0,1,1.07-.54,7.5,7.5,0,0,1,4-.58l.42.08Zm-18.46,8.24s0,0,0,0a2.19,2.19,0,0,0,2.51.21,18.19,18.19,0,0,0,4.42-2.88l1.47-1.21.92-.77c-.66-.05-1.35-.13-2.05-.25a27.07,27.07,0,0,1-7.31,4.86Z"/></g></g></svg>