<svg xmlns="http://www.w3.org/2000/svg" viewBox="0 0 136.36 36.99"><defs><style>.cls-1{fill:#847b73;}</style></defs><g id="Layer_2" data-name="Layer 2"><g id="Layer_2-2" data-name="Layer 2"><path class="cls-1" d="M17.84,2.88c-2.76.24-4.74,3.29-1.48,4.91a3.51,3.51,0,0,0,3.3-.51,3.75,3.75,0,0,0,1.93-4.72C20.34-1.62,15.21.2,12.64,1.83c-4.82,3.05-3,9.65-7.24,12.74l.87-.5A4.17,4.17,0,0,1,1.62,14c-1.68-1.26-.17-3.76,1.15-4.53L2,9.93c2.82-1.12,5.26-.17,7.32,1.84,2.47,2.41,4.17,5,7.13,7,5.12,3.36,11.53,3.18,17.16,1.31,2.67-.89,5.58-2.56,6.93-5.05,1.81-3.36,1.72-9.6-3.08-10.18C34.26,4.46,31,7.67,32.36,10.7c2.32,5.26,12,.05,15.55-.89C53,8.49,58.75,7.71,63.69,10c6.15,2.78,8,10.89,7,16.88-1.26,7.62-9,11.34-16.07,8.56C49,33.16,45.65,25.56,52,21.94l-.6.33c2.47-1.17,5.29-1.61,7.6.12s1.56,5.37-.57,6.83l.92-.53c-2,1-4.05.65-5.09-1.38l-.94.53c1.53,3,4.91,2,6.92.15s1.11-5.06-.79-6.49-5.19-.81-7.18.27c-3.53,1.94-5.69,5-4.15,9.13,2.21,5.88,10.56,7.12,15.64,4.91A13.31,13.31,0,0,0,71.13,28c2.15-6.06.08-14.39-5.44-18C61.22,7.05,55,7.88,50.12,9a56.85,56.85,0,0,0-7.33,2.24c-2.78,1-6,1.94-8.56,0-2.32-1.69-1.34-4.68.74-6l-.92.53c4.31-1.8,6.68,1.93,6.56,5.71-.16,5.17-4,7.66-8.76,8.76a19.11,19.11,0,0,1-14.49-2.06C12.94,15.59,10.5,8.73,4.78,8.91,2.48,9,.17,10.8,0,13c-.25,3.43,4.6,2,6.26,1,3.28-1.93,2.92-7,4.66-10,1.62-2.79,4.91-4.43,8-3a3.73,3.73,0,0,1,.27,6.45l.71-.39c-2.67.93-6.43-2-3.21-4l-.92.52a2.62,2.62,0,0,1,1.14-.23C17.23,3.38,17.52,2.91,17.84,2.88Z"/><path class="cls-1" d="M118.57,3.41c2.44.21,3.05,2.58,1.18,4.06l.92-.52c-4.54,2.25-6.88-3.82-3.17-6.39l-.94.53c4.66-2.2,8.93,2.27,10.14,6.37,1,3.53,1.7,8.07,6.49,7.81a3.45,3.45,0,0,0,3.16-3.4c-.26-3.6-5.37-3.31-7.6-2-3.16,1.82-4.91,5.1-7.63,7.44-4.25,3.63-9.67,4.08-15,3.15-3.76-.66-7.86-2.24-9.54-5.85C95.32,11.76,95.18,7.34,98,5.4l-.91.53C101.47,3.66,106,9,101.64,12.2l.91-.53c-2.8,1.46-5.9.31-8.66-.69a56.09,56.09,0,0,0-8-2.28C81.4,7.76,76.21,7.45,72,9.77,62,15.37,61.7,32.2,73.18,36.38c4,1.46,8,.1,11.42-1.94,5.07-3,5.8-9.63.45-12.7a7.41,7.41,0,0,0-9,1.07c-3.25,3.23,1.18,8.62,5.08,6.4a4.37,4.37,0,0,0,1.95-1.9c-.14.26-.8.26-.94.53a3.43,3.43,0,0,1-1.47,1.62l.92-.52c-4.75,1.85-7.46-4.63-3.71-7.44l-.7.41c2.56-1.44,5.77-.47,8,1.08a6.57,6.57,0,0,1,2.13,7.91c-2.63,7-12.37,6.48-17.3,2.76-6-4.51-5.47-13.47-2.38-19.44,3-5.72,9.6-6.13,15.32-5.33a48.85,48.85,0,0,1,7.56,1.78c2.86.86,5.5,2.24,8.56,2.24,3.27,0,6.47-3.27,4.65-6.37-1.64-2.77-5.46-1.79-7.44,0C93.1,9.36,95.14,15.66,97.94,18c4.65,3.9,13.51,4.5,18.88,1.94a26.45,26.45,0,0,0,3.88-2.19c3.25-2.34,5.15-6.2,8.59-8.22l-.88.49a6.06,6.06,0,0,1,5.63.21,2.8,2.8,0,0,1,.3,4.64l.93-.54c-5.66,2.58-6.82-5-8-8.47-1.35-4-6.16-7.39-10.28-5a4.79,4.79,0,0,0-2.4,2.92c-.71,2.39,2.07,5.25,4.51,4,.52-.26,1-.52,1.54-.83,2.15-1.33,1.08-3.88-1.17-4.07C119.2,2.86,118.86,3.44,118.57,3.41Z"/></g></g></svg>