<svg xmlns="http://www.w3.org/2000/svg" viewBox="0 0 167.74 10.37"><defs><style>.cls-1{fill-rule:evenodd;}</style></defs><g id="Layer_2" data-name="Layer 2"><g id="Layer_2-2" data-name="Layer 2"><path class="cls-1" d="M80.5,7.15c-.5.5-.28,1.41-2.18,1.43-1,0-1.88-1-.81-1.31.54-.16,1,.33.61.52-.06,0-.22,0-.09.06.32.07.38-.11.45-.11h0c.25.22-.26.27-.11.29.75.07.42-.85,2.23-1.1.42-.05,0,.08-.12.21ZM10.91,6.79c.54.39,1.52.21,1.55,1.7,0,.81-1.08,1.46-1.42.63-.17-.42.36-.77.56-.47,0,0,0,.16.07.07.08-.25-.13-.3-.12-.35s0,0,0,0c.24-.2.29.2.31.08C12,7.85,11,8.1,10.69,6.7c-.07-.33.08,0,.22.09Zm-.35-1.7H76.87a.58.58,0,0,0-.15.74H10.56a3,3,0,0,1,0-.74Zm.35-1c.54-.39,1.52-.21,1.55-1.7,0-.81-1.08-1.46-1.42-.63-.17.42.36.77.56.47,0,0,0-.16.07-.06s-.13.29-.12.34a0,0,0,0,0,0,0c.24.19.29-.21.31-.09.09.58-.92.32-1.18,1.73-.07.33.08,0,.22-.09Zm1.68,2c4.44,0,2.8,2.9,1.61,2.18-.63-.37-.28-1,.26-.82.08,0,.21.16.16,0-.14-.32-.44-.26-.49-.32s0,0,0,0c.12-.34.57.08.48-.06-.5-.78-5.2-1-2-1Zm0-1.34c4.44,0,2.8-2.9,1.61-2.18-.63.37-.28,1,.26.82.08,0,.21-.16.16,0-.14.32-.44.26-.49.32s0,0,0,0c.12.34.57-.08.48.06-.5.78-5.2,1-2,1ZM9.4,6.08a1.17,1.17,0,0,0,.15-.62,1.14,1.14,0,0,0-.15-.62,5.56,5.56,0,0,1-3.07.33c-1-.24-1.43-1-2.27-1.3-1.13-.47-2.42.6-1.81.6s.48.38.17.26C1.14,4.25.67,5.13.05,5.4c0,0,0,0,0,.06s0,0,.05.06c.62.27,1.09,1.15,2.37.67.31-.11.32.26-.17.26s.68,1.07,1.81.61C4.9,6.71,5.35,6,6.33,5.75a5.46,5.46,0,0,1,3.07.33Zm-1.88,0c-2.25,0-3,2.16-2.43,3.1s1.18.66,2.36.72c.76,0,1.25.54,1.24.39C8.61,9.24,7.4,9.1,6.91,8.42,5.88,7,8.4,6.53,8.63,7c.15.3,1.59-.85-1.11-.85Zm0-1.34c-2.25,0-3-2.16-2.43-3.1S6.27,1,7.45,1C8.21.93,8.7.43,8.69.58,8.61,1.68,7.4,1.82,6.91,2.5c-1,1.42,1.49,1.89,1.72,1.44s1.59.85-1.11.85Zm2.32.67c0,.89-.7,1.64-.43,2.39.12.33.86.62,1.07,0s-.28-.67-.28-2.35.46-1.78.28-2.35-1-.37-1.07,0c-.27.74.41,1.49.43,2.38Zm147,1.33c-.54.39-1.52.21-1.55,1.7,0,.81,1.08,1.46,1.42.63.17-.42-.35-.77-.56-.47,0,0,0,.16-.07.07-.07-.25.13-.3.13-.35l0,0c-.24-.2-.29.2-.31.08-.08-.58.92-.33,1.19-1.73.06-.33-.09,0-.23.09Zm.36-1.7H87.49a.59.59,0,0,1,.14.74h69.56a3.64,3.64,0,0,0,0-.74Zm-.36-1c-.54-.39-1.52-.21-1.55-1.7,0-.81,1.08-1.46,1.42-.63.17.42-.35.77-.56.47,0,0,0-.16-.07-.06s.13.29.13.34,0,0,0,0c-.24.19-.29-.21-.31-.09-.08.58.92.32,1.19,1.73.06.33-.09,0-.23-.09Zm-1.68,2c-4.44,0-2.79,2.9-1.61,2.18.63-.37.29-1-.26-.82-.08,0-.21.16-.16,0,.14-.32.45-.26.49-.32s0,0,0,0c-.12-.34-.57.08-.48-.06.5-.78,5.2-1,2-1Zm0-1.34c-4.44,0-2.79-2.9-1.61-2.18.63.38.29,1-.26.82-.08,0-.21-.16-.16,0,.14.32.45.26.49.32s0,0,0,0c-.12.34-.57-.08-.48.06.5.78,5.2,1,2,1Zm3.19,1.29a1.17,1.17,0,0,1-.15-.62,1.14,1.14,0,0,1,.15-.62,5.56,5.56,0,0,0,3.07.33c1-.24,1.43-1,2.27-1.3,1.14-.47,2.43.6,1.81.6s-.48.38-.17.26c1.28-.48,1.76.4,2.37.67,0,0,.05,0,.05.06s0,0-.05.06c-.61.27-1.09,1.15-2.37.67-.31-.11-.32.26.17.26s-.67,1.07-1.81.61c-.84-.35-1.29-1.07-2.27-1.31a5.46,5.46,0,0,0-3.07.33Zm1.88,0c2.25,0,3,2.16,2.43,3.1s-1.18.66-2.35.72c-.77,0-1.26.54-1.25.39.08-1.1,1.29-1.24,1.79-1.92,1-1.42-1.5-1.89-1.73-1.44-.15.3-1.59-.85,1.11-.85Zm0-1.34c2.25,0,3-2.16,2.43-3.1S161.47,1,160.3,1c-.77,0-1.26-.54-1.25-.39.08,1.1,1.29,1.24,1.79,1.92,1,1.42-1.5,1.89-1.73,1.44s-1.59.85,1.11.85Zm-2.32.67c0,.89.71,1.64.44,2.39-.12.33-.87.62-1.08,0s.29-.67.28-2.35-.46-1.78-.28-2.35,1-.37,1.08,0c.27.74-.41,1.49-.44,2.38ZM87.66,4.71c2.55,0,1.61-1.67.92-1.26-.36.22-.16.6.15.48,0,0,.13-.1.09,0s-.25.15-.28.19v0c.07.19.33-.05.28,0-.29.45-3,.57-1.16.57ZM84.28,2.14c.35,0,.76.13,1.07-.49.2-.41-.26-1-.65-.65-.2.18,0,.48.2.37,0,0,.07-.07.06,0s-.14.12-.15.15,0,0,0,0c.09.16.21,0,.19,0-.07.25-.41.06-.77.31a1.08,1.08,0,0,0-.39.43,1,1,0,0,1,.44-.14Zm2.25,2.57a.52.52,0,0,0,.36-.18c.34-.32.44-.32.42-.34s-.16,0-.28,0a1.14,1.14,0,0,1-1-.56c0-.06,0,1.08.5,1.08ZM88,8.17c.54-.45.43-1.4,2.27-1.22,1,.1,1.7,1.22.64,1.42-.55.11-.93-.44-.53-.58.06,0,.21,0,.09-.06-.3-.11-.38.07-.44.07l0,0c-.22-.25.28-.25.14-.28-.71-.16-.5.82-2.28.87-.41,0,0-.08.14-.2ZM82.79,4.84a1.42,1.42,0,0,1-.88,0,2.19,2.19,0,0,0,.23-1.58c-.17-.51-.68-.74-.93-1.17s.44-1.25.44-.93.26.24.18.09c-.34-.66.29-.91.48-1.22,0,0,0,0,0,0s0,0,0,0c.2.31.83.56.48,1.22-.08.15.19.16.19-.09s.76.35.43.93-.76.66-.93,1.17a2.19,2.19,0,0,0,.23,1.58Zm0-1c0-1.16,1.54-1.54,2.22-1.25s.47.61.51,1.21c0,.4.39.65.28.64-.79,0-.88-.66-1.38-.91-1-.53-1.34.77-1,.88s-.61.82-.61-.57Zm-.62,1.51c1.52,0,2.8-.87,4.07-.53.57.15,1.07,1.06-.06,1.32-1,.22-1.14-.35-4-.35s-3,.57-4,.35c-1.14-.26-.64-1.17-.07-1.32,1.27-.34,2.55.5,4.08.53Zm1.71,1.77c.5.5.27,1.41,2.18,1.43,1,0,1.88-1,.81-1.31-.54-.16-1,.33-.61.52.06,0,.21,0,.09.06-.32.07-.38-.11-.45-.11h0c-.25.22.27.27.12.29-.75.07-.43-.85-2.23-1.1-.43-.05,0,.08.12.21Zm-1.71-.39c.61,0,1.37.38,1.36.91s.93.91.89.94c-.34.26-1.19.08-1.22-.13,0,0-.11.19.07.37.73.77-.7.61-1,1.29,0,.06-.06.12-.11.12s-.09-.06-.11-.12c-.29-.68-1.72-.52-1-1.29.18-.18.08-.4.07-.37,0,.21-.88.39-1.22.13,0,0,.89-.39.88-.94s.76-.88,1.37-.91Zm-5.16-2c-2.56,0-1.61-1.67-.93-1.26.36.22.16.6-.15.48,0,0-.12-.1-.09,0s.25.15.28.19a0,0,0,0,1,0,0c-.07.19-.32-.05-.27,0,.29.45,3,.57,1.16.57Zm3.38-2.57c-.36,0-.76.13-1.08-.49-.2-.41.26-1,.65-.65.2.18,0,.48-.2.37,0,0-.06-.07,0,0s.14.12.15.15h0c-.09.16-.22,0-.2,0,.07.25.41.06.78.31a1.08,1.08,0,0,1,.39.43,1.06,1.06,0,0,0-.44-.14ZM78.18,4.71a.52.52,0,0,1-.36-.18c-.34-.31-.45-.32-.43-.34s.17,0,.28,0a1.17,1.17,0,0,0,1-.56c0-.06,0,1.08-.5,1.08ZM76.37,8.17C75.83,7.72,76,6.77,74.1,7c-1,.1-1.7,1.22-.63,1.42.54.11.92-.44.53-.58-.06,0-.21,0-.09-.06.3-.11.38.07.44.07l0,0c.21-.25-.29-.25-.15-.28.72-.16.51.82,2.28.87.42,0,0-.08-.14-.2Zm5.5-4.3c0-1.16-1.54-1.54-2.21-1.25s-.48.61-.52,1.21c0,.4-.39.65-.28.64.79,0,.89-.66,1.38-.91,1-.53,1.34.77,1,.88s.61.82.61-.57Z"/></g></g></svg>