<svg xmlns="http://www.w3.org/2000/svg" viewBox="0 0 63.12 44.08"><g id="Layer_2" data-name="Layer 2"><g id="Layer_2-2" data-name="Layer 2"><path d="M12.52,4.92l0-.57v0h0L13,4.27l.47.06h0l.18.45a1.61,1.61,0,0,1,0,.49,1.19,1.19,0,0,1-.64.7,2.74,2.74,0,0,1-1.87.17A2.28,2.28,0,0,1,9.69,5a2.86,2.86,0,0,1-.18-1.89,4.29,4.29,0,0,1,.77-1.75A3.38,3.38,0,0,1,11.85.27a7.2,7.2,0,0,1,3.77,0c5,1.22,8.89,4.65,12.87,7.58a38.2,38.2,0,0,0,6.33,3.9q3.39,1.59,6.88,2.89a42.7,42.7,0,0,0,7.17,1.94,20.92,20.92,0,0,0,7.36.05,13.84,13.84,0,0,0,3.45-1.26,5.07,5.07,0,0,0,2.49-2.49,2.07,2.07,0,0,0,.1-.43,1,1,0,0,0,0-.42c0-.16,0-.32,0-.47l-.11-.39a2.78,2.78,0,0,0-1.13-1.3,9.18,9.18,0,0,0-3.49-1A23.61,23.61,0,0,0,50.15,9a33.46,33.46,0,0,0-7,2.41c-2.27,1-4.49,2.18-6.72,3.31-1.11.56-2.24,1.1-3.38,1.61A23.63,23.63,0,0,0,29.65,18c-2.12,1.28-4,3-6.25,4.14-1.12.59-2.31,1-3.46,1.46a30.78,30.78,0,0,1-3.52,1.28l-3.6,1.09c-1.2.33-2.41.65-3.64.91a13.69,13.69,0,0,1-3.78.27l-1-.13-.93-.28a5.31,5.31,0,0,1-.89-.35,6.36,6.36,0,0,1-.83-.51A3.67,3.67,0,0,1,.54,24.32a2.66,2.66,0,0,1,0-2A5.06,5.06,0,0,1,3.4,19.79a12.33,12.33,0,0,1,1.8-.64,13.68,13.68,0,0,1,1.88-.32,17.78,17.78,0,0,1,3.79,0,39,39,0,0,1,14.14,5l6.58,3.58c2.18,1.22,4.32,2.52,6.49,3.77l3.23,1.9a17,17,0,0,0,3.31,1.58,11.22,11.22,0,0,0,3.59.55l.91-.07a2.87,2.87,0,0,0,.44,0L50,35a3.48,3.48,0,0,0,1.48-.81A3.15,3.15,0,0,0,52.32,31a3.34,3.34,0,0,0-.89-1.47,5.19,5.19,0,0,0-.68-.56l-.82-.39a8.49,8.49,0,0,0-3.56-.44,24,24,0,0,0-3.66.55c-2.42.57-4.86,1.17-7.26,1.83a36.59,36.59,0,0,0-3.54,1.16c-1.17.42-2.33.9-3.45,1.43a10.11,10.11,0,0,0-3,2,3.11,3.11,0,0,0-.85,1.57,2.53,2.53,0,0,0,.33,1.73,18.35,18.35,0,0,0,2.45,2.78c.89.87,1.82,1.71,2.77,2.52h0l.16,0,0,.06-.15,0h0c-1-.8-1.91-1.62-2.81-2.48a17.77,17.77,0,0,1-2.54-2.79,2.76,2.76,0,0,1-.37-1.85,3.31,3.31,0,0,1,.87-1.7,10.22,10.22,0,0,1,3.11-2.14c1.13-.55,2.28-1,3.45-1.48s2.37-.83,3.56-1.2c2.41-.68,4.83-1.3,7.26-1.89a23.38,23.38,0,0,1,3.73-.6,9,9,0,0,1,3.8.45,4.28,4.28,0,0,1,2.69,2.72,3.7,3.7,0,0,1-.94,3.72,4.09,4.09,0,0,1-1.76,1l-.46.09a3,3,0,0,1-.49,0l-1,.08a11.54,11.54,0,0,1-3.78-.59A16.65,16.65,0,0,1,41,33.57l-3.22-1.89c-2.16-1.26-4.29-2.56-6.47-3.77l-6.58-3.59a38.64,38.64,0,0,0-13.92-4.94,17.42,17.42,0,0,0-3.68,0,15.53,15.53,0,0,0-1.81.3,13.1,13.1,0,0,0-1.72.61A4.53,4.53,0,0,0,1,22.5a2.52,2.52,0,0,0,1.1,3,5.25,5.25,0,0,0,.75.47,4.76,4.76,0,0,0,.85.35l.87.26.9.14a13.28,13.28,0,0,0,3.66-.24c1.22-.24,2.43-.55,3.63-.87l3.58-1a29.45,29.45,0,0,0,3.52-1.25c1.14-.49,2.36-.87,3.44-1.44,2.22-1.11,4.1-2.8,6.26-4.09a25,25,0,0,1,3.39-1.61c1.14-.49,2.27-1,3.39-1.58,2.24-1.1,4.44-2.29,6.71-3.33A32.72,32.72,0,0,1,50.1,8.74a23.89,23.89,0,0,1,7.5-.27,9.47,9.47,0,0,1,3.64,1.06A3.09,3.09,0,0,1,62.53,11l.14.51c0,.16,0,.31,0,.46a1.47,1.47,0,0,1,0,.51,1.61,1.61,0,0,1-.12.48,5.35,5.35,0,0,1-2.65,2.73A14.06,14.06,0,0,1,56.33,17c-5,1-10.11-.27-14.81-1.92-2.34-.89-4.65-1.88-6.9-3a38.55,38.55,0,0,1-6.38-4c-2-1.51-3.94-3.07-6-4.46l-1.57-1c-.53-.32-1.1-.59-1.65-.88A13.34,13.34,0,0,0,15.56.53a6.94,6.94,0,0,0-3.62,0,3.17,3.17,0,0,0-1.46,1c-.09.12-.18.23-.26.35L10,2.31a8,8,0,0,0-.28.87,2.59,2.59,0,0,0,.13,1.76A2.13,2.13,0,0,0,11.24,6,2.6,2.6,0,0,0,13,5.87a1.06,1.06,0,0,0,.59-.62,1.29,1.29,0,0,0,0-.44l-.17-.42,0,0L13,4.35l-.45.05,0,0,0,.56Z"/><path d="M50.73,5.12l0-.55,0,0-.46,0-.45,0,0,0L49.66,5c0,.15,0,.3,0,.44a1,1,0,0,0,.6.62,2.66,2.66,0,0,0,1.8.12,2.11,2.11,0,0,0,1.39-1.07,2.5,2.5,0,0,0,.12-1.77,5.92,5.92,0,0,0-.29-.87l-.21-.42-.27-.36a3.41,3.41,0,0,0-1.49-1,7.32,7.32,0,0,0-3.66,0A14,14,0,0,0,44.18,2c-.56.3-1.13.56-1.67.88l-1.59,1c-2.08,1.4-4.06,3-6.08,4.47a38,38,0,0,1-6.47,4c-2.27,1.08-4.61,2.07-7,3-4.75,1.64-9.87,2.86-14.95,1.91a14.89,14.89,0,0,1-3.59-1.32A5.37,5.37,0,0,1,.16,13.15,2.7,2.7,0,0,1,0,12.66l0-.27v-.24c0-.16,0-.31,0-.47l.15-.51A3.2,3.2,0,0,1,1.5,9.7a10.05,10.05,0,0,1,3.69-1,25,25,0,0,1,7.57.27,34.62,34.62,0,0,1,7.15,2.49c2.3,1,4.53,2.23,6.79,3.33,1.13.56,2.27,1.09,3.43,1.59A23.76,23.76,0,0,1,33.56,18c2.19,1.28,4.09,3,6.34,4.09,1.09.57,2.32.95,3.48,1.43a30.75,30.75,0,0,0,3.56,1.26l3.61,1c1.22.32,2.45.63,3.67.88a14,14,0,0,0,3.7.24l.91-.14c.3-.07.59-.17.88-.26a5.11,5.11,0,0,0,1.62-.8,3.21,3.21,0,0,0,1.13-1.33,2.15,2.15,0,0,0,0-1.65,4.59,4.59,0,0,0-2.68-2.24,14.4,14.4,0,0,0-7.28-.9A39.21,39.21,0,0,0,38.45,24.5l-6.66,3.58c-2.21,1.22-4.36,2.52-6.54,3.77L22,33.75a17.83,17.83,0,0,1-3.47,1.65A11.72,11.72,0,0,1,14.7,36c-.32,0-.64,0-1-.07a4.57,4.57,0,0,1-.5,0l-.47-.1A4.22,4.22,0,0,1,11,34.85a3.72,3.72,0,0,1-1-3.75,4.34,4.34,0,0,1,2.71-2.74,9,9,0,0,1,3.84-.45,22.92,22.92,0,0,1,3.77.59c2.46.59,4.89,1.21,7.33,1.88,1.21.37,2.42.72,3.6,1.2s2.35.92,3.49,1.47a10.24,10.24,0,0,1,3.16,2.13,3.23,3.23,0,0,1,.91,1.69,2.62,2.62,0,0,1-.35,1.87,18.14,18.14,0,0,1-2.57,2.81C35,42.41,34,43.23,33,44h0l-.15,0,0,0L33,44h0c1-.82,1.9-1.65,2.8-2.53a17.58,17.58,0,0,0,2.48-2.79,2.66,2.66,0,0,0-.56-3.32,10.63,10.63,0,0,0-3.1-2c-1.14-.53-2.31-1-3.49-1.42a37.35,37.35,0,0,0-3.58-1.16c-2.43-.65-4.88-1.25-7.33-1.82a23.25,23.25,0,0,0-3.7-.54,8.68,8.68,0,0,0-3.6.44,3.8,3.8,0,0,0-2.41,2.44,3.16,3.16,0,0,0,.87,3.18,3.67,3.67,0,0,0,1.53.79l.46.09.44,0c.31,0,.61,0,.92.06a10.87,10.87,0,0,0,3.62-.56,16.89,16.89,0,0,0,3.36-1.59L25,31.36c2.18-1.26,4.35-2.56,6.56-3.77L38.18,24a39.66,39.66,0,0,1,14.29-5,17.52,17.52,0,0,1,3.83,0,13.46,13.46,0,0,1,1.9.32A12.59,12.59,0,0,1,60,20a5.07,5.07,0,0,1,2.92,2.54,2.62,2.62,0,0,1,0,2,3.74,3.74,0,0,1-1.3,1.51,5.57,5.57,0,0,1-1.75.85c-.31.09-.62.2-.93.27l-1,.13A14.36,14.36,0,0,1,54.14,27c-1.24-.26-2.46-.58-3.68-.91L46.83,25a28,28,0,0,1-3.56-1.28c-1.17-.49-2.36-.86-3.5-1.46-2.28-1.15-4.18-2.86-6.33-4.14A22.53,22.53,0,0,0,30,16.54q-1.72-.76-3.42-1.62c-2.26-1.12-4.5-2.27-6.8-3.3A34,34,0,0,0,12.7,9.2,24.62,24.62,0,0,0,5.23,9a9.47,9.47,0,0,0-3.54,1A2.88,2.88,0,0,0,.53,11.3l-.12.4c0,.14,0,.31,0,.47v.23a1.73,1.73,0,0,1,0,.2A2,2,0,0,0,.53,13,5,5,0,0,0,3,15.52a13.94,13.94,0,0,0,3.5,1.26,21.56,21.56,0,0,0,7.43,0,44.82,44.82,0,0,0,7.25-1.93c2.35-.87,4.67-1.82,7-2.89A38.17,38.17,0,0,0,34.59,8c4-2.94,8-6.37,13-7.6a7.72,7.72,0,0,1,3.82,0A3.48,3.48,0,0,1,53,1.55a4.09,4.09,0,0,1,.79,1.75,2.8,2.8,0,0,1-.17,1.91,2.3,2.3,0,0,1-1.52,1.13,2.8,2.8,0,0,1-1.89-.16,1.15,1.15,0,0,1-.65-.7,1.15,1.15,0,0,1,0-.49l.19-.45v0h0l.48,0,.47,0h0v0l0,.56Z"/></g></g></svg>