<svg xmlns="http://www.w3.org/2000/svg" viewBox="0 0 121.56 24.91"><g id="Layer_2" data-name="Layer 2"><g id="_ëîé_1" data-name="—ëîé_1"><path d="M120.75,11.07A13,13,0,0,1,117.32,13a11.23,11.23,0,0,0-.81-4.94A12.92,12.92,0,0,0,105.33,0c-4.22-.16-8.68,1.6-10.17,5.83-2.07,5.91,2.64,10.91,8.25,11.9,2.92.51,6.36-.56,7.75-2.88a12.1,12.1,0,0,0,3.7-.09c-1.12,4-5,6.25-9.3,6.29s-8-1.84-11.42-3.93A40.36,40.36,0,0,0,82.53,12,31,31,0,0,0,71,11.45c-4.86.71-8.95,2.8-10.24,3.91a23.55,23.55,0,0,0-10.24-3.91A31,31,0,0,0,39,12a40.36,40.36,0,0,0-11.61,5.18c-3.47,2.09-7.27,4-11.42,3.93s-8.18-2.31-9.3-6.29a12.1,12.1,0,0,0,3.7.09c1.39,2.32,4.83,3.39,7.75,2.88,5.61-1,10.32-6,8.25-11.9C24.91,1.61,20.45-.15,16.23,0A12.92,12.92,0,0,0,5.05,8.08,11.23,11.23,0,0,0,4.24,13,13,13,0,0,1,.81,11.07c-.46-.37-1.11.26-.65.65a13.6,13.6,0,0,0,4.2,2.42,9.79,9.79,0,0,0,5.12,7.29C14.41,24,20.15,23,25,20.68c3.39-1.64,3.14-2.2,7.9-4.5a40.39,40.39,0,0,1,11-3.75,30.55,30.55,0,0,1,7.05.09c-3.39.18-6.52,1.68-8.08,5.11-1.37,3-.3,7.57,3.71,7.26,2.74-.2,5-3.06,2.79-5.4a.68.68,0,0,0-1.1.81c2.12,3.24-4.9,4.38-4.1-1.17a5.9,5.9,0,0,1,2.26-3.47,9.48,9.48,0,0,1,6.23-1.95,16.4,16.4,0,0,1,7.85,2.37.54.54,0,0,0,.31.15.58.58,0,0,0,.38-.17,17.58,17.58,0,0,1,7.8-2.35,9.43,9.43,0,0,1,6.23,1.95,5.86,5.86,0,0,1,2.27,3.47c.8,5.55-6.22,4.41-4.11,1.17a.68.68,0,0,0-1.1-.81c-2.15,2.34.06,5.2,2.79,5.4,4,.31,5.09-4.24,3.71-7.26-1.55-3.42-4.67-4.92-8.06-5.11a30.72,30.72,0,0,1,7.07-.09,40.39,40.39,0,0,1,11,3.75c4.76,2.3,4.51,2.86,7.9,4.5,4.8,2.33,10.54,3.29,15.47.75a9.79,9.79,0,0,0,5.12-7.29,13.6,13.6,0,0,0,4.2-2.42C121.86,11.33,121.21,10.7,120.75,11.07ZM12.31,10.18c.48-.74,1.6-1.81,2.54-1.43a1.61,1.61,0,0,1,.89,1.5c0,.83-.75,1.34-1.45,1.85a6,6,0,0,1-2.36,1A3.75,3.75,0,0,1,12.31,10.18ZM6.37,12.56A10.63,10.63,0,0,1,13.2,2.84a10.36,10.36,0,0,1,7.87.2c5.14,2.39,4.41,9.1-.24,11.58-2,1.07-5.38,1.94-7.41.53a4.11,4.11,0,0,1-.85-.82,9.58,9.58,0,0,0,3.24-1.94,2.84,2.84,0,0,0-.66-4.89c-2.23-1.08-4.27,1-5,3a5.44,5.44,0,0,0-.26,3.16,10.73,10.73,0,0,1-3.44,0A8.9,8.9,0,0,1,6.37,12.56Zm103.26.53a6,6,0,0,1-2.36-1c-.7-.51-1.42-1-1.45-1.85a1.61,1.61,0,0,1,.89-1.5c.94-.38,2.06.69,2.54,1.43A3.75,3.75,0,0,1,109.63,13.09Zm5.47.53a10.73,10.73,0,0,1-3.44,0,5.44,5.44,0,0,0-.26-3.16c-.72-2-2.76-4.07-5-3a2.84,2.84,0,0,0-.66,4.89A9.58,9.58,0,0,0,109,14.33a4.11,4.11,0,0,1-.85.82c-2,1.41-5.4.54-7.41-.53-4.65-2.48-5.38-9.19-.24-11.58a10.36,10.36,0,0,1,7.87-.2,10.65,10.65,0,0,1,6.83,9.72A8.9,8.9,0,0,1,115.1,13.62Z"/></g></g></svg>