<svg xmlns="http://www.w3.org/2000/svg" viewBox="0 0 117.27 21.74"><g id="Layer_2" data-name="Layer 2"><g id="Layer_2-2" data-name="Layer 2"><path d="M36.22,13.76a25.82,25.82,0,0,0,3,.41,46.32,46.32,0,0,1,4.05-2.28,2.75,2.75,0,0,1-.08-.5A8.45,8.45,0,0,0,43,10a22.63,22.63,0,0,0-3.22,1.51c-1.09.61-2.26,1.36-3.52,2.24Zm44.83,0a25.82,25.82,0,0,1-3,.41q-2.3-1.42-4-2.28a4.29,4.29,0,0,0,.07-.5,9.7,9.7,0,0,1,.2-1.38,22.63,22.63,0,0,1,3.22,1.51,40.82,40.82,0,0,1,3.52,2.24Zm-7.65.34a21.27,21.27,0,0,1-2.12-.34q-4.16-.87-5.61-2.52a12.36,12.36,0,0,1,2.27.38A24.39,24.39,0,0,1,73.4,14.1Zm-8.26-3.73a1,1,0,0,1,0-.66,1.61,1.61,0,0,1,.94-.81,7,7,0,0,1,3.1-.19,21.49,21.49,0,0,1,4.47,1,6.77,6.77,0,0,0-.23,1.5,2.16,2.16,0,0,0,0,.36A16.66,16.66,0,0,0,71.83,11a14.23,14.23,0,0,0-6-.69l-.65.09Zm-1.93,8.85a7.55,7.55,0,0,1-1.05-.44,5.16,5.16,0,0,1-.8-.49,4,4,0,0,1-1.85-2.91,3.39,3.39,0,0,1,1.56-2.87,5.92,5.92,0,0,1,3-1.22,6.11,6.11,0,0,1,.86-.06q1.44,2,6.18,3a26,26,0,0,0,3.3.46c1,.59,2,1.25,3.18,2L79.63,18a30.4,30.4,0,0,0,3.82,2.08,15.55,15.55,0,0,0,3.39,1,12.59,12.59,0,0,0,4.12.12,6.85,6.85,0,0,0,2.59-.91,26.85,26.85,0,0,0,3,.77,23.14,23.14,0,0,0,13.28-1.24c3.19-1.28,5.38-2.92,6.57-5a5.29,5.29,0,0,0-.08-6q-2-3.08-6.64-3.93a16.74,16.74,0,0,0-9.39,1,9.18,9.18,0,0,0-4.8,3.6,4,4,0,0,0,.15,4.39,6.87,6.87,0,0,0,4.84,3,12.33,12.33,0,0,0,6.92-.83,14.36,14.36,0,0,0,3.39-1.85c1-.72,1.37-1.2,1.23-1.41,0,0,0,0-.06-.05s-.06,0-.08,0-.57.4-1.54,1.11a13.26,13.26,0,0,1-3,1.72,12.25,12.25,0,0,1-6.51.86A6.08,6.08,0,0,1,96.34,14a3.08,3.08,0,0,1,0-3.57,8.56,8.56,0,0,1,4.2-3,15.84,15.84,0,0,1,8.8-.93c3,.53,5.07,1.72,6.28,3.59a4.34,4.34,0,0,1,0,5c-1.09,1.69-3,3.11-5.88,4.23a18,18,0,0,1-11.06.89A24.34,24.34,0,0,1,95,19a2.57,2.57,0,0,0,.38-1.36A2.93,2.93,0,0,0,94,15.27a4.35,4.35,0,0,0-2.47-.89,3.34,3.34,0,0,0-2.29.67,2.39,2.39,0,0,0-.26.22.8.8,0,0,0-.15.17,9,9,0,0,1,1.89.5,6.37,6.37,0,0,1,1.57.85,3.55,3.55,0,0,1,1.3,1.56,54.13,54.13,0,0,1-8-4.82l1.13-.37c.37-.13.7-.25,1-.38a11.52,11.52,0,0,0,5.89-4.46,4.64,4.64,0,0,0,.07-5.24,6.9,6.9,0,0,0-5-2.93,13.71,13.71,0,0,0-7.29,1,13.79,13.79,0,0,0-4.78,3A10.16,10.16,0,0,0,74,8.58,30.94,30.94,0,0,0,69.08,8a8.62,8.62,0,0,0-3.27.45,2,2,0,0,0-1.26,1.08,1.35,1.35,0,0,0,0,.93,9.3,9.3,0,0,0-3.71,1.76c-3.12,2.45-2.81,5.64.36,8A7.54,7.54,0,0,0,64,21.62a2.5,2.5,0,0,0,2.14-.23,1.05,1.05,0,0,0,.43-1,1.3,1.3,0,0,0-.57-1,3.38,3.38,0,0,0-1.46-.68,1.35,1.35,0,0,0-1.14.19,1.47,1.47,0,0,0-.17.2l0,.07Zm29.91,1-.06.05c-.86.68-2.13.76-3.8.25a29.35,29.35,0,0,1-6.71-3.44l-2.22-1.44-1.39-.91c1-.06,2-.16,3.1-.31a43.43,43.43,0,0,0,11.08,5.8ZM84.6,12.93a39.41,39.41,0,0,0-4.77-2.4,40.39,40.39,0,0,0-5.18-1.75A9.26,9.26,0,0,1,77,4.53a12.8,12.8,0,0,1,4.62-3A12,12,0,0,1,88,.69a5.77,5.77,0,0,1,4.27,2.4q1.41,2.18-.5,5a12.65,12.65,0,0,1-6.07,4.46l-.56.21a5.62,5.62,0,0,0-.55.2ZM43.88,14.1c.71-.08,1.41-.19,2.11-.34q4.15-.87,5.61-2.52a12.36,12.36,0,0,0-2.27.38,24.16,24.16,0,0,0-5.45,2.48Zm8.25-3.73a1,1,0,0,0,0-.66,1.61,1.61,0,0,0-.94-.81,7,7,0,0,0-3.1-.19,21.49,21.49,0,0,0-4.47,1,7.48,7.48,0,0,1,.24,1.5v.36A16.56,16.56,0,0,1,45.44,11a14.25,14.25,0,0,1,6-.69l.65.09Zm1.93,8.85a7.07,7.07,0,0,0,1-.44,4.73,4.73,0,0,0,.8-.49,3.92,3.92,0,0,0,1.85-2.91,3.42,3.42,0,0,0-1.56-2.87,5.88,5.88,0,0,0-3-1.22,6.11,6.11,0,0,0-.86-.06q-1.44,2-6.17,3a26.65,26.65,0,0,1-3.31.46c-1,.59-2,1.25-3.18,2L37.64,18a30.4,30.4,0,0,1-3.82,2.08,15.55,15.55,0,0,1-3.39,1,12.58,12.58,0,0,1-4.12.12,6.85,6.85,0,0,1-2.59-.91,26.85,26.85,0,0,1-3,.77A23.14,23.14,0,0,1,7.45,19.87c-3.19-1.28-5.38-2.92-6.57-5A5.29,5.29,0,0,1,1,9Q2.94,5.89,7.6,5a16.74,16.74,0,0,1,9.39,1,9.18,9.18,0,0,1,4.8,3.6,4,4,0,0,1-.15,4.39,6.87,6.87,0,0,1-4.83,3,12.41,12.41,0,0,1-6.94-.83,14.49,14.49,0,0,1-3.38-1.85c-1-.72-1.37-1.2-1.23-1.41,0,0,0,0,.06-.05s.07,0,.08,0S6,13.26,6.94,14a13.05,13.05,0,0,0,3,1.72,12.25,12.25,0,0,0,6.51.86A6.08,6.08,0,0,0,20.93,14a3.08,3.08,0,0,0,0-3.57,8.51,8.51,0,0,0-4.2-3A15.87,15.87,0,0,0,8,6.47C5,7,2.89,8.19,1.68,10.06a4.33,4.33,0,0,0,0,5c1.08,1.69,3,3.11,5.87,4.23a18,18,0,0,0,11.06.89A24.34,24.34,0,0,0,22.31,19a2.57,2.57,0,0,1-.38-1.36,2.93,2.93,0,0,1,1.38-2.35,4.35,4.35,0,0,1,2.47-.89,3.36,3.36,0,0,1,2.3.67l.26.22a1.15,1.15,0,0,1,.14.17,9,9,0,0,0-1.89.5,6.13,6.13,0,0,0-1.56.85,3.52,3.52,0,0,0-1.31,1.56,54.13,54.13,0,0,0,8-4.82l-1.13-.37c-.37-.13-.7-.25-1-.38a11.52,11.52,0,0,1-5.89-4.46,4.64,4.64,0,0,1-.07-5.24,6.9,6.9,0,0,1,5-2.93,13.71,13.71,0,0,1,7.29,1,13.79,13.79,0,0,1,4.78,3,10.16,10.16,0,0,1,2.58,4.43A30.94,30.94,0,0,1,48.19,8a8.62,8.62,0,0,1,3.27.45,2.1,2.1,0,0,1,1.27,1.08,1.47,1.47,0,0,1,0,.93,9.24,9.24,0,0,1,3.71,1.76c3.12,2.45,2.81,5.64-.36,8a7.54,7.54,0,0,1-2.85,1.37,2.5,2.5,0,0,1-2.14-.23,1.05,1.05,0,0,1-.43-1,1.3,1.3,0,0,1,.57-1,3.36,3.36,0,0,1,1.47-.68,1.34,1.34,0,0,1,1.13.19,1,1,0,0,1,.17.2l.05.07Zm-29.91,1,.06.05c.86.68,2.12.76,3.8.25a29.35,29.35,0,0,0,6.71-3.44l2.22-1.44,1.39-.91c-1-.06-2-.16-3.1-.31a43.43,43.43,0,0,1-11.08,5.8Zm8.53-7.27a38.56,38.56,0,0,1,4.76-2.4,40.39,40.39,0,0,1,5.18-1.75,9.35,9.35,0,0,0-2.39-4.25,12.89,12.89,0,0,0-4.62-3A12,12,0,0,0,29.26.69,5.8,5.8,0,0,0,25,3.09c-.93,1.45-.77,3.11.5,5a12.72,12.72,0,0,0,6.06,4.46l.57.21.56.2Z"/></g></g></svg>