<svg xmlns="http://www.w3.org/2000/svg" viewBox="0 0 113.48 23.06">
  <g data-name="Layer 2">
    <path d="M109.29 1.23C104.45-.68 98.58 0 93.62 1a27.57 27.57 0 0 0-10.26 4 63.13 63.13 0 0 0-11.87-3c-4-.5-10.07-.56-13.15 3.16a11.25 11.25 0 0 0-1.6 2.76 11.25 11.25 0 0 0-1.6-2.76C52.06 1.43 46 1.49 42 2a62.93 62.93 0 0 0-11.87 3 27.7 27.7 0 0 0-10.26-4C14.9 0 9-.68 4.19 1.23 1.53 2.27-1.61 5.65 1 8.49c3.37 3.75 11.2 3.26 15.59 2.65 4.85-.67 9.48-2.27 14.13-3.76a10.8 10.8 0 0 1 2.1 2.92c2.15 4.44-1.34 8.89-5.54 10.14a12.42 12.42 0 0 1-6.57.11A5.55 5.55 0 0 1 18 19.1a3.35 3.35 0 0 1-.72-1 2.24 2.24 0 0 1 4.19-1.56c.37.68 1.37.08 1-.6-1.61-3.24-7-2.82-7.15 1.18s5.31 5.9 8.52 5.92c8.31.06 15.18-8.27 9.06-15.56-.18-.22-.38-.44-.58-.64 1.06-.45 2.54-1.05 4.37-1.64a34.25 34.25 0 0 1 7.22-1.7 13.72 13.72 0 0 1 5.59.13 7.74 7.74 0 0 1 4 2.14 9.1 9.1 0 0 1 2.34 4.05c0 .29.18 1.14.66 1.29a.46.46 0 0 0 .2 0 .44.44 0 0 0 .2 0c.48-.15.61-1 .66-1.29A9.11 9.11 0 0 1 60 5.77a7.71 7.71 0 0 1 4-2.14 13.67 13.67 0 0 1 5.58-.13 34.5 34.5 0 0 1 7.22 1.72c1.82.59 3.31 1.19 4.36 1.64-.2.2-.39.42-.58.64-6.12 7.29.75 15.62 9.07 15.56 3.2 0 8.62-1.86 8.51-5.92S92.61 12.72 91 16c-.33.68.67 1.28 1 .6a2.24 2.24 0 0 1 4.19 1.56 3.14 3.14 0 0 1-.71 1 5.54 5.54 0 0 1-2.69 1.45 12.38 12.38 0 0 1-6.56-.11c-4.21-1.25-7.7-5.7-5.55-10.14a11 11 0 0 1 2.1-2.92c4.66 1.49 9.28 3.09 14.13 3.76 4.4.61 12.23 1.1 15.6-2.65 2.58-2.9-.51-6.28-3.22-7.32ZM14.9 9a29.91 29.91 0 0 1-6.82 0C5.88 8.68.57 7.88 2.17 4.49c1.46-3.1 7.38-3.13 10.17-3.11 4.76 0 11.43 1.12 16.06 4.17A65.63 65.63 0 0 1 14.9 9Zm90.5 0a29.91 29.91 0 0 1-6.82 0 65.79 65.79 0 0 1-13.5-3.4c4.64-3 11.31-4.13 16.07-4.17 2.78 0 8.7 0 10.17 3.11 1.6 3.34-3.72 4.14-5.92 4.46Z" data-name="—ëîé_1"/>
  </g>
</svg>