<svg xmlns="http://www.w3.org/2000/svg" viewBox="0 0 163.87 17.24"><g id="Layer_2" data-name="Layer 2"><g id="_ëîé_1" data-name="—ëîé_1"><path d="M161.2,1.63a6.2,6.2,0,0,0-5-1.56,7.44,7.44,0,0,0-5.07,3.22,3.38,3.38,0,0,0-.17,3.06.62.62,0,0,0,.83.31.67.67,0,0,0,.44-.83,2.3,2.3,0,0,1,.64-2.52,6.41,6.41,0,0,1,5.59-1.42,5.43,5.43,0,0,1,3.28,3.28,5.65,5.65,0,0,1-.38,4.82c-2.59,4.45-8.81,5.44-13.84,5.44h-.68c-7.36-.12-14.26-2.68-20.93-5.15-1.34-.5-2.74-1-4.11-1.51A77.62,77.62,0,0,0,108.12,5a17.77,17.77,0,0,0-6.66-.15A10.72,10.72,0,0,0,98.7,2.71c-4.19-2.29-10.62-3-14.86.9-.63.58-2.63,2.65-1.86,4.83a2.79,2.79,0,0,0,1.49,1.65,3.67,3.67,0,0,0,2.82,0,.49.49,0,0,0,.28-.62A.42.42,0,0,0,86,9.24a2.25,2.25,0,0,1-2.44-.51A2.49,2.49,0,0,1,83.41,6a5.77,5.77,0,0,1,3.17-2.68,12.16,12.16,0,0,1,8.57-.22,12.69,12.69,0,0,1,3.67,1.8,6.26,6.26,0,0,1,.73.64,5.29,5.29,0,0,0-.94.74,4,4,0,0,0-.84,4.52c.31.5,1.09,1.24,2.85.65a3.49,3.49,0,0,0,2.31-3.65,4.71,4.71,0,0,0-.49-1.63c3.43-.58,7.45.58,10.68,1.52l.65.19c3.86,1.12,7.56,2.48,10.67,3.66l.41.16c6.52,2.49,13.26,5.06,20.48,5.47.57,0,1.17,0,1.78,0,4.86,0,10.93-1.07,14.25-4.19a7.59,7.59,0,0,0-.16-11.42Zm-59.82,6.8a2,2,0,0,1-.84,1.62,1.21,1.21,0,0,1-1.09.14,1.19,1.19,0,0,1-.55-1,2.25,2.25,0,0,1,.76-1.86,3,3,0,0,1,1-.64A2.35,2.35,0,0,1,101.38,8.43Z"/><path d="M80,3.61C75.79-.28,69.36.42,65.17,2.71A10.72,10.72,0,0,0,62.41,4.8,17.77,17.77,0,0,0,55.75,5,77.62,77.62,0,0,0,42.11,8.76c-1.37.49-2.77,1-4.11,1.51-6.67,2.47-13.58,5-20.93,5.15-5.13.1-11.81-.78-14.52-5.43a5.65,5.65,0,0,1-.38-4.82A5.43,5.43,0,0,1,5.45,1.89,6.41,6.41,0,0,1,11,3.31a2.3,2.3,0,0,1,.64,2.52.67.67,0,0,0,.44.83A.62.62,0,0,0,13,6.35a3.41,3.41,0,0,0-.17-3.06A7.46,7.46,0,0,0,7.71.07a6.2,6.2,0,0,0-5,1.56,7.59,7.59,0,0,0-.16,11.42c3.32,3.12,9.39,4.19,14.25,4.19.61,0,1.21,0,1.78,0,7.22-.41,14-3,20.48-5.47l.41-.16C42.54,10.38,46.24,9,50.1,7.9l.65-.19C54,6.77,58,5.61,61.43,6.19a4.71,4.71,0,0,0-.49,1.63,3.49,3.49,0,0,0,2.31,3.65c1.76.59,2.54-.15,2.85-.65a4,4,0,0,0-.84-4.52,5,5,0,0,0-1-.74,7,7,0,0,1,.74-.64,12.69,12.69,0,0,1,3.67-1.8,12.16,12.16,0,0,1,8.57.22A5.77,5.77,0,0,1,80.46,6a2.5,2.5,0,0,1-.18,2.71,2.25,2.25,0,0,1-2.44.51.42.42,0,0,0-.54.27.48.48,0,0,0,.28.61,3.62,3.62,0,0,0,2.82,0,2.79,2.79,0,0,0,1.49-1.65C82.66,6.26,80.66,4.19,80,3.61ZM64.21,7.35A2.25,2.25,0,0,1,65,9.21a1.21,1.21,0,0,1-.55,1,1.18,1.18,0,0,1-1.09-.14,2,2,0,0,1-.84-1.62,2.35,2.35,0,0,1,.77-1.72A2.84,2.84,0,0,1,64.21,7.35Z"/></g></g></svg>