<svg xmlns="http://www.w3.org/2000/svg" viewBox="0 0 167.65 15.6">
  <path d="M94.34 9.88a11.37 11.37 0 0 0 1.68.29 24.61 24.61 0 0 1 2.28-1.63v-.37a8.54 8.54 0 0 0-.11-1 12.15 12.15 0 0 0-1.82 1.09 22 22 0 0 0-2 1.61ZM0 7.43h61.48a4.18 4.18 0 0 0 .84.74H0v-.74Zm105.27 0h62.38v.74h-61.51a4.79 4.79 0 0 0-.87-.74ZM73.32 5.72a14.78 14.78 0 0 0-1.68-.29 27 27 0 0 1-2.29 1.64 2.6 2.6 0 0 1 0 .36 8.29 8.29 0 0 0 .11 1 11.44 11.44 0 0 0 1.83-1.09 23.14 23.14 0 0 0 2-1.61ZM69 5.48q-.6.09-1.2.24a5.51 5.51 0 0 0-3.17 1.81 5.31 5.31 0 0 0 1.29-.27A12.31 12.31 0 0 0 69 5.48Zm-4.67 2.68a.87.87 0 0 0 0 .48 1 1 0 0 0 .53.58 3.18 3.18 0 0 0 1.74.13 10 10 0 0 0 2.54-.75A5.52 5.52 0 0 1 69 7.53v-.27a6.19 6.19 0 0 1-.92.47 6.39 6.39 0 0 1-3.41.5l-.36-.07Zm-1.1-6.35a4.61 4.61 0 0 0-.59.31 2.73 2.73 0 0 0-.45.36 3 3 0 0 0-1 2.08A2.69 2.69 0 0 0 62 6.63a3 3 0 0 0 1.69.87 3.87 3.87 0 0 0 .49 0 5.24 5.24 0 0 1 3.5-2.1 11.42 11.42 0 0 1 1.87-.33c.55-.42 1.15-.9 1.8-1.43s.88-.74 1.16-1a15.68 15.68 0 0 1 2.16-1.49 6.8 6.8 0 0 1 1.92-.71 5.77 5.77 0 0 1 2.32-.09 3.32 3.32 0 0 1 1.46.65 13.91 13.91 0 0 1 1.69-.55 10.39 10.39 0 0 1 6.31.37A4.21 4.21 0 0 1 90 .11a6.2 6.2 0 0 1 4.16.69 7.8 7.8 0 0 1 2.7 2.2 8 8 0 0 1 1.45 3.18 13.94 13.94 0 0 1 2.79-.39 4.13 4.13 0 0 1 1.85.32 1.33 1.33 0 0 1 .72.78 1.23 1.23 0 0 1 0 .66 5 5 0 0 1 2.1 1.27 3.72 3.72 0 0 1 1.23 2.84 4.18 4.18 0 0 1-1.44 2.87 3.92 3.92 0 0 1-1.61 1 1.17 1.17 0 0 1-1.21-.17.83.83 0 0 1-.25-.7 1 1 0 0 1 .33-.7 1.79 1.79 0 0 1 .82-.49.68.68 0 0 1 .65.14.85.85 0 0 1 .09.14 3.57 3.57 0 0 0 .59-.31 4.27 4.27 0 0 0 .46-.35 3 3 0 0 0 1-2.09 2.7 2.7 0 0 0-.8-2 3 3 0 0 0-1.69-.88 3.58 3.58 0 0 0-.48 0 5.34 5.34 0 0 1-3.46 2.09 13.75 13.75 0 0 1-1.87.33c-.55.41-1.15.89-1.79 1.42l-1.17 1A15.24 15.24 0 0 1 93 14.42a7.14 7.14 0 0 1-1.91.74 5.47 5.47 0 0 1-2.33.09 3.42 3.42 0 0 1-1.46-.65 12.78 12.78 0 0 1-1.69.55 10.32 10.32 0 0 1-6.31-.37 4.24 4.24 0 0 1-1.66.72 6.26 6.26 0 0 1-4.12-.7 7.62 7.62 0 0 1-4.16-5.36 13.25 13.25 0 0 1-2.79.39 3.89 3.89 0 0 1-1.85-.32 1.31 1.31 0 0 1-.72-.78 1.23 1.23 0 0 1 0-.66 4.86 4.86 0 0 1-2.1-1.26 3.74 3.74 0 0 1-1.23-2.87 4.11 4.11 0 0 1 1.44-2.87 4.08 4.08 0 0 1 1.61-1 1.17 1.17 0 0 1 1.21.18.84.84 0 0 1 .24.69 1 1 0 0 1-.32.7 1.87 1.87 0 0 1-.83.49.62.62 0 0 1-.66-.13.73.73 0 0 1-.1-.14.11.11 0 0 0 0-.05ZM89 1.07c.2.08.39.18.59.27a7.74 7.74 0 0 1 3.71 3.55 4.67 4.67 0 0 1 .26 3.54c.49-.31 1-.61 1.49-.87A18.91 18.91 0 0 1 98 6.3a7.2 7.2 0 0 0-1.34-3A7.42 7.42 0 0 0 94 1.12 5.48 5.48 0 0 0 90.41.5a3.58 3.58 0 0 0-1.41.57Zm-.11 11a6.59 6.59 0 0 1-1 .07 2.49 2.49 0 0 0-.6 1c.51-.31 1-.66 1.59-1.06ZM86.36 12a8 8 0 0 1-1.51-.47 4.07 4.07 0 0 1-1.48.65 5.18 5.18 0 0 1-2.53-.06 4.23 4.23 0 0 1-.4 1.25 4.12 4.12 0 0 1-.79 1.08 8 8 0 0 0 4.76 0 11.82 11.82 0 0 0 2.08-.88 2.17 2.17 0 0 1-.22-1 2.1 2.1 0 0 1 .09-.61Zm-1.89-.64-.29-.14a5.47 5.47 0 0 1-2.71-2.58 3.47 3.47 0 0 1 .08-3.15 4.46 4.46 0 0 1 .45-.71 6.4 6.4 0 0 0-1.27-.27l-.14.14a2.22 2.22 0 0 1-1.4.63 1.64 1.64 0 0 1-1.3-.48 5.37 5.37 0 0 0-1.68.82l-.34.3.64.27.57.27a7 7 0 0 1 3.33 3.2 4.43 4.43 0 0 1 .47 2.16 5.09 5.09 0 0 0 2.32.09 3.92 3.92 0 0 0 1.28-.49ZM82.8 4a4.21 4.21 0 0 1 1.48-.64 5 5 0 0 1 2.54.06 3.81 3.81 0 0 1 .4-1.25A3.77 3.77 0 0 1 88 1.13a7.89 7.89 0 0 0-4.76 0 11.51 11.51 0 0 0-2.07.87 2.2 2.2 0 0 1 .22 1 2.43 2.43 0 0 1-.09.61 8.65 8.65 0 0 1 1.5.39Zm4.86-.3.54.3a7.83 7.83 0 0 1 1.91 1.33c.54.52.77.86.69 1l-.86-.8a7 7 0 0 0-1.72-1.23 4.39 4.39 0 0 0-.44-.21 5.19 5.19 0 0 0 .58 1.65A7.67 7.67 0 0 0 91.7 9l.32.14.25.11a4.72 4.72 0 0 0 .56-.86 3.77 3.77 0 0 0 0-3.6 7.1 7.1 0 0 0-3.32-3 8 8 0 0 0-.85-.39 3 3 0 0 0-.65.87 3 3 0 0 0-.33 1.52Zm-.88.08a4.94 4.94 0 0 0-2.32-.09 3.65 3.65 0 0 0-1.27.48l.28.14a5.58 5.58 0 0 1 2.72 2.58 3.49 3.49 0 0 1-.09 3.16 4.24 4.24 0 0 1-.47.74 7.12 7.12 0 0 0 1.28.27L87 11a2.18 2.18 0 0 1 1.4-.64 1.63 1.63 0 0 1 1.3.48 5.44 5.44 0 0 0 1.76-.84l.33-.3-.63-.27-.57-.27A7 7 0 0 1 87.26 6a4.53 4.53 0 0 1-.48-2.15ZM82.39 4.9a3.53 3.53 0 0 0-.44.67 2.69 2.69 0 0 0 0 2.57 5 5 0 0 0 2.37 2.15 8.86 8.86 0 0 0 1 .42 3.17 3.17 0 0 0 .38-.71 2.69 2.69 0 0 0 0-2.57 5.09 5.09 0 0 0-2.37-2.15 7.91 7.91 0 0 0-1-.41Zm-2.61-1.48a2.36 2.36 0 0 0 .6-1c-.52.31-1 .67-1.6 1.07a6.63 6.63 0 0 1 1-.08Zm.35-2.31A1.91 1.91 0 0 0 78 .89a15.6 15.6 0 0 0-3.79 2.47c-.29.23-.71.58-1.25 1l-.79.65a15.79 15.79 0 0 1 1.75.22 23.24 23.24 0 0 1 6.26-4.16Zm-6 6.06c-.49.32-1 .61-1.49.88A19.44 19.44 0 0 1 69.7 9.3a7.34 7.34 0 0 0 1.34 3 7.69 7.69 0 0 0 2.62 2.14 5.54 5.54 0 0 0 3.59.62 3.63 3.63 0 0 0 1.42-.58c-.19-.08-.39-.17-.58-.27a7.76 7.76 0 0 1-3.72-3.55 4.71 4.71 0 0 1-.26-3.54ZM79 14.25a3 3 0 0 0 .64-.87 3 3 0 0 0 .36-1.52c-.17-.07-.35-.16-.53-.25a7.83 7.83 0 0 1-1.91-1.33c-.55-.51-.78-.85-.7-1s.32.28.87.8a7.31 7.31 0 0 0 1.71 1.23l.44.2a4.63 4.63 0 0 0-.58-1.64A7.57 7.57 0 0 0 76 6.62l-.32-.15-.24-.11a5.09 5.09 0 0 0-.56.86 3.82 3.82 0 0 0 0 3.61 7.1 7.1 0 0 0 3.32 3c.29.14.57.27.86.38Zm19.65-4.13a11.93 11.93 0 0 0 1.19-.24A5.45 5.45 0 0 0 103 8.07a5.34 5.34 0 0 0-1.28.27 12.46 12.46 0 0 0-3.08 1.78Zm4.66-2.67a1 1 0 0 0 0-.48 1 1 0 0 0-.53-.59 3.21 3.21 0 0 0-1.78-.13 9.58 9.58 0 0 0-2.5.75 5.45 5.45 0 0 1 .13 1.07 1.13 1.13 0 0 1 0 .26 8.07 8.07 0 0 1 .92-.47 6.4 6.4 0 0 1 3.45-.48l.37.07ZM87.52 14.5a1.87 1.87 0 0 0 2.14.19 15.72 15.72 0 0 0 3.79-2.47l1.26-1c.27-.23.53-.45.79-.65-.57-.05-1.16-.12-1.76-.22a23.32 23.32 0 0 1-6.26 4.16Z" data-name="Layer 2"/>
</svg>