<svg xmlns="http://www.w3.org/2000/svg" viewBox="0 0 111.2 16.56"><g id="Layer_2" data-name="Layer 2"><g id="_ëîé_1" data-name="—ëîé_1"><path d="M96.87,7.28a4.72,4.72,0,0,0-1.28,5.47c.89,2.21,3.2,3.41,5.46,3.73,4.87.69,10.46-3.06,10.14-8.35-.35-5.81-7-8.52-12-8.09-7.31.63-14,5.08-20.76,7.69a38.63,38.63,0,0,1-12.32,3c-2.09.09-4.42,0-6.26-1.09-2.33-1.43-3.45-5.46.2-6.09,1.23-.22.69-2-.51-1.86A4.65,4.65,0,0,0,55.7,7.2c.6,3,3.41,4.74,6.18,5.29,7.39,1.48,15-1.67,21.63-4.64s17.87-10.19,24.38-3.37c3.38,3.54,1.39,8.39-2.68,10.28a7.16,7.16,0,0,1-6.89-.42A4,4,0,0,1,97.59,8C98.08,7.54,97.37,6.87,96.87,7.28Z"/><path d="M14.33,7.28a4.72,4.72,0,0,1,1.28,5.47c-.89,2.21-3.2,3.41-5.45,3.73C5.28,17.17-.31,13.42,0,8.13.36,2.32,7-.39,12.05,0,19.36.67,26.1,5.12,32.81,7.73a38.69,38.69,0,0,0,12.33,3c2.09.09,4.41,0,6.25-1.09,2.33-1.43,3.45-5.46-.2-6.09-1.22-.22-.69-2,.51-1.86A4.66,4.66,0,0,1,55.51,7.2c-.6,3-3.42,4.74-6.19,5.29-7.39,1.48-15-1.67-21.62-4.64S9.82-2.34,3.31,4.48C-.07,8,1.93,12.87,6,14.76a7.16,7.16,0,0,0,6.89-.42A4,4,0,0,0,13.61,8C13.12,7.54,13.83,6.87,14.33,7.28Z"/></g></g></svg>