<svg xmlns="http://www.w3.org/2000/svg" viewBox="0 0 113.55 19.78"><g id="Layer_2" data-name="Layer 2"><g id="_ëîé_1" data-name="—ëîé_1"><path d="M109.44,3.64C104.46-1,96.24-.87,90.8,2.25A15.69,15.69,0,0,0,86.35,6.1c-2.8-2.4-7-2.22-10.3-.44a14.78,14.78,0,0,0-4,3.29c-3.73-4.25-10.15-6-15.27-3.07C51.63,2.92,45.2,4.7,41.47,9a14.74,14.74,0,0,0-4-3.29c-3.27-1.78-7.51-2-10.3.44a15.83,15.83,0,0,0-4.45-3.85C17.31-.87,9.09-1,4.11,3.64,3.56,4.15-1.24,8.8.31,13.89a9.1,9.1,0,0,0,5.78,5.63,7.19,7.19,0,0,0,3.29.13c.3-.06,1.38-.27,1.43-.71a.41.41,0,0,0-.12-.33c-.17-.16-.47-.08-.54-.07-3.92.88-7.29-1.37-7.6-5.37A8.82,8.82,0,0,1,6.42,5.32c5.29-3.7,14.24-2.48,19.07,1.46.2.16.4.34.59.52-.11.15-.22.3-.32.46-.82,1.3-1.41,3.44-.7,4.91a2.21,2.21,0,0,0,3.76.35c1-1.32.35-3.78-.34-5.12a6.59,6.59,0,0,0-.34-.57A7.4,7.4,0,0,1,34.37,6a11.23,11.23,0,0,1,6.24,4.06,11.85,11.85,0,0,0-1.2,2.11c-.93,2.1-1.36,5.54.86,7.05,1.68,1.15,3.27-.12,3.75-1.82A8.25,8.25,0,0,0,42.9,11,11.7,11.7,0,0,1,53.08,6.35a9.25,9.25,0,0,1,2.28.55C55.2,7,52,9.3,52.3,12.85c0,.37.36,3.53,2.93,4.56a4.66,4.66,0,0,0,3.88-.32,5.16,5.16,0,0,0,2.13-4.24c.19-3.43-2.72-5.69-3.05-5.95a9.14,9.14,0,0,1,2.28-.55A11.68,11.68,0,0,1,70.64,11a8.25,8.25,0,0,0-1.12,6.43c.49,1.7,2.07,3,3.76,1.82,2.21-1.51,1.79-5,.86-7a12.5,12.5,0,0,0-1.2-2.11A11.24,11.24,0,0,1,79.17,6a7.42,7.42,0,0,1,6.24,1.34c-.12.19-.24.37-.35.57-.69,1.34-1.29,3.8-.34,5.12a2.22,2.22,0,0,0,3.77-.35c.71-1.47.11-3.61-.7-4.91l-.33-.46c.19-.18.39-.36.59-.52,4.84-3.94,13.78-5.16,19.08-1.46A8.81,8.81,0,0,1,111,13.17c-.3,4-3.68,6.25-7.59,5.37-.07,0-.38-.09-.55.07a.37.37,0,0,0-.11.33c.05.44,1.13.65,1.43.71a7.18,7.18,0,0,0,3.29-.13,9.12,9.12,0,0,0,5.78-5.63C114.79,8.8,110,4.15,109.44,3.64ZM27.71,12.05a1,1,0,0,1-1.06.13c-.67-.43-.21-2.06-.12-2.37a5,5,0,0,1,.59-1.31,4.44,4.44,0,0,1,.83,2C28,11.05,28.12,11.69,27.71,12.05Zm15.28,4c-.05.19-.38,1.28-1,1.33a.88.88,0,0,1-.64-.31c-.71-.72-.35-2.15-.17-2.88a6.94,6.94,0,0,1,.8-1.9C42.37,12.84,43.48,14.48,43,16.07ZM58.93,9.53c1.33,1.85,1.37,4.94-.14,6.17a3.32,3.32,0,0,1-1.89.64,3.48,3.48,0,0,1-2.14-.64c-1.54-1.23-1.47-4.33-.14-6.17A7.24,7.24,0,0,1,56.77,7.6,7.16,7.16,0,0,1,58.93,9.53ZM72.2,17.09a.88.88,0,0,1-.65.31c-.61,0-.94-1.14-1-1.33-.48-1.59.63-3.23,1-3.76a7.19,7.19,0,0,1,.79,1.9C72.55,14.94,72.91,16.37,72.2,17.09Zm14.7-4.91a1,1,0,0,1-1.07-.13c-.4-.36-.31-1-.24-1.54a4.49,4.49,0,0,1,.84-2A5.29,5.29,0,0,1,87,9.81C87.1,10.12,87.56,11.75,86.9,12.18Z"/></g></g></svg>