<svg xmlns="http://www.w3.org/2000/svg" viewBox="0 0 80.65 55.42"><g id="Layer_2" data-name="Layer 2"><g id="Layer_2-2" data-name="Layer 2"><path d="M25.72,5.1a7.09,7.09,0,0,0,1-.25h0a1.9,1.9,0,0,1-.29,1.71A1.66,1.66,0,0,1,24.78,7a2.52,2.52,0,0,1-1.47-1,2.94,2.94,0,0,1-.39-.82,2.14,2.14,0,0,1-.2-.88,3.45,3.45,0,0,1,1.61-3.08A6.44,6.44,0,0,1,27.71,0a5,5,0,0,1,3.37,1.23A14.66,14.66,0,0,1,33.46,4c.69,1,1.34,2,2.06,2.91l2.41,2.65a45.14,45.14,0,0,0,11.92,7.73c2.15,1,4.34,2,6.56,2.87a64.92,64.92,0,0,0,6.67,2.51,26,26,0,0,0,7,.85,14.69,14.69,0,0,0,6.78-1.57A6.21,6.21,0,0,0,80,16.22a8.17,8.17,0,0,0,0-.86l-.16-.86a8.15,8.15,0,0,0-.4-1.69A7.28,7.28,0,0,0,77.52,10a11.93,11.93,0,0,0-6.25-2.84,11.09,11.09,0,0,0-3.45,0l-1.76.36-1.64.56A37.74,37.74,0,0,0,52.72,16c-7,6.49-14.67,12.46-23.29,16.75-4.28,2.12-9,3.77-13.86,3.76a10.69,10.69,0,0,1-3.61-.6,4,4,0,0,1-2.61-2.61A4.35,4.35,0,0,1,10,29.61a4.49,4.49,0,0,1,1.4-1.26,8.79,8.79,0,0,1,1.69-.75,20.51,20.51,0,0,1,3.56-.76l3.57-.3c1.21.07,2.43.09,3.63.19s2.38.36,3.56.62A42.73,42.73,0,0,1,40.6,33.08a34.83,34.83,0,0,1,3,2.06,17.56,17.56,0,0,1,2.51,2.59c1.45,1.88,2.78,4.08,2.78,6.55,0,5.63-8,5.72-8,11.14a4.3,4.3,0,0,1,1.25-3.27,14.07,14.07,0,0,1,2.75-2.29,11.3,11.3,0,0,0,2.69-2.31A5.11,5.11,0,0,0,48.33,46a13,13,0,0,0,.33-1.74c0-2.37-1.36-4.53-2.81-6.36a18.53,18.53,0,0,0-2.5-2.51c-.92-.77-2-1.32-3-2a42.7,42.7,0,0,0-13.06-5.6c-1.15-.25-2.34-.4-3.5-.6s-2.36-.1-3.54-.16l-3.57.31a21.32,21.32,0,0,0-3.44.75,5.38,5.38,0,0,0-2.82,1.84,3.82,3.82,0,0,0-.58,3.16,3.44,3.44,0,0,0,2.27,2.23,10.09,10.09,0,0,0,3.42.55c4.74,0,9.32-1.64,13.56-3.76a82.16,82.16,0,0,0,12.1-7.55,124.53,124.53,0,0,0,10.95-9.2,38.56,38.56,0,0,1,12-8l1.75-.58,1.76-.35a12,12,0,0,1,3.69,0,12.61,12.61,0,0,1,6.6,3,7.94,7.94,0,0,1,2.08,3.07,9.91,9.91,0,0,1,.42,1.79l.16.9c0,.31,0,.62,0,.93v.93a5.66,5.66,0,0,1-.19.91c-.07.3-.13.61-.22.91l-.44.84a6,6,0,0,1-1.13,1.49,11.83,11.83,0,0,1-1.49,1.12A15.1,15.1,0,0,1,70.11,24a26.31,26.31,0,0,1-7.17-.9,64.61,64.61,0,0,1-6.72-2.56c-2.22-.92-4.41-1.88-6.57-2.91a45.29,45.29,0,0,1-12-7.88L35.26,7.09c-.76-1-1.37-2-2-3a13.81,13.81,0,0,0-2.3-2.69A4.73,4.73,0,0,0,27.72.21a6.26,6.26,0,0,0-3.3,1.13,3.31,3.31,0,0,0-1.59,2.94,2.37,2.37,0,0,0,.18.86,3.08,3.08,0,0,0,.37.8,2.49,2.49,0,0,0,1.41,1,1.59,1.59,0,0,0,1.63-.38,1.91,1.91,0,0,0,.31-1.69h0A7.53,7.53,0,0,1,25.72,5.1Z"/><path d="M56,5.1a7.46,7.46,0,0,1-1-.24h0a1.87,1.87,0,0,0,.32,1.7A1.68,1.68,0,0,0,57,6.93a2.54,2.54,0,0,0,1.44-1,3,3,0,0,0,.38-.81A2.42,2.42,0,0,0,59,4.25a3,3,0,0,0-.42-1.69A4.87,4.87,0,0,0,57.3,1.3,6.41,6.41,0,0,0,54,.21,4.9,4.9,0,0,0,50.7,1.45a14.92,14.92,0,0,0-2.34,2.72c-.7,1-1.32,2-2.11,3S44.64,9,43.81,9.84A46.36,46.36,0,0,1,31.55,17.7c-2.19,1-4.43,2-6.67,2.89L21.51,22A24.09,24.09,0,0,1,18,23.15a27.3,27.3,0,0,1-7.26.89,15.52,15.52,0,0,1-7.16-1.6A7,7,0,0,1,.9,19.86,6.93,6.93,0,0,1,0,16.22a11.12,11.12,0,0,1,.66-3.66A8,8,0,0,1,2.81,9.48a13,13,0,0,1,6.72-3,12,12,0,0,1,3.74,0l1.78.34,1.78.58a39.18,39.18,0,0,1,12.21,8,125.94,125.94,0,0,0,11.18,9.21,84,84,0,0,0,12.33,7.54,32,32,0,0,0,13.76,3.76,9.53,9.53,0,0,0,1.77-.13,7,7,0,0,0,1.7-.4,3.45,3.45,0,0,0,2.37-2.2A3.67,3.67,0,0,0,71.59,30a5.5,5.5,0,0,0-2.86-1.85,21.71,21.71,0,0,0-3.51-.76L61.62,27,58,27.19c-1.18.19-2.38.35-3.55.58a43.7,43.7,0,0,0-13.29,5.55c-1,.67-2.08,1.24-3,2a18,18,0,0,0-2.59,2.49c-1.5,1.83-2.88,4-2.94,6.4-.3,5.58,8,5.69,8,11.22,0-5.52-8.34-5.44-8.19-11.21,0-2.51,1.42-4.71,2.92-6.59A18.65,18.65,0,0,1,38,35c1-.78,2-1.36,3-2a43.66,43.66,0,0,1,13.39-5.67c1.19-.24,2.4-.4,3.61-.61l3.67-.17,3.64.31a21.45,21.45,0,0,1,3.59.76,8.38,8.38,0,0,1,1.71.75A4.7,4.7,0,0,1,72,29.62a4.23,4.23,0,0,1,.67,3.7A4.07,4.07,0,0,1,70,35.89a7.67,7.67,0,0,1-1.82.44,9.51,9.51,0,0,1-1.84.14c-4.95,0-9.7-1.64-14.06-3.76C43.5,28.44,35.68,22.47,28.51,16A38.68,38.68,0,0,0,16.58,8.07l-1.67-.56-1.78-.35a11.41,11.41,0,0,0-3.5,0A12.24,12.24,0,0,0,3.26,10a7.24,7.24,0,0,0-2,2.8,10.49,10.49,0,0,0-.64,3.46,6.3,6.3,0,0,0,.8,3.33,6.4,6.4,0,0,0,2.48,2.36,15,15,0,0,0,6.88,1.56,27.15,27.15,0,0,0,7.12-.84,23.51,23.51,0,0,0,3.4-1.16l3.38-1.35c2.25-.9,4.47-1.84,6.67-2.85A45.81,45.81,0,0,0,43.51,9.57c.85-.86,1.65-1.77,2.48-2.66S47.4,5,48.12,4a14.27,14.27,0,0,1,2.42-2.73A5.1,5.1,0,0,1,54,0a6.51,6.51,0,0,1,3.44,1.17,5,5,0,0,1,1.28,1.3,3.11,3.11,0,0,1,.42,1.78,2.41,2.41,0,0,1-.2.89,2.89,2.89,0,0,1-.4.83A2.62,2.62,0,0,1,57,7a1.73,1.73,0,0,1-1.71-.4A1.91,1.91,0,0,1,55,4.86h0A7.49,7.49,0,0,0,56,5.1Z"/></g></g></svg>