<svg xmlns="http://www.w3.org/2000/svg" viewBox="0 0 223.28 22.29"><g id="Layer_2" data-name="Layer 2"><g id="_ëîé_1" data-name="—ëîé_1"><path d="M114.84,4.39a9.93,9.93,0,0,0-10.71-4,7.46,7.46,0,0,0-4.79,4.13,3.78,3.78,0,0,0,0,2.5.32.32,0,0,0,.22.13A.29.29,0,0,0,99.69,7c.11-.15.07-.32,0-.66,0-.16,0-.32,0-.48a3.72,3.72,0,0,1,.39-1.55,5.68,5.68,0,0,1,2.23-2.08,8.74,8.74,0,0,1,6-.71,7.64,7.64,0,0,1,3.55,1.91c2.91,2.95,2.75,8.43,1.12,11.31-4,7-15.54,8-21.44,3.06.19-.25.37-.51.55-.78,1.19-1.89,2-6.47-1.54-6.6-2.86-.1-3.3,4-2.25,5.88a10.36,10.36,0,0,0,.88,1.28A9.18,9.18,0,0,1,82.85,20a8.79,8.79,0,0,1-7.33-3.75c3.3-5.37,3.63-10.1,1.66-11.7a3.68,3.68,0,0,0-4.11-.1C70.9,6,70.61,10.65,73.46,16A8.29,8.29,0,0,1,70,18.91a6.83,6.83,0,0,1-5.59.28,6.21,6.21,0,0,1-2.73-2.47A9.26,9.26,0,0,0,63,14.65C64,12.5,64.11,7.83,61.15,7s-5,3.07-4.68,5.47a9.27,9.27,0,0,0,2.09,4.65,10.16,10.16,0,0,1-4.93,1.66c-5.41.31-9-4.13-9.35-4.63a4.38,4.38,0,0,0,1.19-3.8,2.28,2.28,0,0,0-2.83-1.64c-2.23.86-1.51,3.23-.2,5.23a6.55,6.55,0,0,1-1,.78c-2.78,2.12-5.81,2.12-9,1-3.85-1.37-7.35-4.21-11.66-3.83a7.58,7.58,0,0,0-4.67,2.16,16.75,16.75,0,0,0-1.65-.31c-1.18-.17-7.24-.89-11.65,2.68A8.19,8.19,0,0,0,.09,20.69c0,.14-.17.49,0,.64a.26.26,0,0,0,.25.07c.1,0,.12-.19.19-.44a6.16,6.16,0,0,1,.23-.6s.1-.25.27-.59a11,11,0,0,1,2.11-2.69c2.19-1.91,5.16-2.21,6.47-2.35a15.94,15.94,0,0,1,5.87.54,3.18,3.18,0,0,0-.35,3.3,2.55,2.55,0,0,0,1.43,1.22,2.29,2.29,0,0,0,1.82-.14c1.08-.65,1.22-2.33.75-3.45a3.15,3.15,0,0,0-1-1.26,4.64,4.64,0,0,1,2-1.34c2.69-.62,5.42.64,7.79,1.75,5,2.33,10.29,4.39,15,.24q.21-.18.42-.39A15.1,15.1,0,0,0,45.22,17a13.27,13.27,0,0,0,7.24,3.22,12.23,12.23,0,0,0,7.35-1.77c3.26,2.87,8.2,4,11.9,1.65a13,13,0,0,0,2.67-2.37c4,4.82,11.61,5.53,16.1,1.25a17.67,17.67,0,0,0,6.78,3c5.75,1.15,14.09-.32,17.45-6.49C115,14.86,118,9.2,114.84,4.39ZM18.14,16.54a1.79,1.79,0,0,1,.1,2.08,1.08,1.08,0,0,1-.82.39c-.66-.06-1-1-1-1.1A2.53,2.53,0,0,1,17,15.79,2.09,2.09,0,0,1,18.14,16.54ZM43.2,13.36c-1.06-1.29-1.47-2.65-1-3.43a1.3,1.3,0,0,1,1-.6,1.42,1.42,0,0,1,1.11.85C44.74,11,44.28,12.29,43.2,13.36Zm17.28,2.4A9.59,9.59,0,0,1,59.54,14a5.74,5.74,0,0,1-.61-2.47,2.72,2.72,0,0,1,.76-2.18A1.59,1.59,0,0,1,60.92,9c1,.24,1.3,2,1.33,2.21a5.08,5.08,0,0,1-.79,3.26A6.54,6.54,0,0,1,60.48,15.76Zm13.88-1.21A12.5,12.5,0,0,1,72.8,8.48c0-2,.6-2.51.89-2.71a1.74,1.74,0,0,1,1.67-.18c.73.35.91,1.28,1,1.8C76.9,10.06,75,13.46,74.36,14.55Zm15.79,1.88a4.19,4.19,0,0,1-.91-2.55,2.26,2.26,0,0,1,.52-1.65c0-.05.58-.59,1-.43s.45.83.48,1.18A5.31,5.31,0,0,1,90.15,16.43Z"/><path d="M108.57,15.44c3.35,6.17,11.7,7.64,17.45,6.49a17.61,17.61,0,0,0,6.77-3c4.49,4.28,12.13,3.57,16.11-1.25a13,13,0,0,0,2.67,2.37c3.69,2.33,8.64,1.22,11.9-1.65a12.22,12.22,0,0,0,7.34,1.77A13.27,13.27,0,0,0,178.06,17a15.1,15.1,0,0,0,1.87-1.79l.41.39c4.73,4.15,10,2.09,15-.24,2.37-1.11,5.1-2.37,7.78-1.75a4.61,4.61,0,0,1,2,1.34,3.15,3.15,0,0,0-1,1.26c-.47,1.12-.34,2.8.75,3.45a2.29,2.29,0,0,0,1.82.14,2.55,2.55,0,0,0,1.43-1.22,3.18,3.18,0,0,0-.35-3.3,15.94,15.94,0,0,1,5.87-.54,11.55,11.55,0,0,1,6.46,2.35,11.08,11.08,0,0,1,2.12,2.69c.17.34.27.59.27.59.13.33.2.5.23.6s.08.4.19.44a.26.26,0,0,0,.25-.07c.15-.15,0-.5,0-.64a8.25,8.25,0,0,0-2.79-4.25c-4.41-3.57-10.47-2.85-11.65-2.68a16.75,16.75,0,0,0-1.65.31,7.58,7.58,0,0,0-4.68-2.16c-4.3-.38-7.8,2.46-11.65,3.83-3.16,1.13-6.19,1.13-9-1a6.06,6.06,0,0,1-1-.78c1.31-2,2-4.37-.21-5.23a2.28,2.28,0,0,0-2.83,1.64,4.41,4.41,0,0,0,1.2,3.8c-.39.5-3.94,4.94-9.35,4.63a10.16,10.16,0,0,1-4.93-1.66,9.27,9.27,0,0,0,2.09-4.65c.32-2.4-1.74-6.26-4.68-5.47s-2.85,5.47-1.85,7.62a9.6,9.6,0,0,0,1.31,2.07,6.17,6.17,0,0,1-2.72,2.47,6.83,6.83,0,0,1-5.59-.28A8.29,8.29,0,0,1,149.82,16c2.84-5.32,2.55-10,.38-11.48a3.67,3.67,0,0,0-4.1.1c-2,1.6-1.65,6.33,1.65,11.7A8.77,8.77,0,0,1,140.43,20a9.18,9.18,0,0,1-6.32-2.46A10.36,10.36,0,0,0,135,16.3c1-1.88.61-6-2.25-5.88-3.52.13-2.73,4.71-1.54,6.6.17.27.36.53.55.78-5.9,4.95-17.49,3.9-21.44-3.06-1.64-2.88-1.79-8.36,1.11-11.31A7.66,7.66,0,0,1,115,1.52a8.74,8.74,0,0,1,6,.71,5.68,5.68,0,0,1,2.23,2.08,3.72,3.72,0,0,1,.39,1.55c0,.16,0,.32,0,.48,0,.34-.06.51,0,.66a.26.26,0,0,0,.17.11A.32.32,0,0,0,124,7a3.92,3.92,0,0,0,0-2.5A7.48,7.48,0,0,0,119.15.35a9.93,9.93,0,0,0-10.71,4C105.29,9.2,108.25,14.86,108.57,15.44Zm97.7.35a2.5,2.5,0,0,1,.56,2.12c0,.09-.32,1-1,1.1a1.08,1.08,0,0,1-.81-.39,1.78,1.78,0,0,1,.1-2.08A2.06,2.06,0,0,1,206.27,15.79ZM179,10.18a1.42,1.42,0,0,1,1.11-.85,1.3,1.3,0,0,1,1,.6c.5.78.1,2.14-1,3.43C179,12.29,178.54,11,179,10.18Zm-17.13,4.29a5.08,5.08,0,0,1-.79-3.26c0-.21.29-2,1.33-2.21a1.61,1.61,0,0,1,1.23.38,2.76,2.76,0,0,1,.76,2.18,5.74,5.74,0,0,1-.61,2.47,9.59,9.59,0,0,1-.94,1.73A6.54,6.54,0,0,1,161.82,14.47ZM146.9,7.39c.11-.52.29-1.45,1-1.8a1.74,1.74,0,0,1,1.67.18c.29.2.86.73.89,2.71a12.5,12.5,0,0,1-1.56,6.07C148.27,13.46,146.38,10.06,146.9,7.39ZM132.05,13c0-.35.08-1,.47-1.18s.95.38,1,.43a2.31,2.31,0,0,1,.52,1.65,4.25,4.25,0,0,1-.91,2.55A5.31,5.31,0,0,1,132.05,13Z"/></g></g></svg>