<svg xmlns="http://www.w3.org/2000/svg" viewBox="0 0 110.88 18.69"><g id="Layer_2" data-name="Layer 2"><g id="_ëîé_1" data-name="—ëîé_1"><path d="M110.85,10.87c-.46-5.75-7.12-7-11.68-6.16C91.64,6.16,84.76,10,77.38,12,73.5,13.08,64.76,15,62.93,10.2A5.34,5.34,0,0,1,62.61,9,22.6,22.6,0,0,0,65,8.1c2.36-1,7-3.68,4.72-6.86A2.91,2.91,0,0,0,68.3.14C66.54-.51,64.16,1.3,63,2.68a8.61,8.61,0,0,0-1.88,4.67,15.77,15.77,0,0,1-5.65,1.08,15.68,15.68,0,0,1-5.81-1.08,8.22,8.22,0,0,0-1.79-4.67C46.7,1.26,44.33-.5,42.58.14a2.91,2.91,0,0,0-1.37,1.1C39,4.42,43.56,7.1,45.93,8.1A23.27,23.27,0,0,0,48.26,9,4.87,4.87,0,0,1,48,10.2C46.12,15,37.38,13.08,33.5,12c-7.38-2-14.26-5.86-21.8-7.31C7.15,3.83.49,5.12,0,10.87c-.58,7.07,8.59,10.19,13.31,5.79.72-.67-.2-1.7-1-1.3C9,17.06,4.84,17.15,3,13.29c-1.3-2.66.23-5,2.6-6.24,2-1.09,4.21-.81,6.4-.37A49.22,49.22,0,0,1,20,9c6.15,2.34,12.7,5.48,19.41,5.69,3.08.1,7.19.12,9.18-2.69a6.24,6.24,0,0,0,1-2.69,23,23,0,0,0,5.85.73,23.55,23.55,0,0,0,5.79-.73,5.93,5.93,0,0,0,1,2.69c2,2.81,6.1,2.79,9.18,2.69,6.71-.21,13.26-3.35,19.41-5.69a49.22,49.22,0,0,1,8.07-2.31c2.19-.44,4.36-.72,6.4.37,2.37,1.27,3.9,3.58,2.6,6.24-1.89,3.86-6,3.77-9.39,2.07-.8-.4-1.72.63-1,1.3C102.26,21.06,111.43,17.94,110.85,10.87ZM64.29,3.12c.26-.29,1.49-1.65,2.89-1.57a1.35,1.35,0,0,1,.91.34,1.46,1.46,0,0,1,.29,1.18c-.06.36-.31,1-3,2.37A28,28,0,0,1,62.77,6.6,6.39,6.39,0,0,1,64.29,3.12ZM45.47,5.44c-2.66-1.35-2.91-2-3-2.37a1.43,1.43,0,0,1,.29-1.18,1.35,1.35,0,0,1,.91-.34c1.4-.08,2.63,1.28,2.89,1.57A6.39,6.39,0,0,1,48.11,6.6,28,28,0,0,1,45.47,5.44Z"/></g></g></svg>