<svg xmlns="http://www.w3.org/2000/svg" viewBox="0 0 215.66 30.87"><g id="Layer_2" data-name="Layer 2"><g id="_ëîé_1" data-name="—ëîé_1"><path d="M135.83,16.85a11.1,11.1,0,0,0,3,7.1,13.14,13.14,0,0,0,12.76,4.27A9.31,9.31,0,0,0,158,23.68a8.63,8.63,0,0,0,.48-1.11c3.65,1.05,7.95.83,11.46.57.54,0,.55-.9,0-.86a49.44,49.44,0,0,1-8.43-.11,24,24,0,0,1-2.75-.47,5.22,5.22,0,0,0-.79-5.65c-1-1-2.88-1.82-4.21-1.08a2.91,2.91,0,0,0-1.27,1.53,2.83,2.83,0,0,0-.15,1.34c.19,1.58,1.71,2.59,2.72,3.25a9.89,9.89,0,0,0,2.57,1.2,7.39,7.39,0,0,1-3.68,4,12,12,0,0,1-10,.11c-5.82-2.71-10-10.67-3.71-15.38,4-3,8.53-2.7,13.19-1.52,8.78,2.21,17.07,6.15,25.51,9.36a68.13,68.13,0,0,0,11.81,3.67c2.48.46,5.23.77,7.63-.2a5.62,5.62,0,0,0,2.2-1.5,26.79,26.79,0,0,0,7.45,1c2.65,0,5.25-.73,6.83-3s.58-5.29-1.77-6.78c-2.62-1.65-5.68-.8-7.92,1.07-.28.24.08.67.39.5,2.07-1.18,4.68-1.75,6.79-.3A3.5,3.5,0,0,1,213,18.9c-2.78,2.87-8,2.14-11.83,1.1,1.62-3.33-1.8-8.19-5.9-8.77-2.19-.31-4.79.69-4.13,3.34.61,2.49,3.7,4.08,5.81,5,.71.31,1.43.58,2.17.83a5.29,5.29,0,0,1-1.56.79c-3,1-6.54,0-9.47-.8a116,116,0,0,1-11.86-4.2c-8-3.17-16.11-7-24.63-8.63-4-.77-8.12-.67-11.54,1.87A9.63,9.63,0,0,0,135.83,16.85Zm64,2.77-.13,0a17.93,17.93,0,0,1-5.84-2.93c-1.58-1.29-3.21-4.45.37-4.48C198.08,12.13,201.74,16.82,199.85,19.62Zm-42,1.84c-2.71-1-4.45-2.56-4.34-4a1.75,1.75,0,0,1,.78-1.36c.95-.56,2.55.19,3.28,1.24a4.66,4.66,0,0,1,.43,3.52C158,21.11,157.93,21.32,157.89,21.46Z"/><path d="M75.63,9.44C72.21,6.9,68.14,6.8,64.09,7.57,55.58,9.19,47.48,13,39.46,16.2A116,116,0,0,1,27.6,20.4c-2.93.81-6.46,1.77-9.47.8a5.1,5.1,0,0,1-1.55-.79c.73-.25,1.45-.52,2.16-.83,2.11-.93,5.2-2.52,5.81-5,.66-2.65-1.94-3.65-4.13-3.34-4.1.58-7.52,5.44-5.9,8.77-3.78,1-9,1.77-11.82-1.1a3.49,3.49,0,0,1,.63-5.58c2.1-1.45,4.71-.88,6.78.3.31.17.68-.26.39-.5-2.23-1.87-5.3-2.72-7.92-1.07C.23,13.54-.87,16.4.81,18.83s4.18,3,6.83,3a26.79,26.79,0,0,0,7.45-1,5.62,5.62,0,0,0,2.2,1.5c2.4,1,5.15.66,7.63.2A68.13,68.13,0,0,0,36.73,18.9c8.44-3.21,16.73-7.15,25.51-9.36,4.67-1.18,9.18-1.49,13.2,1.52,6.26,4.71,2.11,12.67-3.72,15.38a12,12,0,0,1-10-.11,7.33,7.33,0,0,1-3.67-4,10,10,0,0,0,2.56-1.2c1-.66,2.53-1.67,2.73-3.25A3,3,0,0,0,61.91,15c-1.33-.74-3.22.09-4.21,1.08a5.2,5.2,0,0,0-.78,5.65,24.56,24.56,0,0,1-2.76.47,49.32,49.32,0,0,1-8.42.11c-.56,0-.55.82,0,.86,3.5.26,7.8.48,11.45-.57.15.39.31.77.48,1.11A9.31,9.31,0,0,0,64,28.22,13.14,13.14,0,0,0,76.8,24a11,11,0,0,0,3-7.1A9.63,9.63,0,0,0,75.63,9.44ZM21.41,12.17c3.58,0,1.95,3.19.37,4.48a17.93,17.93,0,0,1-5.84,2.93l-.13,0C13.92,16.82,17.58,12.13,21.41,12.17Zm36.22,8.69a4.65,4.65,0,0,1,.42-3.52c.73-1.05,2.33-1.8,3.28-1.24a1.79,1.79,0,0,1,.79,1.36c.11,1.44-1.64,3-4.35,4A5,5,0,0,1,57.63,20.86Z"/><path d="M121.51,1.83C115-3.65,104.25,4.19,108,12a5.83,5.83,0,0,0,8.87,2.1c2.17-1.78,2.61-5.16.59-7a10.06,10.06,0,0,0,1-1.57.52.52,0,0,0-.89-.52,9.93,9.93,0,0,1-1.08,1.43c-.28-.13-2.29-1-3.83-.06a2.17,2.17,0,0,0-1.08,1.28,2.06,2.06,0,0,0,.23,1.42,2.24,2.24,0,0,0,1,1c1,.44,2.69-.39,3.92-2.21a3.74,3.74,0,0,1,.81,2.47,4.17,4.17,0,0,1-3,3.4,4.5,4.5,0,0,1-2.35.11,4.78,4.78,0,0,1-2.2-1.36c-1.67-1.87-1.6-6.48,1.26-9a7.31,7.31,0,0,1,9.44-.09c3.07,3,2.14,7.52-.38,10.58-4,4.84-12.55,8.48-10.45,16.15a.71.71,0,0,0,1.36-.38c-1.38-7.64,7.33-10.5,11-15.68C124.8,10.35,125.2,4.93,121.51,1.83Zm-8.37,7.28a1.32,1.32,0,0,1-.56-1.44c.27-.82,1.51-.9,1.72-.9a2.61,2.61,0,0,1,1.75.62C115,8.84,113.81,9.46,113.14,9.11Z"/><path d="M76.86,24.41a16.82,16.82,0,0,0,5.87,3,10,10,0,0,0,4.39,3.44.52.52,0,0,0,.36,0,.56.56,0,0,0,.34-.45c0-.52-1.2-.77-2.42-1.73a6.85,6.85,0,0,1-1.22-1.25,3.9,3.9,0,0,0,3.27-.68,3.38,3.38,0,0,0,.89-1.28,3.89,3.89,0,0,0-.86-4.27,3.77,3.77,0,0,0-4.87-.06,3.73,3.73,0,0,0-1.1,2.31,5.7,5.7,0,0,0,.21,1.89l-.12,0a13.8,13.8,0,0,1-3-1.52c-3.17-2.11-5.64-6.79-1-8.89,1.91-.87,4.49-.45,6.45,0a21.07,21.07,0,0,1,15,14.54.52.52,0,0,0,1-.28A21.7,21.7,0,0,0,81.83,13.07c-2.94-.32-6.59.1-8.1,3.06C72.12,19.29,74.44,22.49,76.86,24.41Zm6.62-2.21a2.25,2.25,0,0,1,2.66-.29,2.28,2.28,0,0,1,1,1.77A2.51,2.51,0,0,1,86,25.77a2.92,2.92,0,0,1-2.57.17,3.39,3.39,0,0,1-.59-1.74A2.49,2.49,0,0,1,83.48,22.2Z"/><path d="M93.09,14c3.64,5.18,12.35,8,11,15.68-.16.89,1.12,1.27,1.36.38C107.52,22.4,99,18.76,95,13.92c-2.52-3.06-3.45-7.6-.38-10.58a7.31,7.31,0,0,1,9.44.09c2.86,2.57,2.93,7.18,1.26,9.05a4.78,4.78,0,0,1-2.2,1.36,4.5,4.5,0,0,1-2.35-.11,4.17,4.17,0,0,1-3-3.4,3.74,3.74,0,0,1,.81-2.47c1.23,1.82,2.92,2.65,3.93,2.21a2.27,2.27,0,0,0,1-1,2.06,2.06,0,0,0,.23-1.42,2.17,2.17,0,0,0-1.08-1.28c-1.54-1-3.55-.07-3.83.06A10.72,10.72,0,0,1,97.75,5a.52.52,0,0,0-.89.52,10.06,10.06,0,0,0,1,1.57c-2,1.89-1.58,5.27.59,7.05a5.83,5.83,0,0,0,8.87-2.1c3.71-7.84-7-15.68-13.55-10.2C90.11,4.93,90.51,10.35,93.09,14Zm6.17-6.62A2.61,2.61,0,0,1,101,6.77c.21,0,1.45.08,1.72.9a1.3,1.3,0,0,1-.56,1.44C101.5,9.46,100.27,8.84,99.26,7.39Z"/><path d="M141.58,16.13c-1.51-3-5.16-3.38-8.1-3.06a21.7,21.7,0,0,0-18.24,16.07.52.52,0,0,0,1,.28,21.07,21.07,0,0,1,15-14.54c2-.46,4.54-.88,6.45,0,4.61,2.1,2.14,6.78-1,8.89a13.8,13.8,0,0,1-3,1.52l-.12,0a5.7,5.7,0,0,0,.21-1.89,3.73,3.73,0,0,0-1.1-2.31,3.77,3.77,0,0,0-4.87.06,3.91,3.91,0,0,0-.86,4.27,3.38,3.38,0,0,0,.89,1.28,3.9,3.9,0,0,0,3.27.68,6.53,6.53,0,0,1-1.22,1.25c-1.22,1-2.45,1.21-2.42,1.73a.58.58,0,0,0,.34.45.51.51,0,0,0,.36,0,10,10,0,0,0,4.39-3.44,16.82,16.82,0,0,0,5.87-3C140.87,22.49,143.19,19.29,141.58,16.13Zm-9.12,8.07a3.39,3.39,0,0,1-.59,1.74,2.92,2.92,0,0,1-2.57-.17,2.51,2.51,0,0,1-1.17-2.09,2.28,2.28,0,0,1,1-1.77,2.25,2.25,0,0,1,2.66.29A2.49,2.49,0,0,1,132.46,24.2Z"/></g></g></svg>