<svg xmlns="http://www.w3.org/2000/svg" viewBox="0 0 157.6 22.44"><g id="Layer_2" data-name="Layer 2"><g id="_ëîé_1" data-name="—ëîé_1"><path d="M2.44,14.23A5.66,5.66,0,0,0,7,15.66a6.8,6.8,0,0,0,4.61-2.93A3,3,0,0,0,11.78,10a.52.52,0,0,0-.69-.25.56.56,0,0,0-.37.7,2.16,2.16,0,0,1-.6,2.36,6,6,0,0,1-5.18,1.32A5.06,5.06,0,0,1,1.89,11a5.24,5.24,0,0,1,.36-4.46c2.49-4.29,8.64-5.1,13.36-5C22.38,1.68,28.71,4,34.84,6.3c1.24.46,2.51.93,3.77,1.38a71.42,71.42,0,0,0,12.51,3.5,16.37,16.37,0,0,0,6.12.13,12.59,12.59,0,0,0,1.88,1.52c4.14,2.74,10.66,3.42,14,.31.23-.21,2.16-2.12,1.94-4.44a3.25,3.25,0,0,0-.9-2c-.6-.59-1.67-1.08-2-.76a.27.27,0,0,0-.11.2c0,.38,1.06.47,1.69,1.27A3.22,3.22,0,0,1,74,9.8a4.94,4.94,0,0,1-1.84,2.64c-3.16,2.44-9,1.71-12.5-1.14-.32-.26-.57-.49-.73-.64A4.34,4.34,0,0,0,59.8,10a3.62,3.62,0,0,0,.77-4.08c-.48-.77-1.39-1-2.56-.57a3.13,3.13,0,0,0-2.08,3.29,4.28,4.28,0,0,0,.47,1.54c-3.17.56-6.89-.52-9.89-1.39l-.59-.17c-3.55-1-7-2.28-9.8-3.37l-.38-.14C29.76,2.78,23.58.42,17,.05c-.52,0-1.07,0-1.63,0-4.45,0-10,1-13,3.83a6.9,6.9,0,0,0,.15,10.4ZM57.25,8A1.88,1.88,0,0,1,58,6.5a1.13,1.13,0,0,1,1.05-.12,1.12,1.12,0,0,1,.54.93,2.11,2.11,0,0,1-.72,1.75,2.56,2.56,0,0,1-.91.61A2.23,2.23,0,0,1,57.25,8Z"/><path d="M5.72,17.67a8.93,8.93,0,0,0,10.07,4.51,8,8,0,0,0,3.54-2,5.52,5.52,0,0,0,3.8.54c2.85-.69,4.5-4.07,4.2-6.66-.14-1.16-.81-2.93-1.51-2.93a.62.62,0,0,0-.55.38c-.11.32.22.68.37.83.82.9.84,3.24.06,4.85a4.1,4.1,0,0,1-2.95,2.53,3.8,3.8,0,0,1-2.34-.39,3.88,3.88,0,0,0,1.05-1.92,3.64,3.64,0,0,0-1.37-3.74,2.12,2.12,0,0,0-1.37-.36,2.23,2.23,0,0,0-1.54,1.08c-1.06,1.57,0,3.68,0,3.77a4.31,4.31,0,0,0,.92,1.21,6.26,6.26,0,0,1-1.37.83,7.37,7.37,0,0,1-7-.65,7,7,0,0,1-3.13-6.11,7.57,7.57,0,0,1,3.17-5.2C13.67,5.22,19,6,21.33,6.33c18.37,3,39.86,15.86,50.46,11.8a10.89,10.89,0,0,0,5.79-4.61c.34-.6,2.08-3.7.7-6.88A7.39,7.39,0,0,0,74.65,3a7,7,0,0,0-2.81-.62,5.91,5.91,0,0,0-2.28.45,4.41,4.41,0,0,0-2.78,4.18,3.17,3.17,0,0,0,2.66,2.83.4.4,0,0,0,.21-.77,2.71,2.71,0,0,1-1.86-1.59A2.78,2.78,0,0,1,68,5.45c.95-1.7,3.36-1.82,3.8-1.83a5.91,5.91,0,0,1,5,2.67c1.8,2.82.19,6-.07,6.53A9.38,9.38,0,0,1,71.46,17C60,21.17,29.2,2.12,13.85,4.85c-1.38.24-4.78.89-6.95,3.69A8.92,8.92,0,0,0,5.72,17.67Zm13.46,1a3,3,0,0,1-.83-1c-.54-1-.61-2.54.08-2.94a1.08,1.08,0,0,1,.88,0,2.25,2.25,0,0,1,.82,2.63A2.58,2.58,0,0,1,19.18,18.69Z"/><path d="M157.6,9.07a7,7,0,0,0-2.28-5.24c-3-2.85-8.6-3.83-13-3.83-.57,0-1.11,0-1.63.05-6.62.37-12.8,2.73-18.78,5l-.38.14c-2.86,1.09-6.26,2.35-9.8,3.37l-.6.17c-3,.87-6.72,1.95-9.89,1.39a4.09,4.09,0,0,0,.47-1.54A3.11,3.11,0,0,0,99.59,5.3c-1.17-.4-2.08-.2-2.56.57A3.66,3.66,0,0,0,97.8,10a4.93,4.93,0,0,0,.91.71c-.16.15-.4.38-.72.64-3.54,2.85-9.35,3.58-12.51,1.14A5,5,0,0,1,83.64,9.8a3.19,3.19,0,0,1,.28-2.42c.62-.8,1.71-.89,1.69-1.27a.31.31,0,0,0-.12-.2c-.37-.32-1.44.17-2,.76a3.28,3.28,0,0,0-.89,2c-.23,2.32,1.7,4.23,1.93,4.44,3.33,3.11,9.85,2.43,14-.31a12.41,12.41,0,0,0,1.87-1.52,16.43,16.43,0,0,0,6.13-.13A71.3,71.3,0,0,0,119,7.68c1.26-.45,2.54-.92,3.77-1.38C128.89,4,135.23,1.68,142,1.56c4.72-.08,10.87.73,13.37,5a5.24,5.24,0,0,1,.36,4.46,5.11,5.11,0,0,1-3.05,3.05,6,6,0,0,1-5.18-1.32,2.16,2.16,0,0,1-.6-2.36.56.56,0,0,0-.38-.7.52.52,0,0,0-.69.25,3,3,0,0,0,.15,2.77,6.81,6.81,0,0,0,4.62,2.93,5.66,5.66,0,0,0,4.58-1.43A7,7,0,0,0,157.6,9.07Zm-58,.6a2.6,2.6,0,0,1-.92-.61A2.1,2.1,0,0,1,98,7.31a1.11,1.11,0,0,1,.53-.93,1.13,1.13,0,0,1,1,.12,1.93,1.93,0,0,1,.8,1.53A2.23,2.23,0,0,1,99.61,9.67Z"/><path d="M150.71,8.54c-2.17-2.8-5.58-3.45-7-3.69C128.41,2.12,97.64,21.17,86.14,17a9.38,9.38,0,0,1-5.33-4.19c-.26-.49-1.86-3.71-.06-6.53a5.88,5.88,0,0,1,5-2.67c.45,0,2.86.13,3.8,1.83a2.76,2.76,0,0,1,.26,2.07A2.73,2.73,0,0,1,88,9.11a.38.38,0,0,0-.27.48.39.39,0,0,0,.48.29,3.16,3.16,0,0,0,2.65-2.83,4.4,4.4,0,0,0-2.77-4.18,6,6,0,0,0-2.29-.45A6.88,6.88,0,0,0,83,3a7.35,7.35,0,0,0-3.63,3.6c-1.38,3.18.35,6.28.69,6.88a10.89,10.89,0,0,0,5.79,4.61c10.6,4.06,32.09-8.78,50.47-11.8,2.32-.38,7.66-1.11,11.54,1.9a7.57,7.57,0,0,1,3.18,5.2,7,7,0,0,1-3.14,6.11,7.36,7.36,0,0,1-7,.65,5.83,5.83,0,0,1-1.37-.83,4.28,4.28,0,0,0,.91-1.21c.05-.09,1.1-2.2,0-3.77a2.22,2.22,0,0,0-1.53-1.08,2.16,2.16,0,0,0-1.38.36,3.67,3.67,0,0,0-1.37,3.74,3.81,3.81,0,0,0,1.06,1.92,3.8,3.8,0,0,1-2.34.39,4.09,4.09,0,0,1-3-2.53c-.77-1.61-.76-3.95,0-4.82.17-.18.5-.54.4-.86a.65.65,0,0,0-.56-.38c-.69,0-1.36,1.77-1.5,2.93-.3,2.59,1.35,6,4.2,6.66a5.5,5.5,0,0,0,3.79-.54,8,8,0,0,0,3.54,2,8.93,8.93,0,0,0,10.07-4.51A8.94,8.94,0,0,0,150.71,8.54Zm-13.23,8.89a2.22,2.22,0,0,1,.82-2.63,1.05,1.05,0,0,1,.87,0c.69.4.62,1.95.09,2.94a3.17,3.17,0,0,1-.83,1A2.47,2.47,0,0,1,137.48,17.43Z"/></g></g></svg>