<svg xmlns="http://www.w3.org/2000/svg" viewBox="0 0 204.15 25.46"><g id="Layer_2" data-name="Layer 2"><g id="_ëîé_1" data-name="—ëîé_1"><path d="M91.68,21c-.16,0-.31,0-.7.25-.59.36-.89.59-1.28.81a8,8,0,0,1-.75.39,19.73,19.73,0,0,1-13.48,1.13c-2.08-.67-4.75-1.55-6-4.12a7,7,0,0,1-.55-3.94c3.34,1,6,.78,8-.73A4.49,4.49,0,0,0,78.22,9.2a4,4,0,0,0-1.07-1.32,4.85,4.85,0,0,0-4-.82,5.61,5.61,0,0,0-2.44,1.26,9.69,9.69,0,0,0-3.15,4.95,67.5,67.5,0,0,1-7.31-3.55c-1.53-.82-3.12-1.67-4.7-2.41-6.32-3-13.68-6.06-20.9-4.92A16.26,16.26,0,0,0,27.42,5c-.54.06-1,.12-1.42.19a21.29,21.29,0,0,0-8.44,3.14A10.18,10.18,0,0,0,16.14,9.5a12.83,12.83,0,0,0-4.72-2.25C7.88,6.39,3.13,7,.92,9.7a4,4,0,0,0-.84,1.68,4.23,4.23,0,0,0,.78,3.25,5.37,5.37,0,0,0,2.23,2,.62.62,0,0,0,.53-.1.41.41,0,0,0,.15-.42c0-.12-.12-.17-.26-.25l-.18-.1-.15-.1-.12-.08S.88,14.08,1,12.13a3.26,3.26,0,0,1,.69-1.78c1.21-1.64,3.68-2.46,7-2.29a12.14,12.14,0,0,1,6.62,2.45c-1,1.25-2.33,3.48-.49,5a2.58,2.58,0,0,0,1.92.53,2.45,2.45,0,0,0,1.73-.9c1-1.31,0-3.15-.47-3.87a6.07,6.07,0,0,0-.73-.91,12.48,12.48,0,0,1,1.64-1.21,20.37,20.37,0,0,1,7-2.65,7.31,7.31,0,0,0,.39,9.07c2.58,2.86,6.93,2.53,8.67,2.26l.12,0a7.48,7.48,0,0,0,2.8,2.79c2.93,1.54,7.19.55,8.93-2.09s.54-6.24-1.32-8.46c-3.67-4.37-9.91-5.23-13.76-5.31.49-.15,1-.29,1.56-.41,9.22-2.05,18.43,2.71,26.55,6.91,1.44.74,2.79,1.44,4.15,2.11,1.11.55,2.32,1.12,3.58,1.61a8.16,8.16,0,0,0,.5,4.5c2.39,5.51,11.44,6.88,17.5,5.42,3.22-.78,6.79-2.65,6.62-3.44A.77.77,0,0,0,91.68,21ZM69.74,14l-.53-.17a7.36,7.36,0,0,1,2.67-4.4c.67-.49,1.78-1.34,3-1a3.48,3.48,0,0,1,1.88,1.77A3,3,0,0,1,77,12.5a3,3,0,0,1-1.91,1.61A8.63,8.63,0,0,1,69.74,14Zm-33.11-.95a1.75,1.75,0,0,1,.78-.18,2.48,2.48,0,0,1,1.13.29,1.24,1.24,0,0,1,.73.79c.06.5-.67,1-1.15,1.34a5.31,5.31,0,0,1-2.38.87A2.37,2.37,0,0,1,36.63,13.06Zm3.88,1.56A2.12,2.12,0,0,0,39.29,12a4,4,0,0,0-4.48,1,3.76,3.76,0,0,0-.42,3.35,11.24,11.24,0,0,1-3.58-.1,5.89,5.89,0,0,1-4-2.87,5.42,5.42,0,0,1-.24-4.63,5.82,5.82,0,0,1,2.2-2.66,19.19,19.19,0,0,1,2.84-.21h.06c4.14,0,11.73,1.43,13.89,6.64a5,5,0,0,1,.17,4.31,5.37,5.37,0,0,1-3.91,2.48,5.69,5.69,0,0,1-4.7-1,3.51,3.51,0,0,1-.65-.82C38.11,17.14,40.13,16.28,40.51,14.62Zm-23-.47a1.18,1.18,0,0,1-.62.83,1.36,1.36,0,0,1-1.47-.46c-.45-.59-.28-1.88.89-3.15C16.61,11.7,17.81,13,17.46,14.15Z"/><path d="M102.1,3.56C100.85.77,97.42.17,96.74.08c-1.12-.15-3.92-.3-5.69,1.66A4.78,4.78,0,0,0,89.81,5.9a2.65,2.65,0,0,0,1,1.62,2.45,2.45,0,0,0,1.78.37.6.6,0,0,0,.41-.27A.66.66,0,0,0,93,7a.86.86,0,0,0-.51-.27l-.1,0a2.4,2.4,0,0,1-.9-.68c-.49-.53-.38-1.91.22-2.84,1-1.49,3.26-1.77,5-1.41.32.07,3.2.73,4,3.12a4.92,4.92,0,0,1-.64,4c-1,1.73-3,3.38-5.86,5.05-4.55,2.62-9,2.77-14.15,2.95a.56.56,0,0,0-.55.52.54.54,0,0,0,.4.61,10.48,10.48,0,0,0,2.68.26A28.78,28.78,0,0,0,96,14.71a12.73,12.73,0,0,0,4.15-3.39C102.41,8.32,103.07,5.71,102.1,3.56Z"/><path d="M124.05,16.83c-5.15-.18-9.59-.33-14.15-2.95-2.89-1.67-4.81-3.32-5.85-5.05a4.91,4.91,0,0,1-.65-4c.77-2.39,3.65-3.05,4-3.12,1.73-.36,4-.08,5,1.41.6.93.71,2.31.22,2.84a2.4,2.4,0,0,1-.9.68l-.1,0a.81.81,0,0,0-.5.27.64.64,0,0,0-.11.66.6.6,0,0,0,.41.27,2.48,2.48,0,0,0,1.79-.37,2.67,2.67,0,0,0,1-1.62A4.81,4.81,0,0,0,113,1.74c-1.78-2-4.58-1.81-5.7-1.66-.67.09-4.11.69-5.36,3.48-1,2.15-.3,4.77,2,7.76a12.64,12.64,0,0,0,4.16,3.38,28.63,28.63,0,0,0,13.45,3.52A10.45,10.45,0,0,0,124.2,18a.55.55,0,0,0,.41-.61A.58.58,0,0,0,124.05,16.83Z"/><path d="M112,21.48c-.18.79,3.4,2.66,6.62,3.44,6.06,1.46,15.1.09,17.5-5.42a8.16,8.16,0,0,0,.5-4.5c1.26-.49,2.46-1.06,3.58-1.61,1.35-.67,2.71-1.37,4.15-2.11,8.12-4.2,17.32-9,26.55-6.91.55.12,1.07.26,1.56.41-3.85.08-10.1.94-13.76,5.31-1.86,2.22-3.07,5.81-1.32,8.46s6,3.63,8.93,2.09a7.53,7.53,0,0,0,2.79-2.79l.13,0c1.74.27,6.09.6,8.67-2.26a7.29,7.29,0,0,0,.37-9.08,20.62,20.62,0,0,1,7.05,2.66A14,14,0,0,1,187,10.4a6.07,6.07,0,0,0-.73.91c-.48.72-1.49,2.56-.48,3.87a2.49,2.49,0,0,0,1.74.9,2.59,2.59,0,0,0,1.92-.53c1.84-1.56.53-3.79-.49-5a12.11,12.11,0,0,1,6.61-2.45c3.29-.17,5.76.65,7,2.29a3.18,3.18,0,0,1,.7,1.78c.07,1.95-2.1,3.42-2.12,3.43l-.12.08-.14.1-.18.1c-.14.08-.23.13-.26.25a.41.41,0,0,0,.15.42.59.59,0,0,0,.52.1,5.32,5.32,0,0,0,2.24-2,4.27,4.27,0,0,0,.78-3.25,4.09,4.09,0,0,0-.84-1.68c-2.22-2.74-7-3.31-10.51-2.45A12.79,12.79,0,0,0,188,9.5a10.79,10.79,0,0,0-1.42-1.18,21.35,21.35,0,0,0-8.44-3.14c-.42-.07-.88-.13-1.43-.19a16.18,16.18,0,0,0-7.25-2.6c-7.22-1.14-14.58,1.95-20.91,4.92-1.58.74-3.16,1.59-4.7,2.41a68.27,68.27,0,0,1-7.3,3.55,9.76,9.76,0,0,0-3.15-4.95A5.61,5.61,0,0,0,131,7.06a4.84,4.84,0,0,0-4,.82,3.83,3.83,0,0,0-1.08,1.32,4.5,4.5,0,0,0,1.28,5.55c2.06,1.51,4.68,1.76,8,.73a6.92,6.92,0,0,1-.56,3.94c-1.24,2.57-3.92,3.45-6,4.12a19.7,19.7,0,0,1-13.47-1.13c-.51-.24-.76-.39-.76-.39-.38-.22-.68-.45-1.28-.81-.38-.23-.53-.29-.7-.25A.75.75,0,0,0,112,21.48Zm17-7.37a3,3,0,0,1-1.9-1.61,2.92,2.92,0,0,1,.26-2.27,3.45,3.45,0,0,1,1.88-1.77c1.22-.36,2.34.49,3,1a7.39,7.39,0,0,1,2.68,4.4l-.54.17A8.62,8.62,0,0,1,129,14.11Zm39.39,2.06A5.22,5.22,0,0,1,166,15.3c-.48-.34-1.21-.84-1.15-1.34a1.24,1.24,0,0,1,.73-.79,2.48,2.48,0,0,1,1.13-.29,1.75,1.75,0,0,1,.78.18A2.39,2.39,0,0,1,168.41,16.17Zm-.68,1.4a3.51,3.51,0,0,1-.65.82,5.7,5.7,0,0,1-4.7,1,5.41,5.41,0,0,1-3.92-2.48c-.41-.79-.71-2.18.17-4.31,2.17-5.21,9.76-6.63,13.9-6.64h.06a19.05,19.05,0,0,1,2.83.21,5.7,5.7,0,0,1,2.2,2.66,5.42,5.42,0,0,1-.23,4.63,5.89,5.89,0,0,1-4,2.87,11.29,11.29,0,0,1-3.59.1,3.76,3.76,0,0,0-.41-3.35,4,4,0,0,0-4.48-1,2.13,2.13,0,0,0-1.23,2.61C164,16.28,166,17.14,167.73,17.57Zm20.15-6.2c1.18,1.27,1.35,2.56.9,3.15a1.37,1.37,0,0,1-1.48.46,1.23,1.23,0,0,1-.62-.83C186.34,13,187.54,11.7,187.88,11.37Z"/></g></g></svg>