<svg xmlns="http://www.w3.org/2000/svg" viewBox="0 0 115.04 14.41"><g id="Layer_2" data-name="Layer 2"><g id="_ëîé_1" data-name="—ëîé_1"><path d="M112.4,3.47C109.12,1,104.23,2,101,4c-.32.2-.66.44-1,.71a8.47,8.47,0,0,0-3-3.48C93.57-.92,88.77,0,85.58,2.1a12.4,12.4,0,0,0-2.8,2.62,9.77,9.77,0,0,0-6-2.4,14.8,14.8,0,0,0-9.14,3.12c-2.85,2-5.56,4.63-9.08,4.91l-1,0-1.05,0c-3.52-.28-6.23-2.89-9.08-4.91a14.8,14.8,0,0,0-9.14-3.12,9.8,9.8,0,0,0-6,2.4,12.4,12.4,0,0,0-2.8-2.62c-3.19-2.11-8-3-11.37-.87a8.47,8.47,0,0,0-3,3.48c-.35-.27-.69-.51-1-.71C10.81,2,5.92,1,2.64,3.47-.41,5.75-1,10.46,2,13.06a.56.56,0,0,0,.87-.67c-1.61-3.7,0-7.61,4.26-7.95a12.18,12.18,0,0,1,7.32,2,10.93,10.93,0,0,0-.27,4.91c.2,1.11.65,2.53,1.85,2.92a2.75,2.75,0,0,0,3.17-1.83c.71-2.12-.72-4.5-2.44-6.3,1.45-3.59,5-5,8.88-4a11.41,11.41,0,0,1,5.8,3.28l.09.1a5.48,5.48,0,0,0-.73,6.09c.56,1.22,2,2.3,3.4,1.65s1.05-2.1.75-3.26a13.79,13.79,0,0,0-1.37-3.38,6.12,6.12,0,0,1,1.14-1c4.58-2.83,9.92.07,13.86,2.55,2.78,1.75,5.68,3.36,9,3.18,3.3.18,6.2-1.43,9-3.18,3.94-2.48,9.28-5.38,13.86-2.55a6.12,6.12,0,0,1,1.14,1A14.2,14.2,0,0,0,80.13,10c-.3,1.16-.56,2.65.75,3.26s2.84-.43,3.4-1.65a5.48,5.48,0,0,0-.73-6.09l.09-.1a11.41,11.41,0,0,1,5.8-3.28c3.88-.92,7.43.45,8.88,4-1.72,1.8-3.14,4.18-2.44,6.3a2.75,2.75,0,0,0,3.17,1.83c1.2-.39,1.65-1.81,1.85-2.92a10.93,10.93,0,0,0-.27-4.91,12.18,12.18,0,0,1,7.32-2c4.23.34,5.87,4.25,4.26,8a.56.56,0,0,0,.87.67C116.09,10.46,115.45,5.75,112.4,3.47ZM17.13,8.78a3.18,3.18,0,0,1,.7,3.38c0,.09-.36.63-.74.61s-.7-.75-.83-1.09A6,6,0,0,1,16.19,8,3.8,3.8,0,0,1,17.13,8.78Zm16.44.27c.19.58.8,2.41.16,2.87a1.06,1.06,0,0,1-1-.08c-.88-.51-1-2-.65-3a3.37,3.37,0,0,1,.82-1.29A8.33,8.33,0,0,1,33.57,9.05Zm48.76,2.79a1.06,1.06,0,0,1-1,.08c-.64-.46,0-2.29.16-2.87a8.33,8.33,0,0,1,.69-1.52A3.25,3.25,0,0,1,83,8.82C83.32,9.83,83.21,11.33,82.33,11.84Zm16.45-.16c-.13.34-.4,1.07-.83,1.09s-.69-.52-.74-.61a3.18,3.18,0,0,1,.7-3.38A3.8,3.8,0,0,1,98.85,8,6,6,0,0,1,98.78,11.68Z"/></g></g></svg>