<svg xmlns="http://www.w3.org/2000/svg" viewBox="0 0 157.54 19.34"><g id="Layer_2" data-name="Layer 2"><g id="_ëîé_1" data-name="—ëîé_1"><path d="M78.44,5.37a3,3,0,0,0-3-1.94A3.8,3.8,0,0,0,72.13,6a.7.7,0,0,0,.15.73A1,1,0,0,0,73.2,7a.7.7,0,0,0,.5-.55,1.73,1.73,0,0,1,1.38-1.57,1.93,1.93,0,0,1,1.89.9,2,2,0,0,1-.31,2.33c-.89,1.15-2.52,1.64-4,2a19.61,19.61,0,0,1-6.65.18,34.89,34.89,0,0,1-9.28-2.54c-2.51-1.06-5.82-2.47-9.09-4.06l-.39-.19A33.51,33.51,0,0,0,40,.6C38.15.2,29-1.54,27.1,3.68a3.94,3.94,0,0,0,.59,4.19c1.9,2.17,6.24,2.64,9.37,2a4.55,4.55,0,0,0,.5.78A15.74,15.74,0,0,0,39,12.2c-3.16.67-6.33,1.53-9.4,2.36-2.69.73-3.37.91-4.34,1.16-7.65,2-14.62,3.78-19.28.51-2-1.43-4.06-4.14-4-7.12A6.46,6.46,0,0,1,3.14,5.55,6.87,6.87,0,0,1,9.36,2.93c1.85.2,4.05,1.2,4.5,2.66A3.65,3.65,0,0,1,14,6.84,3.77,3.77,0,0,1,13.71,8c-.14.38-.24.65-.08.82a.44.44,0,0,0,.41.11.35.35,0,0,0,.17-.17c1-2,.79-3.95-.73-5.33A8.87,8.87,0,0,0,3.89,2.6,8.49,8.49,0,0,0,0,10.46c.34,3.82,3.32,6,4.29,6.67a13.62,13.62,0,0,0,8,2.21,19.6,19.6,0,0,0,3.25-.23,111,111,0,0,0,14.54-3.3C33,15,36,14.17,39,13.51l1.11-.24a18.56,18.56,0,0,0,4.56,2.84c2.63,1.11,6.77,2,9.8.9a4.15,4.15,0,0,0,2.62-2.76,2,2,0,0,0-.84-1.91C54.11,10.6,50,10.82,48,10.92a56.38,56.38,0,0,0-7.65,1,12,12,0,0,1-2.19-2.36,6.17,6.17,0,0,0,2.55-1.46,2.48,2.48,0,0,0,.47-2.95,2.08,2.08,0,0,0-2.49-.85c-2.06.55-2.45,2.54-2.15,4.11-3.29.65-6.33-.26-7.09-2.13a3.2,3.2,0,0,1,.16-2.6c.9-1.66,3.21-1.94,4.2-2.06,4.44-.53,10.09,2,15.55,4.4,1.07.48,2.17,1,3.23,1.42,6.36,2.7,12.61,5.05,19.09,4.16,1.8-.25,5.51-1.28,6.7-3.44A3,3,0,0,0,78.44,5.37ZM40.25,6.85a2.43,2.43,0,0,1-1.6,1.22,3.27,3.27,0,0,1-1,.17,2.54,2.54,0,0,1,.06-1.37c.17-.52.72-1.51,1.56-1.52a1.15,1.15,0,0,1,1.07.6A1.14,1.14,0,0,1,40.25,6.85ZM55.71,14.1a1.52,1.52,0,0,1-.8,1.43,6.09,6.09,0,0,1-3.25.75,16,16,0,0,1-10-3.32,38.79,38.79,0,0,1,8.55-.89,13.72,13.72,0,0,1,4.17.63A1.86,1.86,0,0,1,55.71,14.1Z"/><path d="M79.13,8.15c1.18,2.16,4.89,3.19,6.69,3.44,6.48.89,12.73-1.46,19.1-4.16C106,7,107.08,6.49,108.15,6c5.46-2.42,11.11-4.93,15.55-4.4,1,.12,3.29.4,4.19,2.06a3.12,3.12,0,0,1,.16,2.6c-.76,1.87-3.8,2.78-7.08,2.13.3-1.57-.09-3.56-2.15-4.11a2.1,2.1,0,0,0-2.5.85,2.48,2.48,0,0,0,.48,3,6,6,0,0,0,2.55,1.46,12.39,12.39,0,0,1-2.2,2.36,56.05,56.05,0,0,0-7.64-1c-2-.1-6.08-.32-8.26,1.42a2,2,0,0,0-.83,1.91A4.15,4.15,0,0,0,103,17c3,1.12,7.16.21,9.79-.9a18.38,18.38,0,0,0,4.56-2.84l1.11.24c3,.66,6,1.49,8.94,2.3A110.62,110.62,0,0,0,142,19.11a19.6,19.6,0,0,0,3.25.23,13.64,13.64,0,0,0,8-2.21c1-.7,3.94-2.85,4.28-6.67a8.5,8.5,0,0,0-3.85-7.86,8.87,8.87,0,0,0-9.59.84c-1.53,1.38-1.79,3.28-.74,5.33a.33.33,0,0,0,.18.17.43.43,0,0,0,.4-.11c.17-.17.06-.44-.08-.82a4.42,4.42,0,0,1-.31-1.17,3.84,3.84,0,0,1,.17-1.25c.44-1.46,2.65-2.46,4.5-2.66a6.85,6.85,0,0,1,6.21,2.62,6.41,6.41,0,0,1,1.19,3.56c.08,3-2,5.69-4,7.12-4.65,3.27-11.63,1.47-19.27-.51-1-.25-1.66-.43-4.34-1.16-3.08-.83-6.25-1.69-9.41-2.36A17.23,17.23,0,0,0,120,10.63a4,4,0,0,0,.49-.78c3.14.66,7.48.19,9.38-2a3.94,3.94,0,0,0,.58-4.19C128.55-1.54,119.39.2,117.57.6a33.51,33.51,0,0,0-7.29,2.87l-.39.19c-3.27,1.59-6.57,3-9.08,4.06a35,35,0,0,1-9.28,2.54,19.6,19.6,0,0,1-6.65-.18c-1.48-.33-3.12-.82-4-2a2,2,0,0,1-.31-2.33,1.91,1.91,0,0,1,1.88-.9,1.75,1.75,0,0,1,1.39,1.57.7.7,0,0,0,.5.55,1,1,0,0,0,.91-.25A.7.7,0,0,0,85.4,6a3.78,3.78,0,0,0-3.32-2.59,3,3,0,0,0-3,1.94A3,3,0,0,0,79.13,8.15ZM117.22,6a1.16,1.16,0,0,1,1-.6c.86,0,1.41,1,1.59,1.52a2.64,2.64,0,0,1,.06,1.37,3.29,3.29,0,0,1-1-.17,2.44,2.44,0,0,1-1.59-1.22A1.13,1.13,0,0,1,117.22,6ZM103.16,12.7a13.65,13.65,0,0,1,4.16-.63,39,39,0,0,1,8.56.89,16,16,0,0,1-10,3.32,6.05,6.05,0,0,1-3.24-.75,1.48,1.48,0,0,1-.8-1.43A1.86,1.86,0,0,1,103.16,12.7Z"/></g></g></svg>