<svg xmlns="http://www.w3.org/2000/svg" viewBox="0 0 113.13 17.38"><g id="Layer_2" data-name="Layer 2"><g id="_ëîé_1" data-name="—ëîé_1"><path d="M112.89,5.73a7.65,7.65,0,0,0-3.06-4.28c-3.89-2.77-8.8-.84-9.36-.18-.07.08-.28.32-.2.48s.51.15.68.12c2.17-.38,4.1-.93,6.22.11a5.85,5.85,0,0,1,3.26,5.07c.18,4.11-2.67,6.86-6.4,7.87A26.48,26.48,0,0,1,91.3,15c-5.94-1.31-11.73-3.15-17.7-4.35a47.85,47.85,0,0,1,6.16.33c4.28.5,7.16.59,9.32-.77a4.24,4.24,0,0,0,1.64-1.73A4,4,0,0,0,91,5.87a4.24,4.24,0,0,0-2.18-2.78c-2.2-1-4.3.59-4.64.85-.13.11-1.25,1-1,1.5a.61.61,0,0,0,.52.31c.35,0,.57-.32.8-.54a3.16,3.16,0,0,1,1.94-.8,2.77,2.77,0,0,1,2.53.89,2.91,2.91,0,0,1-.7,3.44c-1.73,1.44-4.71,1.08-6.77,1-4.91-.28-5.43-.36-7.62-.32a36.73,36.73,0,0,0-7.48,1c-5,1.2-8.71,3.51-9.77,4.59-1.07-1.08-4.78-3.39-9.78-4.59a36.74,36.74,0,0,0-7.47-1c-2.19,0-2.72,0-7.63.32-2.06.12-5,.48-6.76-1a2.89,2.89,0,0,1-.7-3.44,2.75,2.75,0,0,1,2.52-.89,3.18,3.18,0,0,1,1.95.8c.22.22.45.54.79.54A.6.6,0,0,0,30,5.44c.21-.52-.92-1.39-1.05-1.5-.34-.26-2.43-1.89-4.64-.85a4.24,4.24,0,0,0-2.18,2.78,4.06,4.06,0,0,0,.27,2.58,4.32,4.32,0,0,0,1.64,1.73c2.16,1.36,5,1.27,9.32.77a48,48,0,0,1,6.16-.33c-6,1.2-11.76,3-17.69,4.35A26.52,26.52,0,0,1,9.1,14.92c-3.73-1-6.57-3.76-6.4-7.87A5.87,5.87,0,0,1,6,2c2.12-1,4.06-.49,6.23-.11.16,0,.59.06.67-.12s-.13-.4-.2-.48C12.1.61,7.19-1.32,3.3,1.45A7.7,7.7,0,0,0,.24,5.73a7.65,7.65,0,0,0,.39,4.9c1.51,3.57,5.42,5,7.2,5.58,8.74,3,18.71-.41,24.86-2.5l.48-.16a38.29,38.29,0,0,1,10.12-1.91,20.46,20.46,0,0,1,2.71,0,20,20,0,0,1,9.89,3.8,2.43,2.43,0,0,0,.26.18.69.69,0,0,0,.83,0,1.59,1.59,0,0,0,.26-.18,20,20,0,0,1,9.89-3.8,20.6,20.6,0,0,1,2.72,0A38.42,38.42,0,0,1,80,13.55l.47.16c6.15,2.09,16.12,5.48,24.86,2.5,1.78-.61,5.7-2,7.2-5.58A7.65,7.65,0,0,0,112.89,5.73Z"/></g></g></svg>