<svg xmlns="http://www.w3.org/2000/svg" viewBox="0 0 112.07 16.78"><g id="Layer_2" data-name="Layer 2"><g id="_ëîé_1" data-name="—ëîé_1"><path d="M56.14,7.88C55.86,4.08,52.53,2,50.58,1A12.07,12.07,0,0,0,43.82.14c-5.3.66-9,2.39-13.25,4.38C28.31,5.58,26,6.67,23.1,7.77c-12.22,4.7-17.2,3.66-19.23,2C3.3,9.25,1.76,8,1.79,6.2A3.64,3.64,0,0,1,3.27,3.27a5.06,5.06,0,0,1,1-.42c.5-.16.9-.3.91-.63A.48.48,0,0,0,5,1.83c-.59-.56-2.19.12-3.08.79A5.16,5.16,0,0,0,0,7.09a5.74,5.74,0,0,0,2,3.64,8.2,8.2,0,0,0,4.7,2c6.74.79,16.64-3.49,16.74-3.53,2.47-1.08,4.66-2.08,6.6-3C37.6,2.79,41.72.91,46.32,1.39c1.19.12,4.34.45,6.21,2.83a6,6,0,0,1,1.3,3.36A6.86,6.86,0,0,1,50,13.81c-2.22,1.11-5.56,1.17-7.29-.66a3.53,3.53,0,0,1-1.16-2.41,7,7,0,0,1,.22-1.66,3,3,0,0,1,.1-.32c.14-.42.26-.78,0-1a.63.63,0,0,0-.53-.22,1,1,0,0,0-.62.52,5.92,5.92,0,0,0-.44,4.53,6,6,0,0,0,2.78,3.21,7.81,7.81,0,0,0,3.12,1,7,7,0,0,0,.78,0,9,9,0,0,0,4.92-1.54C52.66,14.74,56.45,12,56.14,7.88Z"/><path d="M110.15,2.62c-.88-.67-2.48-1.35-3.08-.79a.48.48,0,0,0-.18.39c0,.33.41.47.92.63a5,5,0,0,1,1,.42,3.64,3.64,0,0,1,1.48,2.93c0,1.76-1.5,3.05-2.08,3.53-2,1.7-7,2.73-19.23-2-2.88-1.1-5.21-2.19-7.47-3.25-4.26-2-8-3.72-13.25-4.38A12,12,0,0,0,61.5,1c-2,.92-5.29,3.05-5.57,6.85-.31,4.14,3.48,6.86,4.24,7.36a9,9,0,0,0,4.92,1.54,6.91,6.91,0,0,0,.78,0,7.74,7.74,0,0,0,3.13-1,6,6,0,0,0,2.77-3.2A5.92,5.92,0,0,0,71.33,8a1,1,0,0,0-.62-.52.63.63,0,0,0-.53.22c-.21.27-.09.63,0,1,0,.1.07.21.11.32a7.35,7.35,0,0,1,.21,1.66,3.53,3.53,0,0,1-1.15,2.41c-1.74,1.83-5.08,1.77-7.29.66a6.85,6.85,0,0,1-3.87-6.23,6,6,0,0,1,1.3-3.36c1.87-2.38,5-2.71,6.21-2.83C70.34.9,74.48,2.79,82,6.21c1.94.88,4.14,1.88,6.6,3,.1,0,10,4.32,16.74,3.53a8.2,8.2,0,0,0,4.7-2,5.69,5.69,0,0,0,2-3.64A5.14,5.14,0,0,0,110.15,2.62Z"/></g></g></svg>