<svg xmlns="http://www.w3.org/2000/svg" viewBox="0 0 109.8 18.35"><g id="Layer_2" data-name="Layer 2"><g id="Layer_2-2" data-name="Layer 2"><path d="M2.54,4.33c.09,0-.7.12-.24.8.18.28.75.5.94,0a2.38,2.38,0,0,0,0-1.7A1.62,1.62,0,0,0,1.72,2.23C1,2.36.66,3.33.53,4.21a5.46,5.46,0,0,0,.19,2.9,6.81,6.81,0,0,0,1.89,2.6,9.08,9.08,0,0,0,6.71,2.45,2.33,2.33,0,0,0,1.73-.62,7.84,7.84,0,0,0,1.46-1.42c.81-1,1.53-2.64.44-3.6-.51-.61-1,.24-1.19.88a11.25,11.25,0,0,0-.45,2.18c-.12,1.49-.38,3.05.53,4.39a5.41,5.41,0,0,0,3.79,2.25A13.08,13.08,0,0,0,20.25,16a25.69,25.69,0,0,0,8.32-3.95c2.59-1.65,4.85-3.68,7.47-5.16a17.26,17.26,0,0,1,8.21-2.38,9.82,9.82,0,0,1,4,.61,11.27,11.27,0,0,1,3.12,2.11,9.48,9.48,0,0,1,3.14,5.63,5.36,5.36,0,0,1-1.66,4.62,2.7,2.7,0,0,1-3.08.34,1.29,1.29,0,0,1-.51-.67l-.13-.26.07,0,.13.25a1.29,1.29,0,0,0,.51.61,2.52,2.52,0,0,0,2.83-.45A5.11,5.11,0,0,0,54.08,13,9,9,0,0,0,51,7.69a10.51,10.51,0,0,0-3-1.92,9.87,9.87,0,0,0-3.73-.56,16.62,16.62,0,0,0-7.9,2.27c-2.52,1.41-4.83,3.46-7.46,5.1a25.91,25.91,0,0,1-8.59,3.83,13.13,13.13,0,0,1-4.72.09,5.57,5.57,0,0,1-3.93-2.44c-.89-1.32-.74-3.05-.62-4.51a10.76,10.76,0,0,1,.42-2.25,2.75,2.75,0,0,1,.53-1,.89.89,0,0,1,.62-.31,1.25,1.25,0,0,1,.59.29,2.16,2.16,0,0,1,.67,2.18,5.32,5.32,0,0,1-1,2,8.16,8.16,0,0,1-1.51,1.54,2.88,2.88,0,0,1-2,.76,9.05,9.05,0,0,1-7.11-2.62,7.06,7.06,0,0,1-2-2.84,5.88,5.88,0,0,1-.14-3.1c.18-.91.48-2,1.52-2.25A1.88,1.88,0,0,1,3.48,3.32a2.63,2.63,0,0,1-.07,1.87.61.61,0,0,1-.67.39.87.87,0,0,1-.53-.38c-.25-.31-.17-.72,0-.81a1,1,0,0,1,.27-.12Z"/><path d="M27.37,17a1.56,1.56,0,0,0,.8.78,2.24,2.24,0,0,0,2.68-1.24,8.72,8.72,0,0,0,.93-4.94,8.55,8.55,0,0,0-3-5.74,15.39,15.39,0,0,0-7.08-3.18,7.44,7.44,0,0,0-4.14.46,2.61,2.61,0,0,0-1.33,1.51,2.13,2.13,0,0,0,.61,1.92A7.45,7.45,0,0,0,21,8.41a10.14,10.14,0,0,0,4.71-.58c3.07-1.11,5.78-3.07,8.7-4.66S40.6.36,44,.8a6.9,6.9,0,0,1,4.1,2.73,17.16,17.16,0,0,1,1.28,2.11c.32.74.55,1.51.82,2.26s.22,1.58.33,2.36l-.09,1.17a10.68,10.68,0,0,1-.31,1.17A5.74,5.74,0,0,1,47,15.87a5.17,5.17,0,0,1-4.3.05,3.94,3.94,0,0,1-2.05-3.42c-.42-2.72,2.47-5,4.57-4,2,1.15,1.59,4.1,0,4.54a1.24,1.24,0,0,1-1.57-1,1.6,1.6,0,0,1,.27-1.42,1,1,0,0,1,1.16-.17l0,.06a1,1,0,0,0-1.05.19A1.44,1.44,0,0,0,43.8,12a1,1,0,0,0,1.34.77c1.3-.35,1.64-3-.08-3.91-1.73-.71-4.3,1.21-3.84,3.63A3.36,3.36,0,0,0,43,15.34a4.65,4.65,0,0,0,3.74-.08,5.08,5.08,0,0,0,2.78-2.88c.09-.34.21-.65.28-1l.09-1.1c-.1-.73-.17-1.48-.3-2.21s-.48-1.45-.77-2.15a19,19,0,0,0-1.18-2,6.38,6.38,0,0,0-3.75-2.56C40.77.9,37.44,2,34.57,3.5S28.9,7,25.77,8,19,9,16.6,6.78a2.51,2.51,0,0,1-.74-2.28A3.07,3.07,0,0,1,17.4,2.68a7.86,7.86,0,0,1,4.41-.58,14.54,14.54,0,0,1,7.36,3.33,9.09,9.09,0,0,1,3,6.07,8.83,8.83,0,0,1-1.1,5.15,2.45,2.45,0,0,1-3,1.21,1.64,1.64,0,0,1-.81-.87Z"/><path d="M107.29,2.41a1.12,1.12,0,0,1,.27.11c.21.1.28.5,0,.82a.94.94,0,0,1-.52.39.6.6,0,0,1-.69-.36,2.63,2.63,0,0,1-.07-1.87A2,2,0,0,1,108.08,0c1.09.12,1.39,1.29,1.58,2.19a5.94,5.94,0,0,1-.12,3.09,7.46,7.46,0,0,1-1.91,2.88,9.41,9.41,0,0,1-7,3,3.78,3.78,0,0,1-1.06-.06,3.94,3.94,0,0,1-1-.53A7.81,7.81,0,0,1,97,9.06a5.13,5.13,0,0,1-1-2,2.19,2.19,0,0,1,.57-2.21c.15-.26.84-.55,1.19-.18a2.4,2.4,0,0,1,.6,1A10.58,10.58,0,0,1,98.78,8c.12,1.45.31,3.18-.54,4.52a5.66,5.66,0,0,1-3.8,2.65,12.66,12.66,0,0,1-4.71.15A24.06,24.06,0,0,1,81,11.85C78.32,10.29,76,8.29,73.39,7a16.21,16.21,0,0,0-8-1.89,9.7,9.7,0,0,0-3.68.76,10.83,10.83,0,0,0-2.91,2,9.51,9.51,0,0,0-3.06,5.32,5,5,0,0,0,1.46,4.35,2.47,2.47,0,0,0,2.84.3c.57-.43.57-.92.63-.87l.06,0-.12.26a1.46,1.46,0,0,1-.5.69,2.65,2.65,0,0,1-3.08-.2,5.2,5.2,0,0,1-1.7-4.59,9.94,9.94,0,0,1,3.08-5.68,12,12,0,0,1,3-2.23,9.76,9.76,0,0,1,3.94-.82,17,17,0,0,1,8.31,2c2.66,1.39,5,3.36,7.61,4.93a23.75,23.75,0,0,0,8.46,3.6,12.58,12.58,0,0,0,4.62-.07,5.44,5.44,0,0,0,3.67-2.46c.87-1.36.57-2.91.45-4.4A10.92,10.92,0,0,0,98,5.85c-.23-.7-.72-1.36-1.24-.68-1,1-.25,2.63.6,3.59a7.16,7.16,0,0,0,1.5,1.36,3.55,3.55,0,0,0,.82.42,3.35,3.35,0,0,0,1,0,9.51,9.51,0,0,0,6.6-2.78,5.71,5.71,0,0,0,2-5.54c-.13-.87-.5-1.87-1.22-1.92s-1.25.67-1.46,1.25a2.43,2.43,0,0,0,0,1.7c.2.51.77.25.94,0,.47-.69-.33-.8-.23-.79Z"/><path d="M82.54,16.16a1.7,1.7,0,0,1-.78.89,2.38,2.38,0,0,1-3-1.09,8.64,8.64,0,0,1-1.1-5.14A9.38,9.38,0,0,1,80.6,4.71a15.09,15.09,0,0,1,7.22-3.63A7.75,7.75,0,0,1,90,.93a4.77,4.77,0,0,1,2.22.44A2.91,2.91,0,0,1,93.9,3.1a2.44,2.44,0,0,1-.6,2.31c-2.3,2.36-6,2.76-9.09,1.77s-6-2.78-9-4.2a18.91,18.91,0,0,0-4.61-1.63,11,11,0,0,0-4.77-.1,6.74,6.74,0,0,0-3.69,2.69,17.23,17.23,0,0,0-1.15,2c-.32.69-.51,1.44-.76,2.15s-.21,1.49-.32,2.21a6.07,6.07,0,0,0,.34,2.11,4.75,4.75,0,0,0,2.79,2.84,4.63,4.63,0,0,0,3.74-.07,3.48,3.48,0,0,0,1.8-2.9c.45-2.47-2.13-4.28-3.84-3.5s-1.41,3.58-.08,3.89A1.05,1.05,0,0,0,66,11.83a1.41,1.41,0,0,0-.18-1.29,1,1,0,0,0-1-.15l0-.06a1.06,1.06,0,0,1,1.17.13,1.57,1.57,0,0,1,.27,1.42,1.29,1.29,0,0,1-1.56,1C63,12.52,62.59,9.53,64.6,8.4a3.09,3.09,0,0,1,3.23.52,3.76,3.76,0,0,1,1.35,3.39,4.07,4.07,0,0,1-2.05,3.43,5.2,5.2,0,0,1-4.3.11,5.45,5.45,0,0,1-3.15-3.24,6.74,6.74,0,0,1-.37-2.34c.11-.77.16-1.58.34-2.35s.47-1.53.81-2.27a17.94,17.94,0,0,1,1.26-2.12,7.18,7.18,0,0,1,4-2.85c3.38-.62,6.74.47,9.69,2S81.15,6,84.27,7a9.89,9.89,0,0,0,4.73.3,7.31,7.31,0,0,0,4-2.11,2,2,0,0,0,.48-1.94,2.45,2.45,0,0,0-1.4-1.42,3.09,3.09,0,0,0-1-.31,3.69,3.69,0,0,0-1-.07,7.65,7.65,0,0,0-2.09.18,16.23,16.23,0,0,0-7,3.48,8.87,8.87,0,0,0-2.9,5.78A8.62,8.62,0,0,0,79,15.81a2.18,2.18,0,0,0,2.7,1.13,1.6,1.6,0,0,0,.78-.81Z"/></g></g></svg>