<svg xmlns="http://www.w3.org/2000/svg" viewBox="0 0 220.07 19.34"><g id="Layer_2" data-name="Layer 2"><g id="_ëîé_1" data-name="—ëîé_1"><path d="M157.1,5.62c-.69-2.83-4-5.12-6.13-4.49-2.26.68-3.42,3.62-1.68,5.39A.43.43,0,0,0,150,6a2.43,2.43,0,0,1,2.13-3.64,3.73,3.73,0,0,1,3.3,2.57,6.25,6.25,0,0,1-1.06,5.59,7.35,7.35,0,0,1-2.66,2.26c-3.84,1.9-8.08-.39-8.63-.7-3.55-2.05-6.51-5.57-10.69-6.92a7.14,7.14,0,0,0-4.55.24A18,18,0,0,0,121.44,3a22.16,22.16,0,0,0-8.64.61,13.13,13.13,0,0,0-1.63.57,11.41,11.41,0,0,0-1.93,1.07,13.16,13.16,0,0,0-2.55-1.49,15.44,15.44,0,0,0-11.81-.08,16.46,16.46,0,0,0-3,1.66c-2.76-1.39-6.06.13-8.47,1.74s-4.45,3.47-6.75,4.83c-.41.25-4.47,2.72-8.26.94a7.34,7.34,0,0,1-2.73-2.3,6.21,6.21,0,0,1-1.05-5.59,3.67,3.67,0,0,1,3.29-2.57,2.61,2.61,0,0,1,2.38,1.82c.16.87-.56,1.64-.15,2.13a.61.61,0,0,0,.58.21c.63-.18,1-2.09.27-3.49a3.51,3.51,0,0,0-1.83-1.58,4.5,4.5,0,0,0-4,.67,5.81,5.81,0,0,0-2.22,3.21c-.8,3.34,1.93,7.53,5.47,8.87,3.7,1.4,7.51-.63,8.66-1.24,3.32-1.78,6.62-5.37,9.28-6.43A7.22,7.22,0,0,1,89.19,6a6.27,6.27,0,0,1,1.39.26c-1.37,1.25-2.33,2.8-2,4.53,1,4.94,9.14-.38,4.41-4.68l-.06,0a14.2,14.2,0,0,1,11.87-1.52,12.56,12.56,0,0,1,3.25,1.59c-2.32,2.17-3.65,5.3-.83,7.32,2.23,1.59,4.31-.66,4.62-2.87a5.26,5.26,0,0,0-1.66-4.53,15.13,15.13,0,0,1,3.56-1.67c.7-.22,6.23-1.88,11.4,1a12.48,12.48,0,0,1,1.23.76,3.63,3.63,0,0,0-1.72,2.44,3.86,3.86,0,0,0,.73,2.86c2.36,3.59,6.44.25,4.59-3.33a8.37,8.37,0,0,0-1.35-1.9,5.29,5.29,0,0,1,2.91,0,10,10,0,0,1,4.22,2.27c3.27,2.61,5.74,4.59,8.73,5.65a9.77,9.77,0,0,0,4.86.78C153.68,14.21,158.06,9.55,157.1,5.62ZM91.57,11.37a1.4,1.4,0,0,1-1.35-.48c-.65-.87.28-2.55,1-3.41A4.62,4.62,0,0,1,92,6.8a2.41,2.41,0,0,1,.78.92C93.41,9.05,92.71,11.12,91.57,11.37Zm18.7-3.29c1,1.64.17,4.27-1,4.54-.71.16-1.59-.55-2-1.29-.62-1.26,0-3.14,1.72-4.39A3,3,0,0,1,110.27,8.08Zm18.62.67c.3.65.74,1.6.27,2.32a1.65,1.65,0,0,1-1.63.62A2.36,2.36,0,0,1,126,9.24,3,3,0,0,1,127.43,7,4.84,4.84,0,0,1,128.89,8.75Z"/><path d="M78.44,5.37a3,3,0,0,0-3-1.94A3.8,3.8,0,0,0,72.13,6a.7.7,0,0,0,.15.73A1,1,0,0,0,73.2,7a.7.7,0,0,0,.5-.55,1.73,1.73,0,0,1,1.38-1.57,1.93,1.93,0,0,1,1.89.9,2,2,0,0,1-.31,2.33c-.89,1.15-2.52,1.64-4,2a19.61,19.61,0,0,1-6.65.18,34.89,34.89,0,0,1-9.28-2.54c-2.51-1.06-5.82-2.47-9.09-4.06l-.39-.19A33.51,33.51,0,0,0,40,.6C38.15.2,29-1.54,27.1,3.68a3.94,3.94,0,0,0,.59,4.19c1.9,2.17,6.24,2.64,9.37,2a4.55,4.55,0,0,0,.5.78A15.74,15.74,0,0,0,39,12.2c-3.16.67-6.33,1.53-9.4,2.36-2.69.73-3.37.91-4.34,1.16-7.65,2-14.62,3.78-19.28.51-2-1.43-4.06-4.14-4-7.12A6.46,6.46,0,0,1,3.14,5.55,6.87,6.87,0,0,1,9.36,2.93c1.85.2,4.05,1.2,4.5,2.66A3.65,3.65,0,0,1,14,6.84,3.77,3.77,0,0,1,13.71,8c-.14.38-.24.65-.08.82a.44.44,0,0,0,.41.11.35.35,0,0,0,.17-.17c1-2,.79-3.95-.73-5.33A8.87,8.87,0,0,0,3.89,2.6,8.49,8.49,0,0,0,0,10.46c.34,3.82,3.32,6,4.29,6.67a13.62,13.62,0,0,0,8,2.21,19.6,19.6,0,0,0,3.25-.23,111,111,0,0,0,14.54-3.3C33,15,36,14.17,39,13.51l1.11-.24a18.75,18.75,0,0,0,4.56,2.84c2.63,1.11,6.77,2,9.8.9a4.15,4.15,0,0,0,2.62-2.76,2,2,0,0,0-.84-1.91C54.11,10.6,50,10.82,48,10.92a56.38,56.38,0,0,0-7.65,1,12,12,0,0,1-2.19-2.36,6.17,6.17,0,0,0,2.55-1.46,2.48,2.48,0,0,0,.47-2.95,2.08,2.08,0,0,0-2.49-.85c-2.06.55-2.45,2.54-2.15,4.11-3.29.65-6.33-.26-7.09-2.13a3.2,3.2,0,0,1,.16-2.6c.9-1.66,3.21-1.94,4.2-2.06,4.44-.53,10.09,2,15.55,4.4,1.07.48,2.17,1,3.23,1.42,6.36,2.7,12.61,5.05,19.09,4.16,1.8-.25,5.51-1.28,6.7-3.44A3,3,0,0,0,78.44,5.37ZM40.25,6.85a2.43,2.43,0,0,1-1.6,1.22,3.27,3.27,0,0,1-1,.17,2.54,2.54,0,0,1,.06-1.37c.17-.52.72-1.51,1.56-1.52a1.15,1.15,0,0,1,1.07.6A1.14,1.14,0,0,1,40.25,6.85ZM55.71,14.1a1.52,1.52,0,0,1-.8,1.43,6.09,6.09,0,0,1-3.25.75,16,16,0,0,1-10-3.32,38.79,38.79,0,0,1,8.55-.89,13.72,13.72,0,0,1,4.17.63A1.86,1.86,0,0,1,55.71,14.1Z"/><path d="M141.66,8.15c1.18,2.16,4.89,3.19,6.69,3.44,6.48.89,12.73-1.46,19.1-4.16,1.06-.45,2.16-.94,3.23-1.42,5.46-2.42,11.11-4.93,15.55-4.4,1,.12,3.29.4,4.19,2.06a3.12,3.12,0,0,1,.16,2.6c-.76,1.87-3.8,2.78-7.08,2.13.29-1.57-.09-3.56-2.15-4.11a2.1,2.1,0,0,0-2.5.85,2.49,2.49,0,0,0,.47,3,6.15,6.15,0,0,0,2.56,1.46,12.39,12.39,0,0,1-2.2,2.36,56.05,56.05,0,0,0-7.64-1c-2-.1-6.08-.32-8.26,1.42a2,2,0,0,0-.83,1.91A4.15,4.15,0,0,0,165.57,17c3,1.12,7.16.21,9.79-.9a18.38,18.38,0,0,0,4.56-2.84l1.11.24c3,.66,6,1.49,8.94,2.3a110.62,110.62,0,0,0,14.54,3.3,19.6,19.6,0,0,0,3.25.23,13.64,13.64,0,0,0,8-2.21c1-.7,3.94-2.85,4.28-6.67a8.5,8.5,0,0,0-3.85-7.86,8.87,8.87,0,0,0-9.59.84c-1.53,1.38-1.79,3.28-.74,5.33a.33.33,0,0,0,.18.17.43.43,0,0,0,.4-.11c.17-.17.06-.44-.08-.82A4.42,4.42,0,0,1,206,6.84a3.84,3.84,0,0,1,.17-1.25c.44-1.46,2.65-2.46,4.5-2.66a6.85,6.85,0,0,1,6.21,2.62,6.41,6.41,0,0,1,1.19,3.56c.08,3-2,5.69-4,7.12-4.65,3.27-11.63,1.47-19.27-.51-1-.25-1.66-.43-4.35-1.16-3.07-.83-6.24-1.69-9.4-2.36a17.23,17.23,0,0,0,1.41-1.57,4,4,0,0,0,.49-.78c3.14.66,7.47.19,9.38-2A3.94,3.94,0,0,0,193,3.68C191.08-1.54,181.92.2,180.1.6a33.51,33.51,0,0,0-7.29,2.87l-.39.19c-3.27,1.59-6.57,3-9.08,4.06a35,35,0,0,1-9.28,2.54,19.6,19.6,0,0,1-6.65-.18c-1.48-.33-3.12-.82-4-2a2,2,0,0,1-.31-2.33,1.91,1.91,0,0,1,1.88-.9,1.75,1.75,0,0,1,1.39,1.57.69.69,0,0,0,.5.55,1,1,0,0,0,.91-.25.7.7,0,0,0,.15-.73,3.78,3.78,0,0,0-3.32-2.59,3,3,0,0,0-3,1.94A3,3,0,0,0,141.66,8.15ZM179.75,6a1.16,1.16,0,0,1,1.05-.6c.86,0,1.41,1,1.59,1.52a2.64,2.64,0,0,1,.06,1.37,3.29,3.29,0,0,1-1-.17,2.47,2.47,0,0,1-1.6-1.22A1.18,1.18,0,0,1,179.75,6ZM165.69,12.7a13.65,13.65,0,0,1,4.16-.63,39,39,0,0,1,8.56.89,16,16,0,0,1-10,3.32,6.05,6.05,0,0,1-3.24-.75,1.48,1.48,0,0,1-.8-1.43A1.86,1.86,0,0,1,165.69,12.7Z"/></g></g></svg>