<svg xmlns="http://www.w3.org/2000/svg" viewBox="0 0 212.8 20.21">
  <g data-name="Layer 2">
    <path d="M210.56 5c-5-6-15.86-4.8-18.13-4.54A32.4 32.4 0 0 0 177.87 6a18 18 0 0 0-5.94-2.72 20.55 20.55 0 0 0-14.32 1.62 15.52 15.52 0 0 0-4.88.14c-8 1.54-15.39 5.64-23.27 7.8C125.32 14 116 16 114 10.89a6.16 6.16 0 0 1-.33-1.33c.89-.27 1.73-.59 2.5-.91 2.52-1.07 7.44-3.93 5-7.33a3.13 3.13 0 0 0-1.4-1.18c-1.88-.68-4.42 1.25-5.65 2.73a9 9 0 0 0-2 5 16.64 16.64 0 0 1-6 1.16 16.59 16.59 0 0 1-6.21-1.16 8.75 8.75 0 0 0-1.91-5C96.7 1.34 94.17-.54 92.3.14a3.16 3.16 0 0 0-1.45 1.18c-2.41 3.4 2.51 6.26 5 7.33a25.79 25.79 0 0 0 2.5.91 5.65 5.65 0 0 1-.35 1.33C96.09 16 86.76 14 82.61 12.83 74.74 10.67 67.38 6.57 59.34 5a15.33 15.33 0 0 0-4.26-.2 20.55 20.55 0 0 0-14.2-1.56 18 18 0 0 0-6 2.72A32.4 32.4 0 0 0 20.37.46C18.1.2 7.24-1 2.24 5A8.3 8.3 0 0 0 0 10.72a7.3 7.3 0 0 0 2 4.46c2.95 3.1 8.85 3.63 11.18 1 1.63-1.82 1.66-5.35.93-5.72a.56.56 0 0 0-.44 0c-.33.19-.23.82-.23 1.41a5.39 5.39 0 0 1-.84 3 3.56 3.56 0 0 1-1.48 1.12A7 7 0 0 1 6 16.2c-.61-.21-3.61-1.35-4.43-4.27a5.84 5.84 0 0 1-.08-2.75 8.08 8.08 0 0 1 3-4.58C9.64.34 23.36 0 33.42 7.07l.13.09a7.7 7.7 0 0 0-2.38 4.66c-.41 3.66 2.93 7.51 6.74 5.68 4.45-2.14 1.43-7.61-1.08-9.95-.16-.15-.35-.29-.52-.44a17.18 17.18 0 0 1 9-2.79 19.12 19.12 0 0 1 7 1 7.79 7.79 0 0 0-4.56 3.33 6.43 6.43 0 0 0-.9 2.92c-.17 3 2 5.82 4.27 7.22 2.9 1.75 7.17 2 9.78-.26A5.56 5.56 0 0 0 62.66 16c1-3.25-1.65-6.93-4.35-9.11.43.07.86.14 1.3.23a52.58 52.58 0 0 1 8.61 2.48c6.57 2.5 13.56 5.85 20.72 6.08 3.29.1 7.68.12 9.8-2.88a6.35 6.35 0 0 0 1.08-2.87 25 25 0 0 0 6.25.78 24.88 24.88 0 0 0 6.18-.78 6.33 6.33 0 0 0 1.09 2.87c2.12 3 6.51 3 9.79 2.88 7.17-.23 14.16-3.58 20.73-6.08a52.29 52.29 0 0 1 8.61-2.47 20.18 20.18 0 0 1 2.16-.34 9.55 9.55 0 0 0-3.95 4.79c-.36 1-1.27 3.52 0 5.63a4.72 4.72 0 0 0 1.48 1.49c5.24 3.26 13.58-.11 13-7.09-.26-3.28-2.41-5.19-5.09-6.12a19 19 0 0 1 7.35-1.17 17.18 17.18 0 0 1 9 2.79c-.17.15-.36.29-.52.44-2.51 2.34-5.53 7.81-1.08 10 3.81 1.83 7.15-2 6.74-5.68a7.7 7.7 0 0 0-2.38-4.66l.13-.09C189.44 0 203.16.34 208.26 4.6a8.08 8.08 0 0 1 3 4.58 5.7 5.7 0 0 1-.08 2.75c-.82 2.92-3.82 4.06-4.43 4.27a7 7 0 0 1-5.1-.13 3.56 3.56 0 0 1-1.47-1.07 5.39 5.39 0 0 1-.84-3c0-.59.1-1.22-.23-1.41a.56.56 0 0 0-.44 0c-.73.37-.7 3.9.93 5.72 2.33 2.6 8.23 2.07 11.18-1a7.3 7.3 0 0 0 2-4.46A8.3 8.3 0 0 0 210.56 5Zm-95.07-1.67c.28-.31 1.58-1.77 3.08-1.68a1.39 1.39 0 0 1 1 .37 1.56 1.56 0 0 1 .32 1.25c-.07.39-.34 1.1-3.18 2.54a29.8 29.8 0 0 1-2.82 1.24 6.84 6.84 0 0 1 1.6-3.72ZM95.4 5.81c-2.85-1.44-3.12-2.15-3.18-2.54A1.58 1.58 0 0 1 92.53 2a1.41 1.41 0 0 1 1-.37C95 1.56 96.31 3 96.59 3.33a6.92 6.92 0 0 1 1.63 3.72 28.68 28.68 0 0 1-2.82-1.24Zm-58 4.7c.77 1.28 1.68 3.86.38 5.2a2.74 2.74 0 0 1-2.72.64c-1.44-.47-1.84-2.13-2-2.72a5.19 5.19 0 0 1 .59-3.7A5.88 5.88 0 0 1 35 8.25a6.42 6.42 0 0 1 2.35 2.26ZM60 16.4c-1.74 2.22-5.66 1.69-7.85.31A6.05 6.05 0 0 1 50 14.19c-1.39-2.84.24-5.31 2.77-6.67a6.89 6.89 0 0 1 2.67-.76 7.7 7.7 0 0 1 4.73 4.16c.16.38 1.45 3.44-.17 5.48Zm99.89.31c-2 1.38-5.49 1.83-7.14-.07s-.44-5-.13-5.75a7.77 7.77 0 0 1 4.59-4.05 6.53 6.53 0 0 1 2.07.68c.46.25 3 1.6 3.27 4.21.33 2.9-2.4 4.81-2.64 4.98Zm19.87-3.08c-.15.59-.55 2.25-2 2.72a2.74 2.74 0 0 1-2.72-.64c-1.3-1.34-.39-3.92.38-5.2a6.42 6.42 0 0 1 2.37-2.26 5.88 5.88 0 0 1 1.37 1.68 5.19 5.19 0 0 1 .62 3.7Z" data-name="—ëîé_1"/>
  </g>
</svg>