<svg xmlns="http://www.w3.org/2000/svg" viewBox="0 0 157.12 19.22"><g id="Layer_2" data-name="Layer 2"><g id="_ëîé_1" data-name="—ëîé_1"><path d="M157,9.23a4,4,0,0,0-.84-1.68c-2.21-2.74-7-3.31-10.5-2.45A12.83,12.83,0,0,0,141,7.35a10.79,10.79,0,0,0-1.42-1.18A21.14,21.14,0,0,0,131.12,3c-.42-.07-.89-.13-1.42-.19a16.14,16.14,0,0,0-7.26-2.6c-7.22-1.13-14.58,2-20.9,4.92-1.59.75-3.18,1.6-4.72,2.42a51,51,0,0,1-9.44,4.28A8.22,8.22,0,0,1,82,12a3.12,3.12,0,0,1-2.2-2.57,3.22,3.22,0,0,1,1.32-3,3.21,3.21,0,0,1,3.44,0,.36.36,0,0,0,.5-.14.38.38,0,0,0-.13-.51,4.77,4.77,0,0,0-3.76-.65A3.51,3.51,0,0,0,78.9,7.05a4.49,4.49,0,0,0,1.28,5.55c4.09,3,9.67.28,13-1.36,1.36-.67,2.71-1.37,4.15-2.11,8.12-4.2,17.32-9,26.55-6.91.55.12,1.07.26,1.56.41-3.85.08-10.09.94-13.76,5.31-1.86,2.22-3.07,5.81-1.32,8.47a7,7,0,0,0,5.8,2.81,6.71,6.71,0,0,0,3.13-.73,7.48,7.48,0,0,0,2.8-2.79l.12,0c1.74.27,6.09.59,8.67-2.26a7.29,7.29,0,0,0,.37-9.08A20.62,20.62,0,0,1,138.3,7a12.48,12.48,0,0,1,1.64,1.21,6.62,6.62,0,0,0-.73.91c-.48.72-1.49,2.56-.47,3.87a2.49,2.49,0,0,0,1.73.9,2.54,2.54,0,0,0,1.92-.53c1.84-1.56.53-3.79-.49-5a12.14,12.14,0,0,1,6.62-2.45c3.28-.17,5.75.65,6.95,2.29a3.18,3.18,0,0,1,.7,1.78c.07,1.95-2.09,3.42-2.11,3.43l-.13.08a.71.71,0,0,1-.14.1l-.18.1c-.14.08-.23.12-.26.25a.41.41,0,0,0,.15.42.62.62,0,0,0,.53.1,5.37,5.37,0,0,0,2.23-2A4.23,4.23,0,0,0,157,9.23ZM139.66,12c-.35-1.19.85-2.45,1.2-2.78,1.17,1.27,1.34,2.56.89,3.15a1.37,1.37,0,0,1-1.48.46A1.2,1.2,0,0,1,139.66,12Zm-21.08-1a2.48,2.48,0,0,1,1.13-.29,1.75,1.75,0,0,1,.78.18,2.37,2.37,0,0,1,.89,3.11,5,5,0,0,1-2.38-.88c-.48-.33-1.21-.84-1.15-1.33A1.24,1.24,0,0,1,118.58,11Zm-2,1.45c.38,1.66,2.4,2.52,4.09,2.95a3.51,3.51,0,0,1-.65.82,5.69,5.69,0,0,1-4.7,1,5.37,5.37,0,0,1-3.91-2.48,5,5,0,0,1,.17-4.31c2.16-5.21,9.75-6.63,13.89-6.64h0A19.42,19.42,0,0,1,128.4,4a5.82,5.82,0,0,1,2.2,2.66,5.42,5.42,0,0,1-.24,4.63,5.89,5.89,0,0,1-4.05,2.87,11.24,11.24,0,0,1-3.58.1,3.76,3.76,0,0,0-.42-3.35,4,4,0,0,0-4.48-1A2.12,2.12,0,0,0,116.61,12.47Z"/><path d="M78.22,7.05A3.51,3.51,0,0,0,76,5.14a4.77,4.77,0,0,0-3.76.65.37.37,0,0,0-.13.51.35.35,0,0,0,.5.14A3.21,3.21,0,0,1,76,6.4a3.22,3.22,0,0,1,1.32,3A3.12,3.12,0,0,1,75.12,12a8.22,8.22,0,0,1-5.38-.1,52.1,52.1,0,0,1-9.45-4.28c-1.53-.82-3.12-1.67-4.71-2.42-6.32-3-13.68-6-20.91-4.92a16.14,16.14,0,0,0-7.25,2.6c-.53.06-1,.12-1.42.19a21.14,21.14,0,0,0-8.44,3.14,10.79,10.79,0,0,0-1.42,1.18A12.83,12.83,0,0,0,11.42,5.1C7.88,4.24,3.13,4.81.92,7.55A4,4,0,0,0,.08,9.23a4.23,4.23,0,0,0,.78,3.25,5.37,5.37,0,0,0,2.23,2,.62.62,0,0,0,.53-.1.43.43,0,0,0,.15-.42c0-.13-.12-.17-.26-.25l-.18-.1a.71.71,0,0,1-.14-.1l-.13-.08S.88,11.92,1,10a3.18,3.18,0,0,1,.7-1.78c1.2-1.64,3.66-2.46,7-2.29a12.14,12.14,0,0,1,6.62,2.45c-1,1.25-2.33,3.48-.49,5a2.54,2.54,0,0,0,1.92.53,2.49,2.49,0,0,0,1.73-.9c1-1.31,0-3.15-.47-3.87a6.62,6.62,0,0,0-.73-.91A12.48,12.48,0,0,1,18.82,7a20.45,20.45,0,0,1,7-2.65,7.31,7.31,0,0,0,.39,9.07c2.58,2.85,6.92,2.53,8.67,2.26l.12,0a7.48,7.48,0,0,0,2.8,2.79,6.68,6.68,0,0,0,3.13.73,7,7,0,0,0,5.8-2.81c1.74-2.66.54-6.25-1.32-8.47-3.67-4.37-9.91-5.23-13.76-5.31.49-.15,1-.29,1.56-.41C42.46.17,51.67,4.93,59.79,9.13c1.44.74,2.79,1.44,4.15,2.11,3.33,1.64,8.91,4.39,13,1.36A4.49,4.49,0,0,0,78.22,7.05ZM36.63,10.91a2.15,2.15,0,0,1,1.91.11,1.24,1.24,0,0,1,.73.79c.06.49-.67,1-1.15,1.34a5.11,5.11,0,0,1-2.38.87A2.37,2.37,0,0,1,36.63,10.91Zm3.88,1.56a2.12,2.12,0,0,0-1.22-2.61,4,4,0,0,0-4.48,1,3.76,3.76,0,0,0-.42,3.35,11.24,11.24,0,0,1-3.58-.1,5.89,5.89,0,0,1-4-2.87,5.42,5.42,0,0,1-.24-4.63A5.82,5.82,0,0,1,28.72,4a19.42,19.42,0,0,1,2.85-.21h.05c4.14,0,11.73,1.43,13.89,6.64a5,5,0,0,1,.17,4.31,5.37,5.37,0,0,1-3.91,2.48,5.69,5.69,0,0,1-4.7-1,3.51,3.51,0,0,1-.65-.82C38.11,15,40.13,14.13,40.51,12.47ZM17.58,12l-.12,0a1.18,1.18,0,0,1-.62.83,1.36,1.36,0,0,1-1.47-.46c-.45-.59-.28-1.88.89-3.15.35.33,1.55,1.59,1.2,2.78Z"/></g></g></svg>