<svg xmlns="http://www.w3.org/2000/svg" viewBox="0 0 111.25 19.18"><g id="Layer_2" data-name="Layer 2"><g id="_ëîé_1" data-name="—ëîé_1"><path d="M.35,10.17a5.12,5.12,0,0,0,4.19,3.19A5,5,0,0,0,9.69,9.79c.18-1.11-.26-2.65-.77-2.72a.4.4,0,0,0-.37.17c-.15.23.09.6.21.89a3.07,3.07,0,0,1,0,1.93,3.18,3.18,0,0,1-2.27,2,3.85,3.85,0,0,1-4-1.76c-1.14-2.1.4-6,2.93-7.25C10.27.74,16.14,1.46,20.7,4.13a15.19,15.19,0,0,1,5.9,6.09,13.13,13.13,0,0,0-3,1.08c-2.29,1.17-4.52,3.73-2.71,6.32,2.36,3.37,6.31.65,7.16-2.32a8.55,8.55,0,0,0,.26-3.7c1.21-.22,2.43-.36,3.55-.52A33,33,0,0,0,37.36,10,12.15,12.15,0,0,0,43.7,16.1c3.65,1.55,8.69,1.68,11.93-.93,3.23,2.61,8.27,2.48,11.92.93A12.15,12.15,0,0,0,73.89,10a33,33,0,0,0,5.46,1.06c1.12.16,2.34.3,3.55.52a8.55,8.55,0,0,0,.26,3.7c.85,3,4.8,5.69,7.16,2.32,1.81-2.59-.42-5.15-2.71-6.32a13.13,13.13,0,0,0-3-1.08,15.26,15.26,0,0,1,5.9-6.09C95.11,1.46,101,.74,105.85,3c2.53,1.2,4.07,5.15,2.93,7.25a3.85,3.85,0,0,1-4,1.76,3.16,3.16,0,0,1-2.27-2,3.07,3.07,0,0,1,0-1.93c.13-.29.37-.66.21-.89a.39.39,0,0,0-.37-.17c-.5.07-1,1.61-.77,2.72a5,5,0,0,0,5.15,3.57,5.11,5.11,0,0,0,4.19-3.19c1.08-2.67-.67-5.27-1.05-5.83C107,.17,101,.07,99.12.12a19.84,19.84,0,0,0-12.39,5,11.73,11.73,0,0,0-3.42,4.84c-2.94-.54-6-.63-8.82-1.59a9.59,9.59,0,0,0,.21-1C75.18,4.54,74.46.19,70.83,0S67,4,68.49,6.32a8.4,8.4,0,0,0,3.69,3,10.61,10.61,0,0,1-4.65,5,11.89,11.89,0,0,1-9.31,1,6.23,6.23,0,0,1-1.78-1,5.85,5.85,0,0,0,1.37-3.78c0-1.05-.45-3.14-1.75-3.53a1.59,1.59,0,0,0-.87,0c-1.3.39-1.71,2.48-1.75,3.53a5.85,5.85,0,0,0,1.37,3.78,6.23,6.23,0,0,1-1.78,1,11.89,11.89,0,0,1-9.31-1,10.61,10.61,0,0,1-4.65-5,8.35,8.35,0,0,0,3.69-3C44.28,4,44-.18,40.42,0s-4.35,4.53-3.87,7.37a9.59,9.59,0,0,0,.21,1c-2.77,1-5.87,1.05-8.82,1.59a11.73,11.73,0,0,0-3.42-4.84,19.84,19.84,0,0,0-12.39-5C10.28.07,4.21.17,1.4,4.34,1,4.9-.73,7.5.35,10.17Zm83.76,1.7a9.65,9.65,0,0,1,4,1.88c2.67,2.3-1.11,5.28-3,2.53A5.53,5.53,0,0,1,84.11,11.87ZM71.66,6.92a4.6,4.6,0,0,1-2.08-2.78C69.29,2.37,71.16,1.08,72.4,3c.81,1.24.69,3.23.38,4.61A12.85,12.85,0,0,1,71.66,6.92Zm-16,.78c.56,0,1,1.18,1.17,2a5.26,5.26,0,0,1-1.17,3.93,5.21,5.21,0,0,1-1.18-3.93C54.6,8.88,55.06,7.7,55.63,7.7ZM38.85,3c1.24-1.91,3.11-.62,2.82,1.15a4.6,4.6,0,0,1-2.08,2.78,12.85,12.85,0,0,1-1.12.68C38.16,6.22,38,4.23,38.85,3ZM26.19,16.28c-1.92,2.75-5.7-.23-3-2.53a9.55,9.55,0,0,1,4-1.88A5.53,5.53,0,0,1,26.19,16.28Z"/></g></g></svg>