<svg xmlns="http://www.w3.org/2000/svg" viewBox="0 0 212.77 21.42"><g id="Layer_2" data-name="Layer 2"><g id="_ëîé_1" data-name="—ëîé_1"><path d="M106.35,9.54c-1.9-7.5-12.92-5-17.07-4C84.1,6.7,79.16,8.89,74.38,11c-2.12.94-4.3,1.9-6.48,2.77-.08,0-8.35,4.1-14.88,4.13H53a7.6,7.6,0,0,1-5.43-1.8,3.29,3.29,0,0,1-1.17-2c-.2-1.7,1.54-3.3,2.77-4a9.56,9.56,0,0,1,6.59-.5c.33.17.58.19.75.07a.44.44,0,0,0,.16-.4c0-.06,0-.24-.63-.46-1.56-.58-5.91-1-8.67,1.41-.84.74-2.23,2.27-2,4.1a4,4,0,0,0,1.12,2.23,9.32,9.32,0,0,0,7,2.72,14.84,14.84,0,0,0,2.6-.23c6.51-1.1,12.59-3.83,18.47-6.47,6.76-3,13.74-6.18,21.38-6.83,2.51-.22,5.91-.13,7.88,1.54a4.53,4.53,0,0,1,1.59,3.25,3.9,3.9,0,0,1-1.22,3.15,5.17,5.17,0,0,1-4.07,1.38,5.93,5.93,0,0,1-4-2.44.39.39,0,0,0-.55-.09.41.41,0,0,0-.11.57,6.15,6.15,0,0,0,10.33.14A4.78,4.78,0,0,0,106.35,9.54Z"/><path d="M165.43,10.3c-2.75-2.43-7.1-2-8.66-1.4-.6.22-.62.4-.63.46a.45.45,0,0,0,.17.4c.24.18.62,0,.75-.08a9.64,9.64,0,0,1,6.59.51c1.22.66,3,2.26,2.77,4a3.35,3.35,0,0,1-1.18,2,7.6,7.6,0,0,1-5.43,1.8h-.06c-6.52,0-14.8-4.09-14.89-4.13-2.17-.87-4.35-1.83-6.46-2.77a83.39,83.39,0,0,0-14.91-5.48c-4.15-.95-15.17-3.48-17.07,4a4.8,4.8,0,0,0,.57,3.8,6.16,6.16,0,0,0,10.34-.15.41.41,0,0,0-.12-.57.39.39,0,0,0-.55.09,5.91,5.91,0,0,1-4,2.44,5.16,5.16,0,0,1-4.07-1.38,3.88,3.88,0,0,1-1.23-3.15A4.56,4.56,0,0,1,109,7.37c2-1.67,5.37-1.76,7.88-1.54,7.64.65,14.63,3.79,21.38,6.83,5.88,2.64,12,5.37,18.47,6.47a15,15,0,0,0,2.61.23,9.31,9.31,0,0,0,7-2.72,3.9,3.9,0,0,0,1.12-2.23C167.67,12.58,166.29,11.05,165.43,10.3Z"/><path d="M212.28,9A6.07,6.07,0,0,0,208,6.11a6.14,6.14,0,0,0-5.09,1c-1.4,1.17-2.33,3.57-1.5,5a2.37,2.37,0,0,0,2.12,1.26c.29,0,.86-.22.92-.6a.56.56,0,0,0-.15-.44.69.69,0,0,0-.66-.21,1.53,1.53,0,0,1-.93-.59c-.6-.93.25-2.76,1.35-3.55a4.41,4.41,0,0,1,3.71-.41,4.81,4.81,0,0,1,3.16,2.47,4.15,4.15,0,0,1-.24,3.25c-1.13,2.51-4.28,4.58-8.63,5.67-5.23,1.33-13.34,1.35-19-2.92-.38-.29-.76-.61-1.11-.93a5.83,5.83,0,0,0,2.92-3.32,3.15,3.15,0,0,0-4.9-3.6c-2.07,1.43-2.33,3.68-.71,6.21a25.29,25.29,0,0,1-6.69,1.35c-4.56.33-9.47-.42-15.44-2.36A122.36,122.36,0,0,1,143.93,8a109.32,109.32,0,0,0-15-6C121.35-.27,111.31-1.69,106.39,4c-4.93-5.68-15-4.26-22.55-2.05a108.31,108.31,0,0,0-15,6A122.52,122.52,0,0,1,55.6,13.44c-6,1.94-10.88,2.7-15.44,2.36a25.22,25.22,0,0,1-6.68-1.35c1.61-2.53,1.36-4.78-.72-6.21a3.25,3.25,0,0,0-3.8-.1,3.28,3.28,0,0,0-1.1,3.7,5.83,5.83,0,0,0,2.92,3.32,14.37,14.37,0,0,1-1.11.93C24,20.36,15.94,20.34,10.7,19c-4.35-1.09-7.49-3.16-8.63-5.67a4.19,4.19,0,0,1-.24-3.25A4.8,4.8,0,0,1,5,7.62,4.42,4.42,0,0,1,8.71,8c1.1.79,1.95,2.62,1.34,3.55a1.5,1.5,0,0,1-.93.59.71.71,0,0,0-.65.2.64.64,0,0,0-.16.45c.06.38.63.56.92.6a2.37,2.37,0,0,0,2.12-1.26c.84-1.45-.1-3.84-1.49-5a6.17,6.17,0,0,0-5.1-1A6.09,6.09,0,0,0,.49,9a5.37,5.37,0,0,0-.27,3.77A8.43,8.43,0,0,0,3.7,17.38c3.09,2.28,8.43,4,14,4a21.12,21.12,0,0,0,12.75-3.91,18,18,0,0,0,1.88-1.62,28.23,28.23,0,0,0,8.43,1.56C48.48,17.87,56,15.26,61,13.26c3-1.19,5.92-2.55,8.77-3.87,3.88-1.79,7.89-3.65,12-5.09,11.49-4,19.63-3.79,24.18.7a.79.79,0,0,0,.27.13.77.77,0,0,0,.37,0,.67.67,0,0,0,.28-.14C111.5.62,119.53.28,131,4.3c4.11,1.44,8.12,3.29,12,5.09,2.85,1.32,5.8,2.68,8.77,3.87,5,2,12.5,4.6,20.22,4.19a28.22,28.22,0,0,0,8.42-1.56,17.18,17.18,0,0,0,1.89,1.62c8.49,6.36,21.21,4,26.75-.13a8.47,8.47,0,0,0,3.49-4.68A5.39,5.39,0,0,0,212.28,9Zm-30.53,4.53a3.08,3.08,0,0,1-.95.34,1.43,1.43,0,0,1-.15-.18c-.23-.31-1.34-1.9-.66-3.2a2.19,2.19,0,0,1,1.85-1.18H182a2,2,0,0,1,1.4.81C184,11.12,183,12.79,181.75,13.48Zm-149.63.16-.14.18a3.08,3.08,0,0,1-.95-.34c-1.21-.69-2.22-2.36-1.64-3.4a1.92,1.92,0,0,1,1.4-.81h.15a2.2,2.2,0,0,1,1.85,1.18C33.46,11.74,32.35,13.33,32.12,13.64Z"/></g></g></svg>