<svg xmlns="http://www.w3.org/2000/svg" viewBox="0 0 157.54 17.51">
  <g data-name="Layer 2">
    <path d="M157.52 11.16a8.38 8.38 0 0 0-3.86-6.23 12.77 12.77 0 0 0-10.36-1.27c-.91.25-1.8.58-2.67.89a27 27 0 0 1-4.28 1.26 12.47 12.47 0 0 1-5.35-.28 5.73 5.73 0 0 0-.92-3.53A4.2 4.2 0 0 0 127.5.06a2.79 2.79 0 0 0-2.26.43 2.52 2.52 0 0 0-.93 1.4c-.28 1.4 1.73 3.3 5 4.74a6.74 6.74 0 0 1-5 4.12c-5.86 1.49-11.91-1.21-16.32-3.18-5.31-2.38-10.8-4.84-16.53-2.18a10.38 10.38 0 0 0-3 2.06 24.74 24.74 0 0 0-19.26 0 10.25 10.25 0 0 0-3-2.06c-5.72-2.65-11.22-.2-16.53 2.18-4.41 2-10.46 4.67-16.32 3.18a6.74 6.74 0 0 1-5-4.12c3.28-1.44 5.29-3.34 5-4.74a2.55 2.55 0 0 0-.92-1.4 2.82 2.82 0 0 0-2.38-.43A4.19 4.19 0 0 0 27.46 2a5.73 5.73 0 0 0-.92 3.55 12.63 12.63 0 0 1-5.35.28 27 27 0 0 1-4.28-1.26c-.86-.31-1.76-.64-2.67-.89A12.77 12.77 0 0 0 3.88 4.93 8.38 8.38 0 0 0 0 11.16a5.75 5.75 0 0 0 2.05 5A5.86 5.86 0 0 0 6 17.51a7.85 7.85 0 0 0 2-.25 4.32 4.32 0 0 0 2.72-1.75 2.32 2.32 0 0 0 .11-1.92.43.43 0 0 0-.56-.29.42.42 0 0 0-.3.53 1.54 1.54 0 0 1-.2 1.32 4.4 4.4 0 0 1-3.14 1.25 4.35 4.35 0 0 1-4.2-1.91 5.84 5.84 0 0 1 .66-6.91C5.8 4.66 10.2 4.13 13.36 4.9A35.19 35.19 0 0 1 17 6.11C19.5 7 22 8 24.84 7.6a12.42 12.42 0 0 0 2-.45 7.37 7.37 0 0 0 2.09 3.5C31.83 13.37 36.51 13.3 39 13c4-.44 7.56-2.07 11-3.65 1.5-.62 3-1.29 4.43-1.86 3-1.16 6.39-2.32 9.81-1.39a9.8 9.8 0 0 1 3.82 2c-1.36.9-3.42 2.26-3.55 4a2.12 2.12 0 0 0 .78 1.9 2.93 2.93 0 0 0 2.6.45 3.89 3.89 0 0 0 2.66-4.29 4.22 4.22 0 0 0-.62-1.65 23.29 23.29 0 0 1 17.68 0 4.22 4.22 0 0 0-.61 1.6 3.89 3.89 0 0 0 2.66 4.29 2.93 2.93 0 0 0 2.6-.45 2.12 2.12 0 0 0 .74-1.83c-.13-1.76-2.18-3.12-3.54-4a9.66 9.66 0 0 1 3.82-2c3.41-.92 6.85.23 9.8 1.39 1.47.57 2.94 1.24 4.35 1.88C111 11 114.55 12.58 118.51 13c2.53.28 7.2.35 10.14-2.37a7.47 7.47 0 0 0 2.1-3.5 12.08 12.08 0 0 0 1.95.45c2.81.38 5.35-.57 7.8-1.49a36 36 0 0 1 3.68-1.21c3.16-.77 7.56-.24 10.27 2.68a5.84 5.84 0 0 1 .66 6.91 4.34 4.34 0 0 1-4.2 1.91 4.4 4.4 0 0 1-3.06-1.25 1.54 1.54 0 0 1-.2-1.32.42.42 0 0 0-.3-.53.43.43 0 0 0-.56.29 2.28 2.28 0 0 0 .12 1.92 4.28 4.28 0 0 0 2.71 1.75 7.9 7.9 0 0 0 1.95.25 5.86 5.86 0 0 0 3.9-1.36 5.75 5.75 0 0 0 2.05-4.97Zm-27.91-6.25v.16a11.08 11.08 0 0 1-2-1.06 4.49 4.49 0 0 1-1.42-1.29 1.16 1.16 0 0 1-.2-.61 1 1 0 0 1 1-.9 2.57 2.57 0 0 1 1.52.62 3.75 3.75 0 0 1 1.1 3.08ZM91.42 13c-.49.57-1.69.16-1.7.16A2.47 2.47 0 0 1 88.43 12a2.83 2.83 0 0 1 .24-3c.76.37 2.79 1.49 3 3a1.22 1.22 0 0 1-.25 1Zm-25.5-1c.16-1.52 2.19-2.64 3-3a2.83 2.83 0 0 1 .24 3 2.63 2.63 0 0 1-1.28 1.07s-1.22.41-1.71-.16a1.22 1.22 0 0 1-.25-.91ZM31.39 2.72A4.56 4.56 0 0 1 30 4a11.51 11.51 0 0 1-2 1.06V4.9a3.79 3.79 0 0 1 1-3.07 2.57 2.57 0 0 1 1.52-.62 1.12 1.12 0 0 1 .55.14 1.05 1.05 0 0 1 .49.76 1.16 1.16 0 0 1-.17.61Z" data-name="—ëîé_1"/>
  </g>
</svg>