<svg xmlns="http://www.w3.org/2000/svg" viewBox="0 0 212.96 26.18"><g id="Layer_2" data-name="Layer 2"><g id="_ëîé_1" data-name="—ëîé_1"><path d="M181.42,7.75c-1.17-1.08-4.74-4.34-16.08-3.28-7.26.67-14.3,3-21.12,5.32-2.07.7-4.21,1.42-6.32,2.07-5.72,1.79-11.88,3.62-18.09,4.95a14.86,14.86,0,0,1-8-.1c-1-.37-3.5-1.42-3.89-3.3a3,3,0,0,1,1.08-3,3.55,3.55,0,0,1,3.61-.53.51.51,0,0,0,.67-.25.43.43,0,0,0-.2-.59,4.63,4.63,0,0,0-4.34,0,4.34,4.34,0,0,0-2.28,3.41c-.36,3.22,2.83,5.44,6.15,6.21,3.5.81,7,0,10.37-.84l.19,0c4.81-1.16,9.43-2.51,13.31-3.69,2.39-.72,4.8-1.53,7.14-2.3A134.34,134.34,0,0,1,158.1,7.54c4.32-.92,10.72-2,16.47-1,4,.73,8.32,3.69,8.56,8.43a7.48,7.48,0,0,1-2.81,6.2,7.24,7.24,0,0,1-6.56,1.35A7,7,0,0,1,170,19.93a9,9,0,0,1-.71-1.08,5,5,0,0,0,1.11-1.1,2,2,0,0,0,.41-1.81,1.66,1.66,0,0,0-1.49-1.11,1.73,1.73,0,0,0-1.21.61,2.61,2.61,0,0,0-.69,1.67,3.3,3.3,0,0,0,.15,1.39,7.88,7.88,0,0,1-2.54.43,7,7,0,0,1-2.52-.42,10.07,10.07,0,0,1-1.95-1c-.61-.38-1-.61-1.2-.41a.58.58,0,0,0-.16.44.57.57,0,0,0,.19.38A8.81,8.81,0,0,0,168,19.57c.4.71,2.9,4.77,7.5,5.12.21,0,.43,0,.64,0A9.69,9.69,0,0,0,185.24,17C186.05,12.4,182.52,8.76,181.42,7.75ZM169.2,17.57a2.71,2.71,0,0,1-.37.21,1.64,1.64,0,0,1-.14-.84c0-.36.23-1,.62-1.07h.11a.73.73,0,0,1,.24.05.58.58,0,0,1,.32.35C170.13,16.68,169.61,17.28,169.2,17.57Z"/><path d="M106.7,12.42A4.34,4.34,0,0,0,104.42,9a4.63,4.63,0,0,0-4.34,0,.43.43,0,0,0-.2.59.51.51,0,0,0,.67.25,3.55,3.55,0,0,1,3.61.53,3,3,0,0,1,1.08,3c-.39,1.88-2.85,2.93-3.89,3.3a14.86,14.86,0,0,1-8,.1C87.18,15.48,81,13.65,75.3,11.86c-2.11-.65-4.25-1.37-6.32-2.07C62.17,7.51,55.12,5.14,47.86,4.47,36.52,3.41,33,6.67,31.78,7.75S27.15,12.4,28,17a9.67,9.67,0,0,0,9.13,7.74c.21,0,.43,0,.64,0,4.6-.35,7.1-4.41,7.5-5.12a8.82,8.82,0,0,0,8.58-1.66.57.57,0,0,0,.19-.38.58.58,0,0,0-.16-.44c-.21-.2-.59,0-1.2.41a9.79,9.79,0,0,1-1.95,1,7,7,0,0,1-2.52.42,7.82,7.82,0,0,1-2.53-.43,3.46,3.46,0,0,0,.14-1.39,2.63,2.63,0,0,0-.69-1.67,1.73,1.73,0,0,0-1.2-.61,1.67,1.67,0,0,0-1.5,1.11,2,2,0,0,0,.41,1.81,5,5,0,0,0,1.11,1.1,8.62,8.62,0,0,1-.71,1.08,7,7,0,0,1-3.77,2.64,7.25,7.25,0,0,1-6.56-1.35A7.48,7.48,0,0,1,30.07,15c.24-4.74,4.61-7.7,8.56-8.43,5.75-1.08,12.15,0,16.47,1a134.34,134.34,0,0,1,14.44,4.22c2.34.77,4.76,1.58,7.14,2.3,3.88,1.18,8.5,2.53,13.31,3.69l.19,0c3.38.82,6.87,1.66,10.37.84C103.87,17.86,107.06,15.64,106.7,12.42ZM44,17.57c-.41-.29-.92-.89-.78-1.31a.58.58,0,0,1,.32-.35.58.58,0,0,1,.24-.05h.11c.38.09.59.71.63,1.07a1.76,1.76,0,0,1-.14.84A2.82,2.82,0,0,1,44,17.57Z"/><path d="M212.63,13.39c-4.75-3.23-10.7-1.87-15.42.77-.33.18-.68.4-1.05.62a11.46,11.46,0,0,0-4.92-3,16.34,16.34,0,0,0-2.63-.55l-.06-.38c-1.19-5.68-6.58-8.72-11.82-10C168.56-1.09,160.17.58,152.28,3c-9.08,2.74-18.12,5.89-27,9.21-.48.17-.3.93.21.78,9.12-2.68,18-6,27.17-8.66s21-5.2,29.6.48A12,12,0,0,1,186.53,11c-3.53-.12-7.43.61-9.08,3.14-2.51,3.87,1.83,6.93,5.49,6.09a7.64,7.64,0,0,0,5.77-7.3,12.25,12.25,0,0,1,3.06.81,9.86,9.86,0,0,1,3,2c-2.93,2.17-5.78,5.47-3.37,8.84s6.55.65,7.15-2.7a7.82,7.82,0,0,0-1.35-5.82c4.5-2.81,9.83-4,14.71-1.42A.72.72,0,0,0,212.63,13.39Zm-33.11,4.8a2.86,2.86,0,0,1-.7-3c.68-1.93,3.91-3.06,8.07-2.43A6.21,6.21,0,0,1,185.11,17C183.62,18.39,180.88,19.37,179.52,18.19Zm12.69,3.56a4.05,4.05,0,0,1,.93-2.38A7.53,7.53,0,0,1,195.78,17a6.55,6.55,0,0,1,.83,1.72,5.08,5.08,0,0,1-.07,3.78c-.42.85-1.53,2.29-2.72,2S192.22,22.79,192.21,21.75Z"/><path d="M1.07,14.64c4.87-2.56,10.2-1.39,14.7,1.42a7.77,7.77,0,0,0-1.34,5.82c.59,3.35,4.65,6.19,7.15,2.7s-.45-6.67-3.38-8.84a10.11,10.11,0,0,1,3-2A12.25,12.25,0,0,1,24.25,13,7.65,7.65,0,0,0,30,20.25c3.66.84,8-2.22,5.49-6.09C33.86,11.63,30,10.9,26.43,11a12,12,0,0,1,4.28-6.25c8.56-5.68,20.47-3.15,29.6-.48s18,6,27.17,8.66c.51.15.7-.61.22-.78C78.81,8.85,69.77,5.7,60.68,3,52.79.58,44.4-1.09,36.23.85,31,2.09,25.6,5.13,24.42,10.81c0,.13,0,.25-.06.38a16.48,16.48,0,0,0-2.64.55,11.52,11.52,0,0,0-4.92,3c-.36-.22-.72-.44-1.05-.62C11,11.52,5.08,10.16.34,13.39A.72.72,0,0,0,1.07,14.64ZM27.85,17a6.21,6.21,0,0,1-1.78-4.14c4.16-.63,7.39.5,8.07,2.43a2.86,2.86,0,0,1-.7,3C32.08,19.37,29.34,18.39,27.85,17Zm-8.71,7.54c-1.18.26-2.29-1.18-2.71-2a5.08,5.08,0,0,1-.07-3.78A6.28,6.28,0,0,1,17.18,17a7.59,7.59,0,0,1,2.65,2.41,4.11,4.11,0,0,1,.92,2.38C20.74,22.79,20.2,24.26,19.14,24.49Z"/><path d="M137.68,16.71c-10.66,2.42-20.13,6.38-30.9,2.07a.55.55,0,0,0-.6,0c-10.77,4.31-20.24.35-30.89-2.07a.51.51,0,0,0-.27,1c9.5,3.6,21.88,7.32,31.46,2,9.58,5.3,22,1.58,31.47-2A.51.51,0,0,0,137.68,16.71Z"/></g></g></svg>