<svg xmlns="http://www.w3.org/2000/svg" viewBox="0 0 114.69 19.37"><g id="Layer_2" data-name="Layer 2"><g id="_ëîé_1" data-name="—ëîé_1"><path d="M1.09,9.34c3.12,5.06,12.71,4.1,13.65,4,2.19-.25,8.85-1.41,10.22-1.68a13.14,13.14,0,0,1,2.76-.28,12,12,0,0,1,2.12.16c-1,3-.51,5.84,1.19,7.09a3.75,3.75,0,0,0,2.83.67,3.79,3.79,0,0,0,2.81-2.88c.39-2-1.23-4.42-4.15-5.28a12,12,0,0,1,5.83-3.88,20.84,20.84,0,0,1,12.19-.12c2.21.72,4.92,2.18,5.27,4.74.43,3.1-3.13,4.7-5.69,3.55-.6-.28-1.14.6-.53.9,2.77,1.36,6.59.37,7.55-2.81,1.1-3.65-2.38-6.58-5.37-7.79C45.3,3.09,34.19,3.9,30.27,10.58a22.22,22.22,0,0,0-6.61.22c-3.47.52-4.21.72-6.59,1-1.22.14-11.2,1.3-14.38-3.38a5.17,5.17,0,0,1-1-3.57A4.07,4.07,0,0,1,3.4,2,3.62,3.62,0,0,1,6,1.44a3.29,3.29,0,0,1,2.2,1.4A3.46,3.46,0,0,1,8.37,6c-.25.54-.7,1-.52,1.31s.43.16.44.16c.83-.06,1.69-1.9,1.62-3.52A4.27,4.27,0,0,0,8.77,1.12C7-.64,3.17-.27,1.28,1.8S-.18,7.29,1.09,9.34Zm32.2,8.59c-1.34-.25-2-2.35-1.88-3.83a4.6,4.6,0,0,1,.72-2.2,4.49,4.49,0,0,1,2.72,2c.11.2,1.17,2.09.2,3.28A1.93,1.93,0,0,1,33.29,17.93Z"/><path d="M113.41,1.8c-1.89-2.07-5.7-2.44-7.49-.68a4.27,4.27,0,0,0-1.14,2.81c-.07,1.62.79,3.46,1.62,3.52,0,0,.32,0,.44-.16s-.27-.77-.52-1.31a3.46,3.46,0,0,1,.16-3.14,3.29,3.29,0,0,1,2.2-1.4,3.62,3.62,0,0,1,2.61.58A4.07,4.07,0,0,1,113,4.85a5.17,5.17,0,0,1-1,3.57c-3.18,4.68-13.16,3.52-14.38,3.38-2.38-.28-3.12-.48-6.59-1a22.22,22.22,0,0,0-6.61-.22c-3.92-6.68-15-7.49-21.5-4.85-3,1.21-6.47,4.14-5.37,7.79,1,3.18,4.78,4.17,7.55,2.81.61-.3.07-1.18-.53-.9C62,16.58,58.45,15,58.88,11.88c.35-2.56,3.06-4,5.27-4.74a20.84,20.84,0,0,1,12.19.12,12,12,0,0,1,5.83,3.88c-2.92.86-4.54,3.3-4.15,5.28a3.79,3.79,0,0,0,2.81,2.88,3.75,3.75,0,0,0,2.83-.67c1.7-1.25,2.2-4.11,1.19-7.09A12,12,0,0,1,87,11.38a13.14,13.14,0,0,1,2.76.28c1.37.27,8,1.43,10.22,1.68.94.1,10.53,1.06,13.65-4C114.87,7.29,115.3,3.89,113.41,1.8ZM79.64,17.22c-1-1.19.09-3.08.2-3.28a4.49,4.49,0,0,1,2.72-2,4.6,4.6,0,0,1,.72,2.2c.09,1.48-.54,3.58-1.88,3.83A1.93,1.93,0,0,1,79.64,17.22Z"/></g></g></svg>