<svg xmlns="http://www.w3.org/2000/svg" viewBox="0 0 114.7 19.04"><g id="Layer_2" data-name="Layer 2"><g id="_ëîé_1" data-name="—ëîé_1"><path d="M108.17,1C100-1.85,91.91,3.42,85.27,8.17,78.64,4,72.14-.5,64,.05A15.4,15.4,0,0,0,57.35,2,15.4,15.4,0,0,0,50.67.05C42.56-.5,36.06,4,29.43,8.17,22.79,3.42,14.68-1.85,6.53,1,3.3,2.18.09,5.15,0,8.8s3.88,6.06,7,7c7.88,2.46,15.44-1.28,22.1-5.39,1.16.81,2.32,1.63,3.51,2.42.63.41,1.33.86,2.07,1.29a20.7,20.7,0,0,0-4.9,4.11.46.46,0,0,0,.35.77.56.56,0,0,0,.29-.13,43.83,43.83,0,0,1,3.85-3.25,6.64,6.64,0,0,1,1.59-.83c1.26.86,5.24,3.09,9.18,2.06,4.19-1.09,2.35-5.77-1.45-5.61a18.18,18.18,0,0,0-7,1.83c-1.48-.88-2.91-1.85-4.3-2.84L31,9.28l1.36-.87C37.47,5.1,43.1,1.79,49.4,1.58A13.49,13.49,0,0,1,56,2.91a7.73,7.73,0,0,0-2.24,3c-1.33,3.16.78,7.49,3.14,8a2.25,2.25,0,0,0,.82,0c2.36-.46,4.47-4.79,3.14-7.95a7.73,7.73,0,0,0-2.24-3A13.47,13.47,0,0,1,65.3,1.58c6.3.21,11.93,3.52,17.08,6.83l1.36.87-1.38,1c-1.39,1-2.82,2-4.3,2.84a18.18,18.18,0,0,0-7-1.83c-3.8-.16-5.64,4.52-1.45,5.61,3.94,1,7.92-1.2,9.18-2.06a6.64,6.64,0,0,1,1.59.83,43.83,43.83,0,0,1,3.85,3.25.56.56,0,0,0,.29.13.46.46,0,0,0,.35-.77A20.7,20.7,0,0,0,80,14.16c.74-.43,1.44-.88,2.06-1.29,1.2-.79,2.36-1.61,3.52-2.42,6.66,4.11,14.22,7.85,22.1,5.39,3.12-1,7.09-3.3,7-7S111.4,2.18,108.17,1ZM18.92,13.5a21.05,21.05,0,0,1-7.63,1.06C8.37,14.39,4,13.28,2.55,10.42.8,7,5,3.77,7.78,3c3.38-1,7-.13,10.19,1a41.86,41.86,0,0,1,9.55,5.32A42,42,0,0,1,18.92,13.5ZM41,12.59c.8-.15,3.54-.67,4.52.63a1.24,1.24,0,0,1,.29.8c0,.67-.79,1.29-1.9,1.58a7.51,7.51,0,0,1-2.11-.28A15.08,15.08,0,0,1,38.16,14l-.3-.17A10,10,0,0,1,41,12.59ZM58,4.31a5.83,5.83,0,0,1,1.3,6.4c-.15.31-.85,1.68-1.93,1.7s-1.86-1.38-2-1.61c-1.1-2-.29-4.91,1.32-6.49a5.33,5.33,0,0,1,.65-.54A5.33,5.33,0,0,1,58,4.31ZM76.54,14a15.08,15.08,0,0,1-3.68,1.36,7.51,7.51,0,0,1-2.11.28c-1.11-.29-1.86-.91-1.9-1.58a1.3,1.3,0,0,1,.28-.8c1-1.3,3.73-.78,4.53-.63a10,10,0,0,1,3.18,1.2Zm35.61-3.54c-1.47,2.86-5.82,4-8.74,4.14a21.05,21.05,0,0,1-7.63-1.06,41.75,41.75,0,0,1-8.6-4.15A41.86,41.86,0,0,1,96.73,4c3.21-1.17,6.81-2,10.19-1C109.69,3.77,113.9,7,112.15,10.42Z"/></g></g></svg>