<svg xmlns="http://www.w3.org/2000/svg" viewBox="0 0 136.13 7.97"><defs><style>.cls-1{fill-rule:evenodd;}</style></defs><g id="Layer_2" data-name="Layer 2"><g id="Layer_2-2" data-name="Layer 2"><path class="cls-1" d="M8.85,2.91c.44-.32,1.24-.18,1.26-1.38C10.12.87,9.24.34,9,1c-.14.35.29.63.45.39,0,0,0-.13.06-.06s-.1.24-.1.29a0,0,0,0,0,0,0c.2.15.24-.17.25-.08.07.48-.75.27-1,1.41-.05.27.07,0,.18-.07Zm62,.41a.67.67,0,1,1-.67.67.67.67,0,0,1,.67-.67Zm-2,0a.67.67,0,1,1,0,1.33.67.67,0,0,1,0-1.33Zm3.92,0a.67.67,0,1,1-.67.67.67.67,0,0,1,.67-.67Zm-2-2a.67.67,0,0,1,0,1.34.67.67,0,0,1,0-1.34Zm0,3.92a.67.67,0,0,1,0,1.33.67.67,0,1,1,0-1.33Zm56.74-1.6H75.35a.82.82,0,0,1,.07.31.78.78,0,0,1-.07.3h52.22a3.09,3.09,0,0,0,0-.61Zm-.29-.77c-.44-.32-1.24-.18-1.26-1.38,0-.66.88-1.19,1.15-.52.14.35-.29.63-.45.39,0,0,0-.13-.06-.06s.1.24.1.29a0,0,0,0,1,0,0c-.19.15-.24-.17-.25-.08-.07.48.75.27,1,1.41.05.27-.07,0-.18-.07Zm-1.37,1.62c-3.6,0-2.26,2.35-1.3,1.77.51-.3.23-.85-.22-.67-.06,0-.17.13-.12,0,.11-.25.36-.21.39-.26s0,0,0,0c-.1-.28-.47.06-.39-.06.4-.63,4.21-.79,1.63-.79Zm0-1.09c-3.6,0-2.26-2.35-1.3-1.77.51.31.23.85-.22.67-.06,0-.17-.13-.12,0,.11.26.36.21.4.26v0c-.1.28-.47,0-.39.06.4.63,4.21.79,1.63.79Zm2.59,1.05a1,1,0,0,1-.12-.5h7.75s0,0,0,0c-.5.22-.89.94-1.92.55-.25-.09-.26.21.14.21s-.55.87-1.47.49c-.69-.28-1.05-.86-1.85-1.06a4.54,4.54,0,0,0-2.49.27Zm0-1a1,1,0,0,0-.12.51h7.75a.05.05,0,0,0,0-.05c-.5-.22-.89-.94-1.92-.55-.25.1-.26-.21.14-.21s-.55-.86-1.47-.49c-.69.28-1.05.86-1.85,1.06a4.43,4.43,0,0,1-2.49-.27ZM130,4.53a1.89,1.89,0,0,1,2,2.52c-.45.73-1,.53-1.91.58-.62,0-1,.44-1,.32.06-.9,1-1,1.45-1.56.83-1.16-1.22-1.53-1.4-1.17s-1.29-.69.9-.69Zm0-1.09a1.89,1.89,0,0,0,2-2.51c-.45-.74-1-.54-1.91-.59-.62,0-1-.44-1-.32.06.9,1,1,1.45,1.57.83,1.15-1.22,1.53-1.4,1.16s-1.29.69.9.69ZM128.14,4c0,.72.58,1.33.36,1.93-.1.27-.71.51-.87,0s.23-.54.23-1.9Zm0,0c0-.73.58-1.33.36-1.94-.1-.27-.71-.51-.87,0s.23.55.23,1.91Zm-.86,1.08c-.44.31-1.24.17-1.26,1.37,0,.66.88,1.19,1.15.52.14-.34-.29-.63-.45-.39,0,0,0,.14-.06.06s.1-.24.1-.28,0,0,0,0c-.19-.16-.24.17-.25.07-.07-.47.75-.27,1-1.41.05-.27-.07,0-.18.08ZM7.14,3.68H66.46a.68.68,0,0,0-.08.31.64.64,0,0,0,.08.3H7.14a2.48,2.48,0,0,1,0-.61Zm3.08.85c3.6,0,2.26,2.35,1.3,1.77-.51-.3-.23-.85.21-.67.07,0,.18.13.13,0-.11-.25-.36-.21-.39-.26s0,0,0,0c.1-.28.47.06.4-.06-.41-.63-4.22-.79-1.64-.79Zm0-1.09c3.6,0,2.26-2.35,1.3-1.77-.51.31-.23.85.22.67.06,0,.17-.13.12,0-.11.26-.36.21-.39.26v0c.1.28.47,0,.4.06-.41.63-4.22.79-1.64.79ZM7.63,4.49A1,1,0,0,0,7.75,4H0L0,4c.5.22.89.94,1.92.55.25-.09.26.21-.13.21s.54.87,1.46.49C4,5,4.34,4.42,5.14,4.22a4.54,4.54,0,0,1,2.49.27Zm0-1A1,1,0,0,1,7.75,4H0a.07.07,0,0,1,0-.05C.54,3.72.93,3,2,3.39c.25.1.26-.21-.13-.21s.54-.86,1.46-.49c.69.28,1,.86,1.85,1.06a4.43,4.43,0,0,0,2.49-.27ZM6.1,4.53a1.9,1.9,0,0,0-2,2.52c.45.73,1,.53,1.91.58.62,0,1,.44,1,.32-.06-.9-1-1-1.45-1.56C4.77,5.23,6.82,4.86,7,5.22s1.29-.69-.9-.69Zm0-1.09a1.89,1.89,0,0,1-2-2.51C4.58.19,5.09.39,6,.34c.62,0,1-.44,1-.32C7,.92,6,1,5.6,1.59,4.77,2.74,6.82,3.12,7,2.75s1.29.69-.9.69ZM8,4c0,.72-.58,1.33-.36,1.93.1.27.71.51.88,0S8.27,5.35,8.28,4ZM8,4c0-.73-.58-1.33-.36-1.94.1-.27.71-.51.88,0S8.27,2.63,8.28,4Zm.86,1.08c.44.31,1.24.17,1.26,1.38,0,.65-.87,1.18-1.15.51-.14-.34.29-.63.45-.39,0,0,0,.14.06.06s-.1-.24-.1-.28,0,0,0,0c.2-.16.24.17.25.07.07-.47-.75-.27-1-1.41-.05-.27.07,0,.18.08Z"/></g></g></svg>