<svg xmlns="http://www.w3.org/2000/svg" viewBox="0 0 155.68 22.29"><g id="Layer_2" data-name="Layer 2"><g id="_ëîé_1" data-name="—ëîé_1"><path d="M152.52,2.6A9.51,9.51,0,0,0,140,2.11c-3.32,2.81-2.51,7.35.64,9.93.88.72,2.14-.47,1.28-1.27-5.82-5.39,2.68-11,8.13-7.91a8.34,8.34,0,0,1,3.67,9.89c-1.21,3.29-4.64,4.91-7.75,5.93-10.48,3.43-21,1.31-31.15-1.79-3.07-.94-6.17-2-9.31-3.05,4.4-2,8.75-3.94,13.12-4.88.65-.13.36-1.09-.27-1-5.44.91-10.42,3-15.46,5a70.63,70.63,0,0,0-15.63-3.5c-3.34-.27-7.2.54-9.07,3.62-2.13,3.53,1.61,5.78,4.69,6.26,6.68,1,13.13-1.33,19.49-4.12,2.86.88,5.71,1.8,8.56,2.71,9.59,3,19.73,5.41,29.85,3.85,4.7-.73,10.79-2.2,13.44-6.62A10.18,10.18,0,0,0,152.52,2.6Zm-61.18,14c-6,1.26-8,.9-9.45-.14-.37-.27-1.28-1-1.28-1.85,0-1.44,2.3-2.72,4.21-3.05a9.24,9.24,0,0,1,2.47,0,47.09,47.09,0,0,1,7.8,1.58c1.47.38,2.93.8,4.38,1.22A72.23,72.23,0,0,1,91.34,16.56Z"/><path d="M1.43,15.18c2.65,4.42,8.73,5.89,13.44,6.62C25,23.36,35.13,21,44.71,18c2.86-.91,5.71-1.83,8.57-2.71,6.35,2.79,12.81,5.15,19.49,4.12,3.08-.48,6.82-2.73,4.69-6.26C75.59,10,71.73,9.21,68.39,9.48A70.63,70.63,0,0,0,52.76,13c-5-2-10-4.09-15.46-5-.64-.11-.92.85-.27,1,4.36.94,8.72,2.89,13.12,4.88-3.14,1-6.24,2.11-9.31,3.05C30.64,20,20.17,22.11,9.69,18.68c-3.11-1-6.55-2.64-7.75-5.93A8.34,8.34,0,0,1,5.61,2.86c5.45-3.14,14,2.52,8.13,7.91-.87.8.4,2,1.28,1.27,3.15-2.58,4-7.12.64-9.93a9.51,9.51,0,0,0-12.5.49A10.18,10.18,0,0,0,1.43,15.18Zm54.78-.83c1.45-.42,2.91-.84,4.37-1.22a47.21,47.21,0,0,1,7.81-1.58,9.24,9.24,0,0,1,2.47,0c1.9.33,4.22,1.61,4.21,3.05,0,.9-.91,1.58-1.28,1.85-1.43,1-3.49,1.4-9.45.14A71.67,71.67,0,0,1,56.21,14.35Z"/></g></g></svg>