<svg xmlns="http://www.w3.org/2000/svg" viewBox="0 0 114.81 70.1"><defs><style>.cls-1{fill:#847b73;fill-rule:evenodd;}</style></defs><g id="Layer_2" data-name="Layer 2"><g id="Layer_2-2" data-name="Layer 2"><path class="cls-1" d="M56.53,24.46h-.05C30.88,15.84,1.71,20.2,0,31.55-.34,36,3.66,38.67,9.91,39.71a8,8,0,0,0-.78,3.58c1,12.34,21.54,8.09,44.9-4.46,1.14.61,2,1.12,3.22,1.7C22.06,55.47,41,79.55,63,66.21c11.38,4.47,25.66-4.65,11.39-13.7l-.42.33C87.1,60.41,75.65,69,64.06,65.28c6.62-7.15,1.65-14.05-6.64-15.26-17.12-1.38-13.21,20.72.1,12.66a15.42,15.42,0,0,0,4.37,3.12C49.75,73,37.8,67.63,39.57,58.86c1.82-7.16,10.56-12.93,19.87-17.29h.08c20.9,9.82,45.84,15.1,47.1,1.31a12.24,12.24,0,0,0-.32-2.73c5.1-1.32,8.31-3.94,8.51-7.59C114.72,20.14,95.5,19,69.2,30h-.12a72.43,72.43,0,0,0-10-4.63h0C65.27,20,69.27,13.18,69,5.06L65.05,0C67,10.2,63.14,18.33,56.53,24.46ZM54,26.56v0a50.2,50.2,0,0,1-10,6H44c-15.42-3.68-29-.5-33.42,5.95-6-.84-9.88-3.18-9.35-7C3,20.41,32.88,19.55,54,26.56Zm59.79,6c-.51,3.45-3.48,5.59-7.8,6.57-2.92-8.22-15.7-8.05-29.24-4.83h0a49.74,49.74,0,0,1-5.43-2.95l-.78-.48h0C93.9,21.42,113.54,20.61,113.8,32.56ZM62.43,30c.93.6,1.87,1.17,2.82,1.72h0q-4,1.8-8.08,3.94l-1.53.88a63.56,63.56,0,0,0-9-3.31v0a56.07,56.07,0,0,0,9.84-5.79h0A53,53,0,0,1,62.43,30Zm10,5.36v0c-3.88,1.09-7.73,2.36-11.36,3.73l-.33.13h-.11c-.7-.41-1.4-.81-2.09-1.23-.53-.28-1.06-.54-1.6-.8h0c.54-.3,1.07-.61,1.6-.92,2.68-1.34,5.35-2.6,8-3.76h.11C68.58,33.59,70.53,34.54,72.46,35.39ZM40.39,34.12C30.52,38,19.72,39.43,12,38.67h0C16.71,33.28,29.79,32.41,40.39,34.12Zm64.76,5.18C98,40.63,87.62,39,78.36,35h0C91.15,32.2,102.65,33.09,105.15,39.3ZM40.41,34.11h0Zm3,.58-.08,0h.14ZM52.51,38a2.29,2.29,0,0,1,.27.14c-23.5,12.78-41.55,15.18-42.64,5a7.13,7.13,0,0,1,.94-3.31h0c8.7,1.12,21.15-.69,32.28-5.19A29.69,29.69,0,0,1,52.51,38Zm21.56-2h0Zm0,0c12,4.9,23.63,6,31.4,4.27a7.76,7.76,0,0,1,.14,2.53c-2,12.86-24.12,7.93-43.2-2.63h0c.62-.28,1.26-.54,1.88-.8A86.36,86.36,0,0,1,74.07,36.08Zm-18.37.53h-.11l0,0ZM10.61,38.52h0v0ZM54,38.83h0Zm52.27,1.32a7.72,7.72,0,0,1-.83.2,7.49,7.49,0,0,0-.32-1.05c.29,0,.57-.11.85-.17C106.12,39.46,106.21,39.8,106.3,40.15ZM9.91,39.7h0ZM63,64.76a9.93,9.93,0,0,1-4.77-3c1.74-1.83,1.52-4.15-.83-5.5C55,58,55.58,59.93,57.11,62c-9.88,7.22-16.71-10.76-.52-10.68C66.11,51.65,69,59.37,63,64.76Zm-5.29-3.7c-1.31-1.77-1.54-3.05-.2-3.74C58.9,58.12,58.78,59.44,57.73,61.06Z"/></g></g></svg>