<svg xmlns="http://www.w3.org/2000/svg" viewBox="0 0 159.91 21.64"><g id="Layer_2" data-name="Layer 2"><g id="_ëîé_1" data-name="—ëîé_1"><path d="M155.66,2.33C152.66.09,149-.51,144,.43c-6.74,1.28-13.27,4-19.59,6.58-1.66.69-3.38,1.4-5.06,2.06a118.89,118.89,0,0,1-11.85,4.19c-2.85.79-6.41,1.77-9.4.8a5,5,0,0,1-1.32-.63c.71-.24,1.35-.49,1.94-.75,2.23-1,5.27-2.59,5.89-5.1a2.57,2.57,0,0,0-.5-2.45,4.35,4.35,0,0,0-3.77-1,8,8,0,0,0-5.64,4.17,5.36,5.36,0,0,0-.42,4.65c-3.83,1-8.88,1.65-11.56-1.12A3.52,3.52,0,0,1,81.67,9a3.68,3.68,0,0,1,1.68-2.62c2.5-1.73,5.49-.37,6.66.3a.44.44,0,0,0,.59-.16A.4.4,0,0,0,90.53,6c-2-1.69-5.21-2.87-8.06-1.07a5.56,5.56,0,0,0-2.55,3.5,4.41,4.41,0,0,0,.74,3.46c1.38,2,3.71,3,6.93,3.06A26.91,26.91,0,0,0,95,14a5.72,5.72,0,0,0,2.19,1.48c2.44,1,5.26.66,7.7.21A68.81,68.81,0,0,0,116.73,12c2.45-.93,4.92-1.94,7.32-2.92a137.55,137.55,0,0,1,18.18-6.44c4.1-1,8.87-1.66,13.09,1.5a7,7,0,0,1,3,6.49c-.36,3.43-3.13,7-6.73,8.68a11.83,11.83,0,0,1-9.89-.11,7.2,7.2,0,0,1-3.56-3.84,10.15,10.15,0,0,0,2.46-1.18c1-.68,2.59-1.71,2.79-3.34a3.34,3.34,0,0,0-.16-1.4,3.1,3.1,0,0,0-1.33-1.6c-1.45-.8-3.42.16-4.36,1.1a5.3,5.3,0,0,0-.87,5.65,23.77,23.77,0,0,1-2.6.44,54,54,0,0,1-8.4.1.51.51,0,0,0-.55.49.58.58,0,0,0,.53.63c3.87.29,7.93.42,11.39-.55a9.74,9.74,0,0,0,.45,1A9.37,9.37,0,0,0,144,21.33a13,13,0,0,0,2.84.31,13.31,13.31,0,0,0,10-4.62,11.29,11.29,0,0,0,3.06-7.18A9.61,9.61,0,0,0,155.66,2.33Zm-54,7.21a17.63,17.63,0,0,1-5.8,2.91,3.55,3.55,0,0,1,.1-3.7,6.48,6.48,0,0,1,5.37-3.47c1.13,0,1.79.31,2,.89C103.65,7.11,102.73,8.67,101.66,9.54ZM140.54,9a1.3,1.3,0,0,1,.68.17,1.64,1.64,0,0,1,.73,1.26c.1,1.34-1.56,2.87-4.14,3.83,0-.15-.08-.31-.11-.46a4.55,4.55,0,0,1,.41-3.43A3.33,3.33,0,0,1,140.54,9Z"/><path d="M80,8.43a5.56,5.56,0,0,0-2.55-3.5c-2.85-1.8-6-.62-8.06,1.07a.4.4,0,0,0-.07.55.44.44,0,0,0,.59.16c1.17-.67,4.17-2,6.66-.3A3.68,3.68,0,0,1,78.24,9a3.52,3.52,0,0,1-1.07,2.76c-2.67,2.76-7.73,2.15-11.56,1.12a5.36,5.36,0,0,0-.42-4.65,8,8,0,0,0-5.64-4.17,4.35,4.35,0,0,0-3.77,1,2.57,2.57,0,0,0-.5,2.45c.62,2.51,3.66,4.11,5.89,5.1.59.26,1.23.51,1.94.75a5,5,0,0,1-1.32.63c-3,1-6.55,0-9.4-.8A118.89,118.89,0,0,1,40.54,9.07C38.86,8.41,37.14,7.7,35.48,7,29.16,4.41,22.63,1.71,15.89.43,11-.52,7.25.09,4.25,2.33A9.67,9.67,0,0,0,0,9.84,11.29,11.29,0,0,0,3.06,17a13.31,13.31,0,0,0,10,4.62,13,13,0,0,0,2.84-.31,9.37,9.37,0,0,0,6.45-4.61,9.74,9.74,0,0,0,.45-1c3.46,1,7.52.84,11.39.55a.58.58,0,0,0,.53-.63.5.5,0,0,0-.51-.49,46.92,46.92,0,0,1-8.44-.1,23.77,23.77,0,0,1-2.6-.44,5.3,5.3,0,0,0-.87-5.65C21.4,8,19.43,7,18,7.84a3.15,3.15,0,0,0-1.33,1.6,3.22,3.22,0,0,0-.15,1.4c.19,1.63,1.75,2.66,2.78,3.34a10.15,10.15,0,0,0,2.46,1.18,7.16,7.16,0,0,1-3.56,3.84,11.83,11.83,0,0,1-9.89.11c-3.6-1.68-6.37-5.25-6.73-8.68a6.94,6.94,0,0,1,3-6.49c4.21-3.16,9-2.53,13.09-1.5A137.92,137.92,0,0,1,35.86,9.08c2.4,1,4.87,2,7.32,2.92A68.81,68.81,0,0,0,55,15.68c2.44.45,5.26.78,7.7-.21A5.84,5.84,0,0,0,64.91,14a26.74,26.74,0,0,0,7.41,1c3.22,0,5.55-1.07,6.93-3.06A4.41,4.41,0,0,0,80,8.43Zm-15.9,4a17.66,17.66,0,0,1-5.84-2.92c-1.07-.87-2-2.43-1.66-3.37.2-.58.86-.88,1.95-.89A6.48,6.48,0,0,1,64,8.75,3.67,3.67,0,0,1,64.09,12.46ZM21.81,10.39a4.53,4.53,0,0,1,.4,3.43c0,.15-.07.31-.11.46-2.58-1-4.24-2.49-4.14-3.83a1.64,1.64,0,0,1,.73-1.26A1.3,1.3,0,0,1,19.37,9,3.35,3.35,0,0,1,21.81,10.39Z"/></g></g></svg>