<svg xmlns="http://www.w3.org/2000/svg" viewBox="0 0 158.01 18.57"><g id="Layer_2" data-name="Layer 2"><g id="_ëîé_1" data-name="—ëîé_1"><path d="M89.85,11.52a5.21,5.21,0,0,1-2.79-2.18,3.34,3.34,0,0,1-.3-2.52,3.12,3.12,0,0,1,1-1.41,3.31,3.31,0,0,1,3.37-.49.43.43,0,0,0,.56-.21.36.36,0,0,0-.17-.48,4.25,4.25,0,0,0-3.95,0,3.81,3.81,0,0,0-1,.77A4.25,4.25,0,0,0,85.47,7.3,4.84,4.84,0,0,0,86.89,11a7,7,0,0,0,4.2,2c7.9,1.17,25.14-5.5,25.14-5.5,3.37-1.3,19.43-7.4,30-5.88,5.24.75,7.39,3.11,8.09,4A7.22,7.22,0,0,1,156,9.69a7.38,7.38,0,0,1-2.61,5.75A6.69,6.69,0,0,1,150,16.9c-4.08.43-6.85-3.46-7-3.62a3,3,0,0,0,1.21-1.1,1.93,1.93,0,0,0,.37-1.63,1.49,1.49,0,0,0-1.33-1,1.54,1.54,0,0,0-1.08.55,2.36,2.36,0,0,0-.62,1.5,2.88,2.88,0,0,0,.15,1.3,7.05,7.05,0,0,1-2.4.42A6.26,6.26,0,0,1,137,13a10,10,0,0,1-1.8-.94c-.54-.34-.87-.54-1-.38a.46.46,0,0,0,0,.68,8.19,8.19,0,0,0,7.88,1.5c.18.33,2.47,4.39,6.89,4.73s8.19-3.16,9-7.07A9.21,9.21,0,0,0,155.8,4.2c-2.55-3.09-6.5-3.81-9.61-4.07-8.85-.74-17.93,1.69-30.66,6.49C115.53,6.62,96.35,13.86,89.85,11.52Zm54.07-.7c.16.47-.44,1-.74,1.26a2,2,0,0,1-.54.28,2,2,0,0,1,.13-1.4c.1-.19.28-.53.58-.55A.62.62,0,0,1,143.92,10.82Z"/><path d="M148.54,8.53c-1.87-3-6-3.6-7.31-3.78-8.42-1.2-22.57,4.77-36.46,8.93,0,0-17.62,5.27-24.73.63a6.11,6.11,0,0,1-2-2.2,5.92,5.92,0,0,1,1.11-6.76,5.9,5.9,0,0,1,5.1-1.21,7.21,7.21,0,0,1,4.54,3.4.37.37,0,0,0,.53.14.4.4,0,0,0,.17-.55A7.31,7.31,0,0,0,77.31,5.8a6.36,6.36,0,0,0-.87,1.62,7.31,7.31,0,0,0,.15,5.34,6.9,6.9,0,0,0,2.68,2.85c7.93,5,26.41-.54,26.41-.54,10.45-3.12,27.41-9.53,35.24-8.92,1.1.08,4.59.35,6.43,2.8a4.23,4.23,0,0,1,1,2.65c-.07,2.57-3,4.11-3.57,4.38-3.53,1.84-7.35.16-8-.14-.15-.09-.54-.34-.8-.18a.48.48,0,0,0-.21.39c0,.29.47.47.66.55a11.62,11.62,0,0,0,9.06.16,7.45,7.45,0,0,0,1.38-.87,6.13,6.13,0,0,0,2.59-4.42A5.29,5.29,0,0,0,148.54,8.53Z"/><path d="M42.48,6.62C29.75,1.82,20.67-.61,11.81.13c-3.11.26-7,1-9.6,4.07A9.17,9.17,0,0,0,.14,11.48c.76,3.91,4.59,7.4,9,7.07s6.71-4.4,6.88-4.73a8.21,8.21,0,0,0,7.89-1.5A.52.52,0,0,0,24,12a.48.48,0,0,0-.14-.36c-.17-.16-.5,0-1.05.38A10,10,0,0,1,21,13a6.19,6.19,0,0,1-2.33.38,7,7,0,0,1-2.4-.42,3.19,3.19,0,0,0,.15-1.3,2.38,2.38,0,0,0-.63-1.5,1.49,1.49,0,0,0-1.06-.55,1.48,1.48,0,0,0-1.34,1,1.89,1.89,0,0,0,.37,1.63A3,3,0,0,0,15,13.28c-.12.16-2.88,4-7,3.62a6.65,6.65,0,0,1-3.46-1.46A7.38,7.38,0,0,1,2,9.69a7.23,7.23,0,0,1,1.66-4.1c.71-.89,2.85-3.25,8.1-4C22.35.07,38.4,6.17,41.77,7.47c0,0,17.25,6.67,25.14,5.5a7,7,0,0,0,4.2-2A4.77,4.77,0,0,0,72.53,7.3a4.27,4.27,0,0,0-1-2.33,3.71,3.71,0,0,0-1-.77,4.25,4.25,0,0,0-3.95,0,.35.35,0,0,0-.16.48.42.42,0,0,0,.56.21,3.31,3.31,0,0,1,3.37.49,3.21,3.21,0,0,1,1,1.41,3.33,3.33,0,0,1-.31,2.52,5.16,5.16,0,0,1-2.78,2.18C61.66,13.86,42.48,6.62,42.48,6.62ZM14.65,10.41c.3,0,.48.36.58.55a2,2,0,0,1,.13,1.4,2,2,0,0,1-.53-.28c-.31-.22-.91-.79-.74-1.26A.62.62,0,0,1,14.65,10.41Z"/><path d="M9.46,8.53c1.88-3,6.06-3.6,7.31-3.78,8.43-1.2,22.58,4.77,36.46,8.93,0,0,17.63,5.27,24.73.63a6.2,6.2,0,0,0,2-2.2,5.92,5.92,0,0,0-1.11-6.76,5.91,5.91,0,0,0-5.1-1.21,7.19,7.19,0,0,0-4.54,3.4.38.38,0,0,1-.53.14.39.39,0,0,1-.17-.55A7.31,7.31,0,0,1,80.7,5.8a6.36,6.36,0,0,1,.87,1.62,7.34,7.34,0,0,1-.16,5.34,6.78,6.78,0,0,1-2.68,2.85c-7.92,5-26.4-.54-26.4-.54C41.88,12,24.91,5.54,17.08,6.15,16,6.23,12.5,6.5,10.66,9a4.28,4.28,0,0,0-1,2.65c.08,2.57,3.05,4.11,3.58,4.38,3.53,1.84,7.35.16,8-.14.14-.09.54-.34.8-.18a.51.51,0,0,1,.21.39c0,.29-.47.47-.66.55a11.62,11.62,0,0,1-9.06.16,7.31,7.31,0,0,1-1.39-.87,6.16,6.16,0,0,1-2.58-4.42A5.3,5.3,0,0,1,9.46,8.53Z"/></g></g></svg>