<svg xmlns="http://www.w3.org/2000/svg" viewBox="0 0 97.33 29.51"><g id="Layer_2" data-name="Layer 2"><g id="Layer_2-2" data-name="Layer 2"><path d="M27.6,16s0-.09,0-.26a4.35,4.35,0,0,1,0-.75,5,5,0,0,1,1.05-2.68,9.33,9.33,0,0,1,3.6-2.65,14.47,14.47,0,0,1,5.66-1.3,14.91,14.91,0,0,1,6.72,1.42,19.27,19.27,0,0,1,3.25,1.86c1,.75,2,1.59,3.1,2.31a33.51,33.51,0,0,0,7.13,3.66,28.47,28.47,0,0,0,8,1.84,15.49,15.49,0,0,0,4.09-.25,6.82,6.82,0,0,0,1-.28,4.59,4.59,0,0,0,.93-.36l.85-.45.83-.61a8.22,8.22,0,0,0,3-6.78,8.6,8.6,0,0,0-1-3.49,7,7,0,0,0-2.33-2.53c-.25-.14-.47-.31-.72-.44L72,3.91l-.19-.08,0,0s-.06,0,0,0h0l-.11,0-.42-.1a3.53,3.53,0,0,0-.81-.14,6.58,6.58,0,0,0-3,.46A5.8,5.8,0,0,0,64,7.9a4.91,4.91,0,0,0,1,3.95,3.73,3.73,0,0,0,2.31,1.36,5.26,5.26,0,0,0,1,0v.08a5,5,0,0,1-1,0,3.93,3.93,0,0,1-2.55-1.29,5.24,5.24,0,0,1-1.25-4.29,6.31,6.31,0,0,1,3.69-4.47,7.16,7.16,0,0,1,1.61-.49,6.28,6.28,0,0,1,.87-.12h.93A7.35,7.35,0,0,1,74,3.94a8.3,8.3,0,0,1,3.7,6.71,9,9,0,0,1-3.4,7.43l-.85.59c-.36.19-.66.32-1,.48a4.68,4.68,0,0,1-1,.36,7.91,7.91,0,0,1-1,.26,16,16,0,0,1-4.25.12A26.07,26.07,0,0,1,62,19.11a34.69,34.69,0,0,1-4-1.28,42.1,42.1,0,0,1-7.3-3.53c-1.14-.68-2.15-1.49-3.19-2.16a23.73,23.73,0,0,0-3.2-1.72A15.6,15.6,0,0,0,37.91,9a15,15,0,0,0-5.46,1.11,9.32,9.32,0,0,0-3.55,2.36A4.68,4.68,0,0,0,27.74,15a4.24,4.24,0,0,0,0,.74V16Z"/><path d="M46.5,27.94A3.45,3.45,0,0,0,48,26,4.13,4.13,0,0,0,47.51,23a5,5,0,0,0-3.1-2.48,8.47,8.47,0,0,0-5,.78c-1.73.72-3.62,1.67-5.72,2.32a64.72,64.72,0,0,1-6.73,2,22,22,0,0,1-3.8.56,9.92,9.92,0,0,1-4-.51A5.71,5.71,0,0,1,16,22.85a8,8,0,0,1-.75-4.39,5.53,5.53,0,0,1,2.61-3.81,12.75,12.75,0,0,1,4.38-1.71,22.38,22.38,0,0,1,9.61-.08,50.36,50.36,0,0,1,9.42,3.39c3.08,1.38,6.26,2.7,9.42,4.16s6.38,2.89,9.74,4a40.58,40.58,0,0,0,10.44,2.1,43.7,43.7,0,0,0,10.72-.42,21.17,21.17,0,0,0,9.66-4.22,12.72,12.72,0,0,0,3.65-9.44,12.28,12.28,0,0,0-1.12-5c-.18-.38-.41-.74-.61-1.11s-.5-.68-.74-1l-.89-.93c-.32-.28-.64-.53-1-.8A13.2,13.2,0,0,0,81.21,1a9.41,9.41,0,0,0-4.44,1.69,10,10,0,0,0-2.92,3.63,13.2,13.2,0,0,0-.95,4.53,8.32,8.32,0,0,0,.8,4.33,7,7,0,0,0,3.38,2.55,8.78,8.78,0,0,0,4.13.65,4.37,4.37,0,0,0,1.84-.63,5.15,5.15,0,0,0,1.22-1.53,6.22,6.22,0,0,0,1-3.66,1.08,1.08,0,0,0-1.07-.95,1.31,1.31,0,0,0-1.38.47,2.09,2.09,0,0,0,.07,1.6,3.68,3.68,0,0,0,.94,1.44,10,10,0,0,0,2.82,2.06,13,13,0,0,0,3.17,1,25.41,25.41,0,0,1,3.12.78,6.6,6.6,0,0,1,2.6,1.57A5.91,5.91,0,0,1,97,22.91a7,7,0,0,1,.32,2.52A4.12,4.12,0,0,1,95.25,29a5.21,5.21,0,0,1-3.1.4,5.69,5.69,0,0,1-1.84-.65l-.54-.39.06-.06.54.36a5.43,5.43,0,0,0,1.8.59,5,5,0,0,0,3-.45A3.83,3.83,0,0,0,97,25.42a6.32,6.32,0,0,0-1.71-4.62,6.57,6.57,0,0,0-2.45-1.44,26.78,26.78,0,0,0-3.08-.71,13.65,13.65,0,0,1-3.31-1,10.29,10.29,0,0,1-3-2.13,4.23,4.23,0,0,1-1.11-1.65,2.7,2.7,0,0,1-.06-2.13A1.57,1.57,0,0,1,83.2,11a2.46,2.46,0,0,1,.56-.1H84a1.37,1.37,0,0,1,.3,0,1.9,1.9,0,0,1,1.1.43,1.45,1.45,0,0,1,.39.5,1.5,1.5,0,0,1,.2.57,4.72,4.72,0,0,1-.2,2.19,9.25,9.25,0,0,1-.85,2,6,6,0,0,1-1.42,1.78,5,5,0,0,1-2.21.81,9.21,9.21,0,0,1-4.57-.67,10.1,10.1,0,0,1-2.09-1.13A5.82,5.82,0,0,1,73,15.58,9.15,9.15,0,0,1,72,10.77,13.75,13.75,0,0,1,73,5.9a10.77,10.77,0,0,1,3.19-4A10.18,10.18,0,0,1,81.1.08a14,14,0,0,1,10,2.9c.35.29.71.58,1,.89l.91,1c.27.37.55.73.81,1.11s.46.79.65,1.2a13.1,13.1,0,0,1,1.16,5.3,13.39,13.39,0,0,1-4,9.93,21.54,21.54,0,0,1-10,4.21,43.65,43.65,0,0,1-10.83.33,41,41,0,0,1-10.5-2.21c-3.36-1.18-6.61-2.56-9.79-4s-6.37-2.7-9.47-4a48.23,48.23,0,0,0-9.36-3.21,22.87,22.87,0,0,0-9.33.17,12.16,12.16,0,0,0-4.11,1.63A4.84,4.84,0,0,0,16,18.57a7.33,7.33,0,0,0,.63,4,5,5,0,0,0,2.79,2.57,9.29,9.29,0,0,0,3.77.51,21.28,21.28,0,0,0,3.7-.51,65.7,65.7,0,0,0,6.7-1.95c2.11-.63,3.92-1.53,5.71-2.25.45-.18.9-.32,1.34-.47s.89-.21,1.33-.32.9-.07,1.32-.08.8.09,1.23.16a5.25,5.25,0,0,1,3.23,2.71A4.33,4.33,0,0,1,48.15,26a3.42,3.42,0,0,1-1.07,1.63l-.53.39Z"/><path d="M53.05,17.68a1.35,1.35,0,0,0,.44,1,3.8,3.8,0,0,0,3,.66,3.31,3.31,0,0,0,1-.29l.51-.33.4-.4A6.88,6.88,0,0,0,59.69,16c.55-1.79,1-4.19-.24-6.17a5.25,5.25,0,0,0-2.81-2.1,10.19,10.19,0,0,0-1.87-.43l-.5,0-.22,0h-1.3a15.74,15.74,0,0,0-4.12.73,22.89,22.89,0,0,0-4,1.89A65.41,65.41,0,0,0,37,15.34c-1.26,1-2.52,2-3.87,2.94a26,26,0,0,1-4.23,2.5,41.36,41.36,0,0,1-4.65,1.63c-1.56.46-3.14.86-4.73,1.19a32.16,32.16,0,0,1-9.5.63A14.52,14.52,0,0,1,5.55,23,9.61,9.61,0,0,1,2,20.25,10,10,0,0,1,.21,16.44l-.07-.25,0-.06v-.21L0,15.43a6.14,6.14,0,0,1,0-1A6.68,6.68,0,0,1,.5,12.46,6.51,6.51,0,0,1,2.71,9.54a3.88,3.88,0,0,1,3.23-.72c.26.09.51.15.75.26l.65.36.56.43c.16.18.34.34.48.53a2.79,2.79,0,0,1,.56,2.38,4.3,4.3,0,0,1-2.11,2.58,5.25,5.25,0,0,1-.81.36l-.28.1,0-.09L6,15.62a5.54,5.54,0,0,0,.76-.39,4.1,4.1,0,0,0,1.86-2.52,2.5,2.5,0,0,0-.57-2A4.14,4.14,0,0,0,5.83,9.36C4,9,2,10.56,1.2,12.73a6.17,6.17,0,0,0-.39,1.71,8.45,8.45,0,0,0,0,.87l.09.48,0,.12v0h0L1,16l.07.22a9.53,9.53,0,0,0,1.7,3.49,8.67,8.67,0,0,0,3.21,2.5,14.55,14.55,0,0,0,4.2,1.13,31.57,31.57,0,0,0,9.25-.48c1.57-.28,3.14-.63,4.71-1a38.2,38.2,0,0,0,4.62-1.47,36,36,0,0,0,8.13-5.22,92.11,92.11,0,0,1,7.53-5.71,23.14,23.14,0,0,1,4.05-2.08c.72-.2,1.41-.48,2.15-.61a12.87,12.87,0,0,1,2.17-.27H54l.29,0,.53,0a8.11,8.11,0,0,1,2,.47,6.89,6.89,0,0,1,1.82,1,6,6,0,0,1,1.34,1.47A6.37,6.37,0,0,1,60.89,13a10.81,10.81,0,0,1-.67,3.18,7.46,7.46,0,0,1-1.44,2.48l-.51.47-.53.31a3.32,3.32,0,0,1-1.17.28,4.06,4.06,0,0,1-3.19-.9A1.45,1.45,0,0,1,53,18c0-.2,0-.3,0-.3Z"/></g></g></svg>