<svg xmlns="http://www.w3.org/2000/svg" viewBox="0 0 160.59 27.8"><g id="Layer_2" data-name="Layer 2"><g id="_ëîé_1" data-name="—ëîé_1"><path d="M156.46,2.1C150.61-2.09,143.17.21,140.94,7a.8.8,0,0,0,0,.64.69.69,0,0,0,.74.33c.39-.13.48-.83.51-1,.25-1.48,2.71-4.56,6.08-5.34a8.36,8.36,0,0,1,5.86.92,8.28,8.28,0,0,1,3.13,3.23c2.51,4.5-.06,10.06-.37,10.69-3.25,6.78-11.94,9.54-18.62,9.17a22.19,22.19,0,0,1-11-3.73c2.83-1.63,4.36-4.27,3.87-6.43a4.56,4.56,0,0,0-1.87-2.69,4.23,4.23,0,0,0-2.76-.51c-2.35.4-4.24,3.06-4.13,5.64a5.69,5.69,0,0,0,1.48,3.48l-.19.11A20.11,20.11,0,0,1,115.3,24c-6.55.56-12.41-1.68-15.86-3a51.29,51.29,0,0,1-4.79-2.12L96.76,16a11.62,11.62,0,0,0,5,.09c3.15-.67,7.3-3,7.13-5.59a2.73,2.73,0,0,0-.62-1.65c-1.55-1.74-5.46-.31-6.39,0a14,14,0,0,0-6.66,5.46,13.39,13.39,0,0,1-4.74-1.39,27.15,27.15,0,0,1-9.3-8.19,3.06,3.06,0,0,0-.38-.54.87.87,0,0,0-.47-.34.94.94,0,0,0-.17,0,.87.87,0,0,0-.47.34,3.06,3.06,0,0,0-.38.54,27,27,0,0,1-9.3,8.19,13.39,13.39,0,0,1-4.74,1.39,14,14,0,0,0-6.66-5.46c-.93-.34-4.84-1.77-6.39,0a2.66,2.66,0,0,0-.61,1.65c-.18,2.62,4,4.92,7.12,5.59a11.62,11.62,0,0,0,5-.09c.71.94,1.41,1.89,2.11,2.84A51.29,51.29,0,0,1,61.15,21c-3.45,1.32-9.31,3.56-15.86,3a19.92,19.92,0,0,1-8.38-2.43,1,1,0,0,1-.19-.11,5.75,5.75,0,0,0,1.47-3.48c.11-2.58-1.78-5.24-4.13-5.64a4.23,4.23,0,0,0-2.76.51,4.56,4.56,0,0,0-1.87,2.69c-.49,2.16,1,4.8,3.87,6.43a22.19,22.19,0,0,1-11,3.73C15.65,26,7,23.26,3.71,16.48,3.4,15.85.83,10.29,3.34,5.79a8.23,8.23,0,0,1,9-4.15C15.7,2.42,18.16,5.5,18.41,7c0,.19.12.89.51,1a.69.69,0,0,0,.74-.33.86.86,0,0,0,0-.64C17.42.21,10-2.09,4.13,2.1-2.41,6.77-.25,16,4.18,21.35c5,6.1,13.49,7.37,20.87,5.88,2.91-.59,7.29-2,10.19-4.35a27.38,27.38,0,0,0,9.46,2.57,34.74,34.74,0,0,0,13.9-2.24c1.78-.64,3.5-1.45,5.28-2.08.73-.26,1.85-.7,3.08-1.12a9.3,9.3,0,0,0,4.48,3.2c.7.22,3.88,1.23,5.43-.36a3,3,0,0,0,.79-1.68,3.81,3.81,0,0,0-.86-2.56c-1.28-1.67-4.71-2-8.56-.8l-1.88-2.32A25.12,25.12,0,0,0,80.3,5.17,25.05,25.05,0,0,0,94.24,15.49l-1.89,2.32c-3.85-1.19-7.28-.87-8.56.8a3.81,3.81,0,0,0-.86,2.56,3,3,0,0,0,.79,1.68c1.55,1.59,4.73.58,5.43.36A9.3,9.3,0,0,0,93.63,20c1.23.42,2.35.86,3.08,1.12,1.78.63,3.5,1.44,5.29,2.08a34.69,34.69,0,0,0,13.89,2.24,27.32,27.32,0,0,0,9.46-2.57c2.9,2.37,7.28,3.76,10.19,4.35,7.38,1.49,15.86.22,20.87-5.88C160.84,16,163,6.77,156.46,2.1Zm-56.14,9.53C102.57,10,106.06,9,107,10.15a1.64,1.64,0,0,1,.19,1.31c-.44,2.12-3.93,2.94-5.09,3.21a12.35,12.35,0,0,1-4.49.21A9.55,9.55,0,0,1,100.32,11.63Zm-41.81,3c-1.16-.27-4.65-1.09-5.08-3.21a1.59,1.59,0,0,1,.18-1.31C54.53,9,58,10,60.27,11.63A9.44,9.44,0,0,1,63,14.88,12.37,12.37,0,0,1,58.51,14.67ZM35.07,20.45a5.31,5.31,0,0,1-3.17-3.33c-.09-.4-.46-2,.5-2.86a2.37,2.37,0,0,1,2.18-.49c1.51.42,2.34,2.4,2.11,4A4.27,4.27,0,0,1,35.07,20.45ZM71.72,18.8c.53,0,4.15-.29,4.73,1.23a1.71,1.71,0,0,1-.55,1.83c-.93.74-2.53,0-3.59-.49a9.17,9.17,0,0,1-2.88-2.13A10.3,10.3,0,0,1,71.72,18.8Zm16.56,2.57c-1.06.49-2.66,1.23-3.59.49A1.73,1.73,0,0,1,84.14,20c.58-1.52,4.2-1.26,4.73-1.23a10.18,10.18,0,0,1,2.29.44A9.06,9.06,0,0,1,88.28,21.37Zm35.62-3.59c-.22-1.61.61-3.59,2.11-4a2.36,2.36,0,0,1,2.18.49c1,.9.59,2.46.5,2.86a5.31,5.31,0,0,1-3.17,3.33A4.27,4.27,0,0,1,123.9,17.78Z"/></g></g></svg>