<svg xmlns="http://www.w3.org/2000/svg" viewBox="0 0 156.62 13.57"><g id="Layer_2" data-name="Layer 2"><g id="_ëîé_1" data-name="—ëîé_1"><path d="M155.63,3.18a6.19,6.19,0,0,0-4.38-2.09A7.18,7.18,0,0,0,146,2.85a.67.67,0,0,0,0,.94.63.63,0,0,0,.88.15,6,6,0,0,1,5.5-1,3.6,3.6,0,0,1,2.47,2.44,3.13,3.13,0,0,1-1,2.95c-1.91,2-5.14,2.6-8,3a44.11,44.11,0,0,1-13.91-.1c-3.71-.65-7.4-1.63-11-2.58-1.74-.47-3.53-1-5.32-1.38-7.1-1.74-16.48-3.71-26-3.51-5.42.11-9,1.34-10.67,3.66a3.55,3.55,0,0,0-.23,4.27A4,4,0,0,0,83.32,13a.48.48,0,0,0-.25-.92,3.55,3.55,0,0,1-3.15-.65,2.18,2.18,0,0,1-.54-2.09,4,4,0,0,1,2.18-2.64,16.08,16.08,0,0,1,7.12-1.61,68.85,68.85,0,0,1,13.49,1.25l.46.07a167.35,167.35,0,0,1,19.78,4.49,60.19,60.19,0,0,0,15.65,2.67h1.31c5.2,0,10.42-.47,14.28-3a6.45,6.45,0,0,0,2.93-4.24A3.9,3.9,0,0,0,155.63,3.18Z"/><path d="M77.57,7.41C75.91,5.09,72.32,3.86,66.9,3.75c-9.48-.19-18.86,1.77-26,3.51-1.79.43-3.59.91-5.32,1.38-3.56.95-7.25,1.93-11,2.58a44.11,44.11,0,0,1-13.91.1c-2.88-.44-6.11-1.07-8-3a3.13,3.13,0,0,1-1-2.95A3.6,3.6,0,0,1,4.24,2.89a6,6,0,0,1,5.5,1,.63.63,0,0,0,.88-.15.67.67,0,0,0,0-.94A7.18,7.18,0,0,0,5.37,1.09,6.19,6.19,0,0,0,1,3.18,3.9,3.9,0,0,0,0,6.33,6.49,6.49,0,0,0,3,10.57c3.86,2.53,9.08,3,14.28,3h1.31a60.19,60.19,0,0,0,15.65-2.67A167.35,167.35,0,0,1,54,6.4l.46-.07A69.62,69.62,0,0,1,67.94,5.08a16.08,16.08,0,0,1,7.12,1.61,4,4,0,0,1,2.18,2.64,2.18,2.18,0,0,1-.54,2.09,3.55,3.55,0,0,1-3.15.65.48.48,0,0,0-.25.92,4,4,0,0,0,4.5-1.31A3.55,3.55,0,0,0,77.57,7.41Z"/><path d="M144.88,8.08c-.09-.07-.19-.07-.38-.05h-.07l-.2,0a1.51,1.51,0,0,0-.3,0c-.21,0-5.15.6-17.32-1.82l-.11,0c-.28-.05-.57-.1-7.41-1.9-3.32-.87-6.76-1.77-10.2-2.53A67.84,67.84,0,0,0,96,0,45.29,45.29,0,0,0,78.28,3.29,45.29,45.29,0,0,0,60.61,0,67.84,67.84,0,0,0,47.67,1.8c-3.44.76-6.88,1.66-10.2,2.53-6.84,1.8-7.13,1.85-7.41,1.9l-.11,0C17.77,8.67,12.84,8.09,12.63,8.07a1.51,1.51,0,0,0-.3,0l-.2,0h-.07a.52.52,0,0,0-.39.05.49.49,0,0,0,.31.86,42.26,42.26,0,0,0,5.13.3c7.94,0,15.8-2,23.44-4C52.7,2.16,65.26-1.06,77.83,4a.85.85,0,0,0,.37.11h.2A1,1,0,0,0,78.73,4C91.3-1.06,103.86,2.16,116,5.27c7.64,2,15.5,4,23.44,4a42.14,42.14,0,0,0,5.13-.3.49.49,0,0,0,.3-.86Z"/></g></g></svg>