<svg xmlns="http://www.w3.org/2000/svg" viewBox="0 0 217.12 21.68"><g id="Layer_2" data-name="Layer 2"><g id="_ëîé_1" data-name="—ëîé_1"><path d="M213,3.64C208-1,199.81-.87,194.37,2.25a15.83,15.83,0,0,0-4.45,3.85c-2.79-2.4-7-2.22-10.29-.44a14.63,14.63,0,0,0-4,3.29c-3.73-4.25-10.16-6-15.27-3.07a10,10,0,0,0-1.84,1.37,17.27,17.27,0,0,0-10.84-2c-3.35.45-6.78,1.75-8.71,4.54a10.38,10.38,0,0,0-8.05-3.42,13.15,13.15,0,0,0-7.55,3.25,8.11,8.11,0,0,0-1.5-1.14,13.17,13.17,0,0,0-12.12,0c1.22-2.36,2.13-4.88,1.29-6.94C110-1,107.6-.06,106.57,2s-.55,5,.31,7.41A14.29,14.29,0,0,0,98.78,7a12.09,12.09,0,0,0-6.64,2.53c-2.57-2.28-6.46-3.52-9.35-3a10.79,10.79,0,0,0-5.66,3.27c-2.7-3.88-8.35-5.22-13.1-4.5a14.92,14.92,0,0,0-5.47,1.93,10,10,0,0,0-1.82-1.34C51.63,2.92,45.2,4.7,41.47,9a14.74,14.74,0,0,0-4-3.29c-3.27-1.78-7.51-2-10.3.44a15.83,15.83,0,0,0-4.45-3.85C17.31-.87,9.09-1,4.11,3.64,3.56,4.15-1.24,8.8.31,13.89a9.1,9.1,0,0,0,5.78,5.63,7.19,7.19,0,0,0,3.29.13c.3-.06,1.38-.27,1.43-.71a.41.41,0,0,0-.12-.33c-.17-.16-.47-.08-.54-.07-3.92.88-7.29-1.37-7.6-5.37A8.82,8.82,0,0,1,6.42,5.32c5.29-3.7,14.24-2.48,19.07,1.46.2.16.4.34.59.52-.11.15-.22.3-.32.46-.82,1.3-1.41,3.44-.7,4.91a2.21,2.21,0,0,0,3.76.35c1-1.32.35-3.78-.34-5.12-.1-.19-.22-.38-.34-.57A7.4,7.4,0,0,1,34.37,6a11.29,11.29,0,0,1,6.24,4.06,11.85,11.85,0,0,0-1.2,2.11c-.93,2.1-1.36,5.54.86,7.05,1.68,1.15,3.27-.12,3.75-1.82A8.25,8.25,0,0,0,42.9,11,11.7,11.7,0,0,1,53.08,6.35,8.9,8.9,0,0,1,57.4,8,9.83,9.83,0,0,0,55,10.74c-.54.89-1.84,3.27-.74,5.17a3.83,3.83,0,0,0,2.51,1.69A3.94,3.94,0,0,0,60,16.33a4.86,4.86,0,0,0,1.21-3.48,7.07,7.07,0,0,0-1.73-4.61,13.88,13.88,0,0,1,2.74-1.13,15.36,15.36,0,0,1,8.58,0,9.13,9.13,0,0,1,5.36,3.78A10.49,10.49,0,0,0,73.82,18c.14,1.46.68,2.8,2.36,2.35,2.42-.65,2.69-4.6,2.47-6.47a8.94,8.94,0,0,0-.75-2.72A8.88,8.88,0,0,1,91,10.55a8,8,0,0,0-2.16,4.75c-.49,5.24,6.36,2.75,5.94-1.11a6.85,6.85,0,0,0-1.69-3.68A11.42,11.42,0,0,1,98.6,8.44,12,12,0,0,1,107,11a11.91,11.91,0,0,0-1.83,7.12,4.22,4.22,0,0,0,1.42,3.12,2.28,2.28,0,0,0,1.28.48c1.54,0,2.8-1.85,3.25-3.15a6.21,6.21,0,0,0,.37-2.27,8.41,8.41,0,0,0-2.43-5.44,11.84,11.84,0,0,1,8.73-2.22,10.91,10.91,0,0,1,4.67,2,7.76,7.76,0,0,0-1.6,2.79c-.77,2.57,2.17,6.28,5,4.79s.75-5-1.41-7.46a11.39,11.39,0,0,1,3.81-2.31,9,9,0,0,1,10,2.68c-2.35,3.67-2.17,7.4-.4,8.78a3.85,3.85,0,0,0,3.08.6,3.42,3.42,0,0,0,1-.73c1.49-1.67.81-4.59,0-6.2A7.85,7.85,0,0,0,140,11a11,11,0,0,1,5.16-3.73,17.16,17.16,0,0,1,8.48-.36,13.88,13.88,0,0,1,3.95,1.43,6.23,6.23,0,0,0-1.68,4.54c.21,2.57,2.34,5,4,4.94a3.75,3.75,0,0,0,.88-.18A4,4,0,0,0,162.84,16c1-1.77.15-4.31-1.31-6.18A10.16,10.16,0,0,0,159.69,8a8.89,8.89,0,0,1,4.36-1.69A11.68,11.68,0,0,1,174.22,11a8.25,8.25,0,0,0-1.12,6.43c.48,1.7,2.07,3,3.75,1.82,2.22-1.51,1.79-5,.86-7a12.45,12.45,0,0,0-1.19-2.11A11.23,11.23,0,0,1,182.75,6,7.4,7.4,0,0,1,189,7.33c-.12.19-.24.38-.34.57-.69,1.34-1.3,3.8-.34,5.12a2.21,2.21,0,0,0,3.76-.35c.72-1.47.12-3.61-.7-4.91-.1-.16-.21-.31-.32-.46.19-.18.39-.36.59-.52,4.83-3.94,13.78-5.16,19.07-1.46a8.82,8.82,0,0,1,3.87,7.85c-.31,4-3.68,6.25-7.6,5.37-.07,0-.37-.09-.54.07a.41.41,0,0,0-.12.33c.06.44,1.14.65,1.44.71a7.18,7.18,0,0,0,3.29-.13,9.12,9.12,0,0,0,5.78-5.63C218.36,8.8,213.56,4.15,213,3.64ZM27.71,12.05a1,1,0,0,1-1.06.13c-.67-.43-.21-2.06-.12-2.37a5,5,0,0,1,.59-1.31,4.44,4.44,0,0,1,.83,2C28,11.05,28.12,11.69,27.71,12.05Zm15.28,4c-.05.19-.38,1.28-1,1.33a.88.88,0,0,1-.64-.31c-.71-.72-.35-2.15-.17-2.88a6.94,6.94,0,0,1,.8-1.9C42.37,12.84,43.48,14.48,43,16.07Zm15.8-.37a3.31,3.31,0,0,1-2,.71c-3.16-1.45-.88-5,.44-6.39a9.22,9.22,0,0,1,1.26-1.08,7,7,0,0,1,.49.59C60.18,11.27,60.4,14.34,58.79,15.7Zm16.43,1.22a8.5,8.5,0,0,1,1.16-3.57c.17-.31.35-.61.54-.89a8.05,8.05,0,0,1,.4,2.51C77.32,16.34,75.35,19.62,75.22,16.92Zm18.1-1.06c-.51.91-1.75,1.57-2.44,1.22-.9-.45-.87-2.63-.1-4.09A4.39,4.39,0,0,1,92,11.58C93.53,12.83,94,14.66,93.32,15.86Zm16.7-.17c.07.55.43,3.13-1.07,4.14a1.76,1.76,0,0,1-1.46.33c-1.21-.44-1.27-3.08-1.08-4.5a8.11,8.11,0,0,1,1.64-3.84A7,7,0,0,1,110,15.69Zm-2.11-7c-.36-.94-1.53-4.27-.25-6.11.19-.28.67-1,1.25-.92s.93.78,1,1C110.93,4.65,108.39,8.06,107.91,8.69Zm17.5,5.72c.34.87.64,1.67.25,2.25a1.45,1.45,0,0,1-1.33.6c-1.25-.14-2.4-2.25-1.94-4a3.35,3.35,0,0,1,1.22-1.77A9.62,9.62,0,0,1,125.41,14.41Zm15.33.59c.31.83,1.1,3,.25,3.67a1.43,1.43,0,0,1-1.54,0c-.89-.53-.88-1.93-.88-3.12a9.3,9.3,0,0,1,.63-3.25A9.75,9.75,0,0,1,140.74,15Zm19.4,1.34a2,2,0,0,1-.9-.12c-1.68-.66-2.53-4.51-1.05-6.69a3.36,3.36,0,0,1,.45-.54,5.64,5.64,0,0,1,1.14.72c1.69,1.34,3,4,2.12,5.47A2.47,2.47,0,0,1,160.14,16.34Zm15.63.75a.84.84,0,0,1-.64.31c-.61,0-.94-1.14-1-1.33-.48-1.59.63-3.23,1-3.76a6.94,6.94,0,0,1,.8,1.9C176.12,14.94,176.49,16.37,175.77,17.09Zm14.7-4.91a1,1,0,0,1-1.06-.13c-.4-.36-.32-1-.24-1.54a4.44,4.44,0,0,1,.83-2,4.65,4.65,0,0,1,.59,1.31C190.68,10.12,191.14,11.75,190.47,12.18Z"/></g></g></svg>