<svg xmlns="http://www.w3.org/2000/svg" viewBox="0 0 220.4 22.83"><g id="Layer_2" data-name="Layer 2"><g id="_ëîé_1" data-name="—ëîé_1"><path d="M181.3,9.8c-2.42-3.07-6.37-4.5-11.38-4.13-8.06.6-15.78,3.23-23.25,5.78-8.49,2.89-17.26,5.87-26.53,5.87h-.34c-3.08,0-7.23-.53-9.45-2.79a5.64,5.64,0,0,1-1.57-4.17,4.78,4.78,0,0,1,1.86-3.72,6.35,6.35,0,0,1,5.15-1.22,7.25,7.25,0,0,1,4.58,3.44A.45.45,0,0,0,121,9a.47.47,0,0,0,.2-.64A7.51,7.51,0,0,0,108.65,7a5.84,5.84,0,0,0-1.12,4.54c1.45,9.33,15.16,7.53,20.32,6.84,6.45-.85,12.72-2.94,18.8-5,2.68-.9,5.45-1.83,8.21-2.63.1,0,10.67-4.06,18.63-3.33,2.9.26,5.09,1.21,6.51,2.83a4.07,4.07,0,0,1,1.21,2.54c0,2.11-2.27,3.87-3.85,4.53a11.84,11.84,0,0,1-8.13-.15c-.37-.23-.66-.29-.86-.17a.52.52,0,0,0-.24.44c0,.07,0,.28.7.62a12.63,12.63,0,0,0,4.94,1,9.71,9.71,0,0,0,5.77-1.69c1.11-.81,3-2.51,2.87-4.75A4.8,4.8,0,0,0,181.3,9.8Z"/><path d="M190,5.87c5.2-2.93,11.11-5.44,17.21-4.11a.53.53,0,0,0,.41-1c-2.52-1.4-6-.63-8.74,0a22.54,22.54,0,0,0-9.33,4.51C189.23,5.57,189.65,6.07,190,5.87Z"/><path d="M114.11,21.31c7.76,2.5,16.3,1.65,24-.57,8.88-2.55,16.69-7.76,26-8.6a.43.43,0,0,0,0-.85c-7.83-.68-15.28,4.73-22.43,7.17-9,3.08-18,4-27.36,1.95A.46.46,0,0,0,114.11,21.31Z"/><path d="M111.74,7A7.5,7.5,0,0,0,99.21,8.39a.47.47,0,0,0,.82.47,7.25,7.25,0,0,1,4.58-3.44,6.35,6.35,0,0,1,5.15,1.22,4.81,4.81,0,0,1,1.86,3.72,5.64,5.64,0,0,1-1.57,4.17c-2.22,2.26-6.37,2.77-9.46,2.79h-.34c-9.27,0-18-3-26.52-5.87C66.26,8.9,58.53,6.27,50.47,5.67c-5-.37-8.95,1.06-11.38,4.13A4.86,4.86,0,0,0,38,12.63c-.09,2.25,1.77,3.94,2.9,4.76a9.65,9.65,0,0,0,5.73,1.68,12.43,12.43,0,0,0,5-1c.69-.34.7-.55.71-.62a.55.55,0,0,0-.24-.44c-.3-.19-.73.08-.88.18a11.85,11.85,0,0,1-8.11.14c-1.58-.66-3.9-2.42-3.85-4.53A4,4,0,0,1,40.4,10.3C41.82,8.68,44,7.73,46.9,7.47c8-.72,18.53,3.29,18.65,3.33,2.74.8,5.52,1.73,8.2,2.63,6.07,2,12.35,4.12,18.8,5,5.16.69,18.87,2.49,20.32-6.84A5.81,5.81,0,0,0,111.74,7Z"/><path d="M5.31,20.92c4.87,1.95,10.47-.15,9.52-6.16a.57.57,0,0,0-.2-.37.77.77,0,0,0-.87,0c-.39.31-.08.94-.15,2a4.48,4.48,0,0,1-.7,2.25,4.06,4.06,0,0,1-2.3,1.46A6.21,6.21,0,0,1,6.87,20c-.46-.15-4.39-1.47-5.3-5.17a6.92,6.92,0,0,1,.21-4c1.55-4.54,6.9-6.16,11.28-6.33A24.47,24.47,0,0,1,26.9,8.29a20.41,20.41,0,0,1,2.81,2.21c-.15.21-2.49,3.64-1.09,6.54a4.46,4.46,0,0,0,2.28,2.28,2.47,2.47,0,0,0,1.85.14c1.2-.51,1.37-2.37,1.42-2.93.28-3.13-2.36-5.63-3.05-6.25a11.18,11.18,0,0,1,2-2.6c9.55-9.39,27.18-2.89,38,.47.64.2,4.23,1.44,9.13,2.76a79.59,79.59,0,0,0,9.5,2c5.79.85,8.4.53,10.59-.67a5.78,5.78,0,0,0,2.19-1.9,5.92,5.92,0,0,0-.13-6.75C100.58,1.35,96.9,1.38,96.53,2a.37.37,0,0,0-.06.31c.1.27.74.27,1,.28a9,9,0,0,1,2.69.68c1.58.61,2.76,3,2.41,4.94A4.64,4.64,0,0,1,101,10.82c-3.2,2.87-8.91,1.66-14,.57A50.45,50.45,0,0,1,81.71,10C60,2.58,48.89-1.06,40.23,1.94a23,23,0,0,0-8.72,5.61L30.22,9.39A26,26,0,0,0,19.33,3.85C14.17,2.64,7.53,2.68,3.25,6.27-1.77,10.48-.9,18.44,5.31,20.92ZM30,14.29a4.89,4.89,0,0,1,.62-2.86A6.88,6.88,0,0,1,31.7,13c1,2,1.14,4.57.54,4.79S30.16,16.26,30,14.29Z"/><path d="M30.39,5.87C25.19,2.94,19.28.43,13.17,1.76a.53.53,0,0,1-.4-1c2.52-1.4,6.05-.63,8.74,0a22.6,22.6,0,0,1,9.33,4.51C31.17,5.57,30.74,6.07,30.39,5.87Z"/><path d="M106.28,21.31c-7.75,2.5-16.3,1.65-24-.57-8.88-2.55-16.7-7.76-26-8.6a.43.43,0,0,1,0-.85c7.84-.68,15.28,4.73,22.44,7.17,9,3.08,18,4,27.35,1.95A.46.46,0,0,1,106.28,21.31Z"/><path d="M217.15,6.27c-4.28-3.59-10.93-3.63-16.09-2.42a26.14,26.14,0,0,0-10.89,5.54l-1.29-1.84a23,23,0,0,0-8.71-5.61c-8.67-3-19.72.64-41.49,8.06a49.07,49.07,0,0,1-5.2,1.39c-5.14,1.09-10.84,2.3-14-.57a4.69,4.69,0,0,1-1.58-2.65c-.34-2,.84-4.33,2.42-4.94A8.93,8.93,0,0,1,123,2.55c.24,0,.88,0,1-.28a.37.37,0,0,0-.07-.31c-.37-.58-4-.61-5.91,1.67a5.92,5.92,0,0,0-.13,6.75,5.82,5.82,0,0,0,2.18,1.9c2.19,1.2,4.81,1.52,10.6.67a80,80,0,0,0,9.5-2c4.9-1.32,8.49-2.56,9.12-2.76,10.86-3.36,28.5-9.86,38.05-.47a11.46,11.46,0,0,1,2,2.6c-.69.62-3.34,3.12-3.05,6.25.05.56.21,2.42,1.42,2.93a2.44,2.44,0,0,0,1.84-.14A4.5,4.5,0,0,0,191.78,17c1.4-2.9-.95-6.33-1.09-6.54a20.84,20.84,0,0,1,2.8-2.21,24.51,24.51,0,0,1,13.84-3.81c4.39.17,9.73,1.79,11.29,6.33a6.92,6.92,0,0,1,.21,4c-.92,3.7-4.84,5-5.31,5.17a6.18,6.18,0,0,1-3.73.17,4.06,4.06,0,0,1-2.3-1.46,4.63,4.63,0,0,1-.71-2.25c-.06-1.06.25-1.69-.14-2a.79.79,0,0,0-.88,0,.59.59,0,0,0-.19.37c-1,6,4.65,8.11,9.52,6.16C221.29,18.44,222.16,10.48,217.15,6.27Zm-29,11.53c-.6-.22-.5-2.8.54-4.79a6.88,6.88,0,0,1,1.12-1.58,5,5,0,0,1,.62,2.86C190.24,16.26,188.72,18,188.16,17.8Z"/></g></g></svg>