<svg xmlns="http://www.w3.org/2000/svg" viewBox="0 0 216.14 17.54"><g id="Layer_2" data-name="Layer 2"><g id="_ëîé_1" data-name="—ëîé_1"><path d="M214.57,6.58c-2.78-2.89-8.5-1.28-11.43.53a9,9,0,0,0-1,.71,8.41,8.41,0,0,0-3-3.48c-3.38-2.16-8.18-1.24-11.37.87A12.13,12.13,0,0,0,185,7.82a10.53,10.53,0,0,0-6-2.4,9.8,9.8,0,0,0-2.33.18c-5.53,1.07-7.8,5.4-14.41,7.77a18.48,18.48,0,0,1-5.37,1.06,12.12,12.12,0,0,1-4.92-.66,10.57,10.57,0,0,1-2.52-1.39,5.15,5.15,0,0,0,1.67-2c2.22-4.87-5.33-7.74-5.62-2.08a5.58,5.58,0,0,0,1.43,3.94A14.1,14.1,0,0,1,141,14.89a12.73,12.73,0,0,1-9.24-1.5,11.11,11.11,0,0,1-2.51-2.22c3.21-2.24,5.17-4.75,2.86-6.82-1.79-1.6-4.26-.46-5.17,1.48a5.83,5.83,0,0,0,.16,4.93,18.4,18.4,0,0,1-9.63,4.76,14.8,14.8,0,0,1-7.87-.83l-.29-.13A13.49,13.49,0,0,0,110.91,13c2.23-2.54,4.74-7.25,2.2-10.41a3.71,3.71,0,0,0-4.85-1,3.86,3.86,0,0,0-.74-.72A4.81,4.81,0,0,0,100.08,4C99.44,7.91,103.74,13,106.79,15a14,14,0,0,1-8.7,1.2,14.1,14.1,0,0,1-8.41-5.23c1.07-2.24,1-4.59-.15-5.94a3.85,3.85,0,0,0-2.07-1.19,3.06,3.06,0,0,0-2.38.54,2.9,2.9,0,0,0-.71.9c-.58,1.21.79,3.72,3.33,6.22a10,10,0,0,1-2.85,2.92,11.49,11.49,0,0,1-12.08-.09,10.65,10.65,0,0,1-2.45-2.1,5.76,5.76,0,0,0,1.43-3.94c-.29-5.66-7.84-2.79-5.62,2.08a5.15,5.15,0,0,0,1.67,2,10,10,0,0,1-2.52,1.39,12.09,12.09,0,0,1-4.68.62c-6.1-.48-14-9.48-22.12-8.94a12,12,0,0,0-6.22,2.37,12.13,12.13,0,0,0-2.8-2.61c-3.19-2.11-8-3-11.37-.87a8.41,8.41,0,0,0-3,3.48,9,9,0,0,0-1-.71c-3.26-2-8.15-3-11.43-.53C-.41,8.85-1,13.56,2,16.17a.56.56,0,0,0,.87-.67c-1.61-3.71,0-7.62,4.26-8a12.23,12.23,0,0,1,7.32,2,10.93,10.93,0,0,0-.27,4.91c.2,1.11.65,2.53,1.85,2.93a2.76,2.76,0,0,0,3.17-1.84c.71-2.11-.72-4.5-2.44-6.29,1.45-3.59,5-5,8.88-4a11.32,11.32,0,0,1,5.8,3.27l.09.11a5.47,5.47,0,0,0-.73,6.08c.56,1.23,2,2.3,3.4,1.65,1.08-.49.82-2.63.75-3.25a6.79,6.79,0,0,0-1.6-3.64,7.9,7.9,0,0,1,.92-.79c.47-.34,2.78-1.92,7.3-1.22,7.64,1.18,12.38,7.43,18.92,8.13a14.31,14.31,0,0,0,4.77-.36,12.65,12.65,0,0,0,4-1.93,14.19,14.19,0,0,0,6.18,3.42c4.09,1,9.06.24,12.31-2.8A11.15,11.15,0,0,0,89,12.43a15.73,15.73,0,0,0,8.11,4.74,15.83,15.83,0,0,0,10.84-1.54,17,17,0,0,0,4.23,1.25c7.67,1.22,13.89-3.35,15.71-4.8a11.47,11.47,0,0,0,1.68,1.84c4.77,4.15,11.6,2.63,12.3,2.47a15.55,15.55,0,0,0,6.2-3.09A12.48,12.48,0,0,0,152,15.23a13.6,13.6,0,0,0,4.77.36,22.32,22.32,0,0,0,5.64-1.08c6.38-2.14,10.13-6.66,14.16-7.21a12.29,12.29,0,0,1,2.49,0,8.46,8.46,0,0,1,3.39,1,8.28,8.28,0,0,1,1.37,1,7.42,7.42,0,0,0-1.51,3.81c-.07.77-.28,2.78.75,3.25,1.42.65,2.84-.42,3.4-1.65a5.47,5.47,0,0,0-.73-6.08l.09-.11a11.32,11.32,0,0,1,5.8-3.27c3.88-.92,7.43.45,8.88,4-1.72,1.79-3.15,4.18-2.44,6.29a2.76,2.76,0,0,0,3.17,1.84c1.2-.4,1.65-1.82,1.85-2.93a10.93,10.93,0,0,0-.27-4.91,12.24,12.24,0,0,1,7.32-2c4.23.34,5.87,4.25,4.26,8a.59.59,0,0,0,.43.82C215.46,16.3,217.58,9.7,214.57,6.58ZM17.13,11.88a3.19,3.19,0,0,1,.7,3.39c0,.08-.36.63-.74.61s-.7-.75-.83-1.1a6,6,0,0,1-.07-3.64A3.5,3.5,0,0,1,17.13,11.88Zm16.44.28c.07.19.88,2.35.16,2.86a1.06,1.06,0,0,1-1-.08c-1.09-.62-.69-2.78-.65-3a4.91,4.91,0,0,1,.54-1.45A6.12,6.12,0,0,1,33.57,12.16Zm35.21-.57c-1.35-1.35-1.85-3-1.29-4a1.85,1.85,0,0,1,1.58-1,1.66,1.66,0,0,1,1.21.83,2.16,2.16,0,0,1,.13,1.54A4.9,4.9,0,0,1,68.78,11.59Zm19.71-1.13c-2.18-1.73-3.31-3.66-2.78-4.82A1.57,1.57,0,0,1,86.23,5a1.88,1.88,0,0,1,1-.23,2.21,2.21,0,0,1,1.58,1C89.63,6.85,89.47,8.69,88.49,10.46Zm19.27-7c.78,1.86.79,3.43.08,3.92a1.18,1.18,0,0,1-1.25,0c-.65-.45-.49-1.67-.25-2.34A3.11,3.11,0,0,1,107.76,3.42ZM108.15,14a11.85,11.85,0,0,1-4.31-3.06c-.77-.88-3.15-3.57-2.5-6.46a4.07,4.07,0,0,1,1.38-2.31,3.07,3.07,0,0,1,2.62-.69,2.87,2.87,0,0,1,1.59,1.17,4.39,4.39,0,0,0-1.32,1.68c-.55,1.25-.7,3.27.4,4a2.22,2.22,0,0,0,1.79.15,2.38,2.38,0,0,0,1.25-1.08c1.09-1.74-.17-4.19-.29-4.42a2.92,2.92,0,0,1,2.08-.12,3.18,3.18,0,0,1,2,3.12c-.12.64-.24,1.28-.37,1.92a12.74,12.74,0,0,1-3.12,5A13.13,13.13,0,0,1,108.15,14Zm20.32-3.93c-.1-.19-1.27-2.61-.08-4.25a2.14,2.14,0,0,1,1.58-1,1.81,1.81,0,0,1,1.79,1.25c.14.6-.24,1.12-.75,1.81A8.38,8.38,0,0,1,128.47,10.05ZM146.8,8.92a2.16,2.16,0,0,1,.13-1.54,1.66,1.66,0,0,1,1.21-.83,1.85,1.85,0,0,1,1.58,1c.56,1,.06,2.65-1.29,4A4.9,4.9,0,0,1,146.8,8.92Zm37.7,6a1,1,0,0,1-.94-.14c-.51-.44-.22-1.53.08-2.64a11.33,11.33,0,0,1,.84-2.19,3.75,3.75,0,0,1,1,2C185.72,13.05,185.4,14.64,184.5,14.94ZM201,14.78c-.13.35-.4,1.08-.83,1.1s-.69-.53-.74-.61a3.19,3.19,0,0,1,.7-3.39,3.5,3.5,0,0,1,.94-.74A6,6,0,0,1,201,14.78Z"/></g></g></svg>