<svg xmlns="http://www.w3.org/2000/svg" viewBox="0 0 277.21 150.95"><defs><style>.cls-1{fill:#6d8a91;}</style></defs><g id="Layer_2" data-name="Layer 2"><g id="Object"><path class="cls-1" d="M138.55,151l-.84-.47a7.83,7.83,0,0,1-1-.65,9.63,9.63,0,0,1-1.24-1,12.53,12.53,0,0,1-2.54-3.64,18.71,18.71,0,0,1-1.55-5.8A43.33,43.33,0,0,1,133.3,123a62.55,62.55,0,0,1,3.71-9.65,40.28,40.28,0,0,1,2.78-4.87l3.38-5.07a203.08,203.08,0,0,1,16.15-21.66c1.61-1.81,3.29-3.6,5.06-5.36S168,73,170,71.33a72.52,72.52,0,0,1,6.27-4.58,58.16,58.16,0,0,1,6.95-3.8,45.9,45.9,0,0,1,7.61-2.73c1.31-.38,2.66-.62,4-.89l2-.3q.51-.08,1.05-.12L199,58.8a64.7,64.7,0,0,1,17.24.46,38.67,38.67,0,0,1,8.25,2.38,24.23,24.23,0,0,1,7,4.39,14.34,14.34,0,0,1,4.19,6.47,10.47,10.47,0,0,1-.55,7.28A12.85,12.85,0,0,1,233.84,82,15.58,15.58,0,0,1,232,84a21.08,21.08,0,0,1-4.66,3.15A34.86,34.86,0,0,1,216,90.29a57.66,57.66,0,0,1-6,.32c-2,0-4-.12-6-.28a53.3,53.3,0,0,1-11.39-2.49,101.72,101.72,0,0,1-10.82-4.26q-5.25-2.4-10.2-5.08c-6.6-3.54-12.84-7.28-18.76-11s-11.53-7.32-16.86-10.8l-15.07-9.89c-9.46-6.2-17.72-11.5-24.54-15.67-6.58-4.51-14.74-10-24.64-15.62A177.08,177.08,0,0,0,55.37,7.35c-3-1.27-6.11-2.49-9.38-3.56A74.69,74.69,0,0,0,35.63,1.24,47.6,47.6,0,0,0,24.3.66,34.25,34.25,0,0,0,12.65,3.6a15,15,0,0,0-1.39.69L9.9,5c-.46.25-.87.56-1.31.84s-.87.56-1.3.86l-1.22,1-.61.49a5.8,5.8,0,0,0-.61.52,13.47,13.47,0,0,0-1.2,1.19c-.19.21-.39.42-.57.64l-.53.69-.25.35-.24.37-.46.75-.39.8c-.07.13-.13.26-.19.4l-.16.42a12.16,12.16,0,0,0-.8,3.48L0,18.68l0,.88a8.47,8.47,0,0,0,.07.88,8.28,8.28,0,0,0,.12.87,17.6,17.6,0,0,0,.91,3.31,24.83,24.83,0,0,0,3.3,5.79,34.77,34.77,0,0,0,4.46,4.85,43.33,43.33,0,0,0,5.24,4.06c.94.6,1.89,1.19,2.88,1.73l.74.41.75.37,1.51.74A58.52,58.52,0,0,0,26.3,45a66.54,66.54,0,0,0,6.56,1.72,88.31,88.31,0,0,0,13.5,1.67A137.86,137.86,0,0,0,66,47.85c6.41-.59,12.67-1.5,18.76-2.55q4.56-.79,9-1.67c.75-.15,1.45-.28,2.23-.45l1.18-.26,1.15-.29c1.52-.42,3-.87,4.42-1.36,2.87-1,5.61-2.06,8.3-3.17s5.31-2.27,7.88-3.42c10.27-4.63,19.83-9.29,28.87-13.46s17.48-7.93,25.35-11a169.31,169.31,0,0,1,21.64-7.08,62.4,62.4,0,0,1,17-2,24.46,24.46,0,0,1,10.45,2.56c.27.15.53.27.77.41l.64.41.54.35.42.33.77.59-.72-.64-.4-.35-.53-.39-.62-.45c-.22-.16-.48-.3-.75-.47A24.37,24.37,0,0,0,211.9.21a61.94,61.94,0,0,0-17.48,1.18,164.84,164.84,0,0,0-22.27,6.19c-8.08,2.79-16.77,6.25-26,10.15S127.23,26,117,30.35c-2.57,1.08-5.18,2.15-7.83,3.19s-5.33,2-8,2.9c-1.36.44-2.73.83-4.09,1.17l-1,.25-1,.2c-.69.14-1.46.27-2.18.4-3,.53-5.93,1-8.93,1.53-6,1-12.12,1.78-18.34,2.32a139,139,0,0,1-18.84.46,84.94,84.94,0,0,1-12.59-1.53,58.63,58.63,0,0,1-6-1.53,52.16,52.16,0,0,1-5.65-2.12l-1.34-.65-.67-.32-.65-.34c-.86-.46-1.69-1-2.51-1.48a38.92,38.92,0,0,1-4.61-3.48,24.54,24.54,0,0,1-6.52-8.55,13.45,13.45,0,0,1-.69-2.33c0-.19,0-.38-.09-.57s0-.39,0-.57l0-.57,0-.56A7.49,7.49,0,0,1,5.76,16l.09-.26L6,15.51,6.2,15l.29-.49.14-.24L6.8,14l.33-.47.39-.44a9.61,9.61,0,0,1,.83-.86,3.4,3.4,0,0,1,.48-.43l.51-.42,1-.85,1.08-.75c.37-.24.71-.51,1.09-.73l1.13-.64a9.07,9.07,0,0,1,1.15-.61,29.73,29.73,0,0,1,9.93-2.77A42.81,42.81,0,0,1,35,5.32a71.73,71.73,0,0,1,9.83,2.09C48,8.32,51,9.4,54,10.52c5.88,2.31,11.32,4.86,16.34,7.43,10,5.15,18.43,10.21,25.23,14.36,6.57,4.5,14.53,10.18,23.69,16.76Q126.1,54,133.89,59.56c5.19,3.68,10.69,7.52,16.54,11.41s12,7.84,18.7,11.63c3.33,1.9,6.78,3.73,10.38,5.46a106.33,106.33,0,0,0,11.31,4.7,59.11,59.11,0,0,0,12.6,2.93c2.15.2,4.32.35,6.53.37a60.23,60.23,0,0,0,6.68-.29A40,40,0,0,0,230,92.17a26.18,26.18,0,0,0,6.05-4.06,21,21,0,0,0,2.52-2.79,18.31,18.31,0,0,0,2-3.28,15.82,15.82,0,0,0,.81-11,19.65,19.65,0,0,0-5.83-9,29.72,29.72,0,0,0-8.75-5.39A44.05,44.05,0,0,0,217.21,54a69.25,69.25,0,0,0-18.78-.23l-1.13.14c-.38,0-.75.09-1.14.15l-2.29.38c-1.5.32-3,.64-4.45,1.08a50.21,50.21,0,0,0-8.36,3.21A61.24,61.24,0,0,0,173.6,63a76.36,76.36,0,0,0-6.55,5.07c-2,1.78-3.94,3.63-5.75,5.51s-3.47,3.8-5.06,5.72a192.81,192.81,0,0,0-15.55,22.64c-1.08,1.77-2.13,3.51-3.15,5.2a41.09,41.09,0,0,0-2.69,5.28,62.44,62.44,0,0,0-3.34,10.14c-1.51,6.47-1.83,12.28-1,16.91a19.62,19.62,0,0,0,2,5.91,13,13,0,0,0,2.86,3.59,10.23,10.23,0,0,0,1.33,1,6.53,6.53,0,0,0,1,.59Z"/><path class="cls-1" d="M138.65,151l.88-.42a6.53,6.53,0,0,0,1-.59,10.23,10.23,0,0,0,1.33-1,12.79,12.79,0,0,0,2.85-3.59,19.08,19.08,0,0,0,2-5.91c.81-4.63.49-10.44-1-16.91a61.4,61.4,0,0,0-3.33-10.14,42.41,42.41,0,0,0-2.69-5.28c-1-1.69-2.08-3.43-3.15-5.2A191.75,191.75,0,0,0,121,79.3c-1.59-1.92-3.27-3.84-5.06-5.72s-3.7-3.73-5.75-5.51A76.36,76.36,0,0,0,103.6,63a60.5,60.5,0,0,0-7.46-4.32,50.1,50.1,0,0,0-8.35-3.21c-1.45-.44-3-.76-4.46-1.08L81,54l-1.13-.15-1.13-.14A69.32,69.32,0,0,0,60,54a44.13,44.13,0,0,0-9.53,2.65A29.76,29.76,0,0,0,41.7,62a19.73,19.73,0,0,0-5.83,9,15.93,15.93,0,0,0,.81,11,19.57,19.57,0,0,0,2,3.28,21,21,0,0,0,2.53,2.79,26.12,26.12,0,0,0,6,4.06,40.14,40.14,0,0,0,13.38,3.6,60,60,0,0,0,6.68.29c2.2,0,4.38-.17,6.53-.37a59,59,0,0,0,12.59-2.93,105.64,105.64,0,0,0,11.32-4.7c3.59-1.73,7-3.56,10.37-5.46,6.66-3.79,12.85-7.74,18.7-11.63s11.35-7.73,16.55-11.41S153.4,52.37,158,49.07c9.16-6.58,17.12-12.26,23.68-16.76,6.81-4.15,15.21-9.21,25.24-14.36,5-2.57,10.46-5.12,16.33-7.43,3-1.12,6-2.2,9.17-3.11a71.41,71.41,0,0,1,9.83-2.09,42.81,42.81,0,0,1,10.25-.25,29.68,29.68,0,0,1,9.92,2.77,8.44,8.44,0,0,1,1.15.61l1.14.64c.38.22.72.49,1.08.73l1.08.75,1,.85.51.42a5,5,0,0,1,.48.43,9.61,9.61,0,0,1,.83.86l.38.44.34.47.17.24.14.24L271,15l.23.5.12.25.08.26a7.49,7.49,0,0,1,.45,2.15l0,.56,0,.57a3.81,3.81,0,0,1-.06.57,3.75,3.75,0,0,1-.09.57,11.9,11.9,0,0,1-.69,2.33,24.3,24.3,0,0,1-6.52,8.55,38.8,38.8,0,0,1-4.6,3.48c-.82.51-1.66,1-2.52,1.48l-.64.34-.67.32-1.34.65a53,53,0,0,1-5.65,2.12,58.82,58.82,0,0,1-6,1.53,85,85,0,0,1-12.58,1.53,139,139,0,0,1-18.84-.46c-6.22-.54-12.34-1.36-18.34-2.32-3-.48-6-1-8.93-1.53-.73-.13-1.5-.26-2.19-.4l-1-.2-1-.25c-1.36-.34-2.73-.73-4.09-1.17-2.72-.87-5.4-1.88-8-2.9s-5.25-2.11-7.82-3.19C150,26,140.25,21.61,131,17.73s-17.89-7.36-26-10.15A165,165,0,0,0,82.78,1.39,61.92,61.92,0,0,0,65.3.21,24.41,24.41,0,0,0,54.8,3.43c-.26.17-.52.31-.75.47l-.61.45-.53.39-.4.35-.72.64.76-.59L53,4.81l.55-.35.64-.41c.23-.14.5-.26.77-.41A24.41,24.41,0,0,1,65.37,1.08a62.47,62.47,0,0,1,17,2.05A169.31,169.31,0,0,1,104,10.21c7.86,3.08,16.33,6.83,25.35,11S148,30.05,158.24,34.68c2.57,1.15,5.19,2.3,7.87,3.42s5.44,2.2,8.31,3.17c1.43.49,2.9.94,4.41,1.36l1.15.29,1.18.26c.78.17,1.49.3,2.24.45,3,.58,6,1.14,9,1.67,6.09,1.05,12.34,2,18.76,2.55a137.86,137.86,0,0,0,19.67.54,88.46,88.46,0,0,0,13.5-1.67A66.35,66.35,0,0,0,250.9,45a57,57,0,0,0,6.3-2.43l1.51-.74.76-.37.74-.41c1-.54,1.94-1.13,2.88-1.73a44.13,44.13,0,0,0,5.24-4.06,35.39,35.39,0,0,0,4.46-4.85,24.44,24.44,0,0,0,3.29-5.79,17.62,17.62,0,0,0,.92-3.31c.06-.28.08-.58.12-.87a8.47,8.47,0,0,0,.07-.88l0-.88-.06-.89a12.16,12.16,0,0,0-.8-3.48l-.16-.42c-.06-.14-.13-.27-.19-.4l-.4-.8-.46-.75-.23-.37-.26-.35-.52-.69-.57-.64a13.47,13.47,0,0,0-1.2-1.19,7,7,0,0,0-.61-.52l-.61-.49-1.22-1c-.43-.3-.87-.58-1.3-.86s-.85-.59-1.31-.84l-1.37-.74a13.66,13.66,0,0,0-1.38-.69A34.3,34.3,0,0,0,252.91.66a47.72,47.72,0,0,0-11.34.58,74.9,74.9,0,0,0-10.35,2.55c-3.28,1.07-6.39,2.29-9.38,3.56a175.82,175.82,0,0,0-16.32,8.21c-9.9,5.64-18.06,11.11-24.64,15.62-6.83,4.17-15.09,9.47-24.54,15.67l-15.08,9.89c-5.32,3.48-10.93,7.12-16.86,10.8s-12.15,7.42-18.75,11q-5,2.67-10.2,5.08a102.56,102.56,0,0,1-10.82,4.26,53.43,53.43,0,0,1-11.39,2.49c-2,.16-4,.28-6,.28a57.33,57.33,0,0,1-6-.32,34.86,34.86,0,0,1-11.37-3.1A20.62,20.62,0,0,1,45.18,84a15.66,15.66,0,0,1-1.82-2A12.85,12.85,0,0,1,42,79.78a10.46,10.46,0,0,1-.54-7.28A14.26,14.26,0,0,1,45.67,66a24.23,24.23,0,0,1,7-4.39A38.5,38.5,0,0,1,61,59.26,64.64,64.64,0,0,1,78.2,58.8l1.07.11q.54,0,1,.12l2.05.3c1.35.27,2.7.51,4,.89A46.22,46.22,0,0,1,94,63a59,59,0,0,1,7,3.8,72.36,72.36,0,0,1,6.26,4.58c2,1.62,3.84,3.33,5.63,5.06s3.45,3.55,5.06,5.36A202.92,202.92,0,0,1,134,103.41q1.74,2.59,3.38,5.07a39,39,0,0,1,2.78,4.87A60.57,60.57,0,0,1,143.9,123c1.8,6.21,2.43,11.84,1.91,16.35a19,19,0,0,1-1.54,5.8,12.72,12.72,0,0,1-2.54,3.64,11.21,11.21,0,0,1-1.24,1,7.83,7.83,0,0,1-1,.65Z"/></g></g></svg>