<svg xmlns="http://www.w3.org/2000/svg" viewBox="0 0 241.97 150.95"><defs><style>.cls-1{fill:#6d8a91;}</style></defs><g id="Layer_2" data-name="Layer 2"><g id="Object"><path class="cls-1" d="M103.41,151l.88-.42a6.53,6.53,0,0,0,1-.59,10.23,10.23,0,0,0,1.33-1,12.79,12.79,0,0,0,2.85-3.59,19.08,19.08,0,0,0,2-5.91c.81-4.63.49-10.44-1-16.91a61.4,61.4,0,0,0-3.33-10.14,42.41,42.41,0,0,0-2.69-5.28c-1-1.69-2.08-3.43-3.15-5.2A191.75,191.75,0,0,0,85.72,79.3c-1.59-1.92-3.27-3.84-5.06-5.72s-3.7-3.73-5.75-5.51A76.36,76.36,0,0,0,68.36,63a60.5,60.5,0,0,0-7.46-4.32,50.1,50.1,0,0,0-8.35-3.21c-1.45-.44-2.95-.76-4.46-1.08L45.8,54l-1.13-.15-1.13-.14A69.32,69.32,0,0,0,24.75,54a44.13,44.13,0,0,0-9.53,2.65A29.76,29.76,0,0,0,6.46,62,19.81,19.81,0,0,0,.63,71a15.93,15.93,0,0,0,.81,11,19.57,19.57,0,0,0,2,3.28,21,21,0,0,0,2.53,2.79,26.12,26.12,0,0,0,6,4.06,40.14,40.14,0,0,0,13.38,3.6,60,60,0,0,0,6.68.29c2.2,0,4.38-.17,6.53-.37a59,59,0,0,0,12.59-2.93,105.64,105.64,0,0,0,11.32-4.7c3.59-1.73,7.05-3.56,10.37-5.46,6.66-3.79,12.85-7.74,18.7-11.63s11.35-7.73,16.55-11.41,10.08-7.19,14.66-10.49c9.16-6.58,17.12-12.26,23.68-16.76,6.81-4.15,15.21-9.21,25.24-14.36,5-2.57,10.46-5.12,16.33-7.43,2.95-1.12,6-2.2,9.17-3.11A71.41,71.41,0,0,1,207,5.32a42.81,42.81,0,0,1,10.25-.25,29.68,29.68,0,0,1,9.92,2.77,7.89,7.89,0,0,1,1.15.61l1.14.64c.38.22.72.49,1.08.73l1.08.75,1,.85.51.42a5,5,0,0,1,.48.43,9.61,9.61,0,0,1,.83.86l.38.44.34.47.17.24.14.24.29.49.23.5.12.25.08.26a7.49,7.49,0,0,1,.45,2.15l0,.56,0,.57a3.81,3.81,0,0,1-.06.57,5.58,5.58,0,0,1-.08.57,12.67,12.67,0,0,1-.7,2.33,24.3,24.3,0,0,1-6.52,8.55,38.8,38.8,0,0,1-4.6,3.48c-.82.51-1.66,1-2.52,1.48l-.64.34-.67.32-1.34.65a53,53,0,0,1-5.65,2.12,58.82,58.82,0,0,1-6,1.53,85,85,0,0,1-12.58,1.53,139,139,0,0,1-18.84-.46c-6.22-.54-12.34-1.36-18.34-2.32-3-.48-6-1-8.93-1.53-.73-.13-1.5-.26-2.19-.4l-1-.2-1-.25c-1.36-.34-2.73-.73-4.09-1.17-2.72-.87-5.4-1.88-8-2.9s-5.25-2.11-7.82-3.19C114.73,26,105,21.61,95.79,17.73s-17.89-7.36-26-10.15A165,165,0,0,0,47.54,1.39,61.92,61.92,0,0,0,30.06.21a24.41,24.41,0,0,0-10.5,3.22c-.26.17-.52.31-.75.47l-.61.45-.53.39-.4.35-.72.64.76-.59.42-.33.55-.35.64-.41c.23-.14.5-.26.77-.41A24.41,24.41,0,0,1,30.13,1.08a62.47,62.47,0,0,1,17,2.05,169.31,169.31,0,0,1,21.64,7.08c7.86,3.08,16.33,6.83,25.35,11S112.72,30.05,123,34.68c2.57,1.15,5.19,2.3,7.87,3.42s5.44,2.2,8.31,3.17c1.43.49,2.9.94,4.41,1.36l1.15.29,1.18.26c.78.17,1.49.3,2.24.45,3,.58,6,1.14,9,1.67,6.09,1.05,12.34,2,18.76,2.55a137.86,137.86,0,0,0,19.67.54,88.46,88.46,0,0,0,13.5-1.67A67.28,67.28,0,0,0,215.67,45,57.57,57.57,0,0,0,222,42.57l1.51-.74.76-.37.74-.41c1-.54,1.94-1.13,2.88-1.73a44.13,44.13,0,0,0,5.24-4.06,34.77,34.77,0,0,0,4.46-4.85,24.44,24.44,0,0,0,3.29-5.79,17.62,17.62,0,0,0,.92-3.31c.06-.28.08-.58.12-.87a8.47,8.47,0,0,0,.07-.88l0-.88-.06-.89a12.16,12.16,0,0,0-.8-3.48l-.16-.42c-.06-.14-.13-.27-.19-.4l-.4-.8-.46-.75-.23-.37-.26-.35-.52-.69-.57-.64a13.47,13.47,0,0,0-1.2-1.19,7,7,0,0,0-.61-.52l-.61-.49-1.22-1c-.43-.3-.87-.58-1.3-.86s-.85-.59-1.31-.84l-1.37-.74a13.66,13.66,0,0,0-1.38-.69A34.3,34.3,0,0,0,217.67.66a47.72,47.72,0,0,0-11.34.58A74.9,74.9,0,0,0,196,3.79c-3.28,1.07-6.39,2.29-9.38,3.56a175.82,175.82,0,0,0-16.32,8.21c-9.9,5.64-18.06,11.11-24.64,15.62-6.83,4.17-15.09,9.47-24.54,15.67L106,56.74c-5.32,3.48-10.93,7.12-16.86,10.8S77,75,70.41,78.5q-4.95,2.67-10.2,5.08a102.56,102.56,0,0,1-10.82,4.26A53.43,53.43,0,0,1,38,90.33c-2,.16-4,.28-6,.28a57.33,57.33,0,0,1-6-.32,34.86,34.86,0,0,1-11.37-3.1A20.62,20.62,0,0,1,9.94,84a15.66,15.66,0,0,1-1.82-2,12.85,12.85,0,0,1-1.34-2.25,10.46,10.46,0,0,1-.54-7.28A14.26,14.26,0,0,1,10.43,66a24.23,24.23,0,0,1,7.05-4.39,38.5,38.5,0,0,1,8.25-2.38A64.64,64.64,0,0,1,43,58.8l1.07.11q.54,0,1,.12l2.05.3c1.35.27,2.7.51,4,.89A46.22,46.22,0,0,1,58.75,63a59,59,0,0,1,7,3.8A72.36,72.36,0,0,1,72,71.33c2,1.62,3.84,3.33,5.63,5.06s3.45,3.55,5.06,5.36a202.92,202.92,0,0,1,16.14,21.66q1.74,2.59,3.38,5.07a39,39,0,0,1,2.78,4.87,60.57,60.57,0,0,1,3.71,9.65c1.8,6.21,2.43,11.84,1.91,16.35a18.71,18.71,0,0,1-1.54,5.8,12.72,12.72,0,0,1-2.54,3.64,11.21,11.21,0,0,1-1.24,1,7.83,7.83,0,0,1-1,.65Z"/></g></g></svg>