<svg xmlns="http://www.w3.org/2000/svg" viewBox="0 0 241.97 150.95"><defs><style>.cls-1{fill:#6d8a91;}</style></defs><g id="Layer_2" data-name="Layer 2"><g id="Object"><path class="cls-1" d="M138.55,151l-.84-.47a7.83,7.83,0,0,1-1-.65,9.63,9.63,0,0,1-1.24-1,12.53,12.53,0,0,1-2.54-3.64,18.71,18.71,0,0,1-1.55-5.8A43.33,43.33,0,0,1,133.3,123a62.55,62.55,0,0,1,3.71-9.65,40.28,40.28,0,0,1,2.78-4.87l3.38-5.07a203.08,203.08,0,0,1,16.15-21.66c1.61-1.81,3.29-3.6,5.06-5.36S168,73,170,71.33a72.52,72.52,0,0,1,6.27-4.58,58.16,58.16,0,0,1,6.95-3.8,45.9,45.9,0,0,1,7.61-2.73c1.31-.38,2.66-.62,4-.89l2-.3q.51-.08,1.05-.12L199,58.8a64.7,64.7,0,0,1,17.24.46,38.67,38.67,0,0,1,8.25,2.38,24.23,24.23,0,0,1,7,4.39,14.34,14.34,0,0,1,4.19,6.47,10.47,10.47,0,0,1-.55,7.28A12.85,12.85,0,0,1,233.84,82,15.58,15.58,0,0,1,232,84a21.08,21.08,0,0,1-4.66,3.15A34.86,34.86,0,0,1,216,90.29a57.66,57.66,0,0,1-6,.32c-2,0-4-.12-6-.28a53.3,53.3,0,0,1-11.39-2.49,101.72,101.72,0,0,1-10.82-4.26q-5.25-2.4-10.2-5.08c-6.6-3.54-12.84-7.28-18.76-11s-11.53-7.32-16.86-10.8l-15.07-9.89c-9.46-6.2-17.72-11.5-24.54-15.67-6.58-4.51-14.74-10-24.64-15.62A177.08,177.08,0,0,0,55.37,7.35c-3-1.27-6.11-2.49-9.38-3.56A74.69,74.69,0,0,0,35.63,1.24,47.6,47.6,0,0,0,24.3.66,34.25,34.25,0,0,0,12.65,3.6a15,15,0,0,0-1.39.69L9.9,5c-.46.25-.87.56-1.31.84s-.87.56-1.3.86l-1.22,1-.61.49a5.8,5.8,0,0,0-.61.52,13.47,13.47,0,0,0-1.2,1.19c-.19.21-.39.42-.57.64l-.53.69-.25.35-.24.37-.46.75-.39.8c-.07.13-.13.26-.19.4l-.16.42a12.16,12.16,0,0,0-.8,3.48L0,18.68l0,.88a8.47,8.47,0,0,0,.07.88,8.28,8.28,0,0,0,.12.87,17.6,17.6,0,0,0,.91,3.31,24.83,24.83,0,0,0,3.3,5.79,34.77,34.77,0,0,0,4.46,4.85,43.33,43.33,0,0,0,5.24,4.06c.94.6,1.89,1.19,2.88,1.73l.74.41.75.37,1.51.74A58.52,58.52,0,0,0,26.3,45a66.54,66.54,0,0,0,6.56,1.72,88.31,88.31,0,0,0,13.5,1.67A137.86,137.86,0,0,0,66,47.85c6.41-.59,12.67-1.5,18.76-2.55q4.56-.79,9-1.67c.75-.15,1.45-.28,2.23-.45l1.18-.26,1.15-.29c1.52-.42,3-.87,4.42-1.36,2.87-1,5.61-2.06,8.3-3.17s5.31-2.27,7.88-3.42c10.27-4.63,19.83-9.29,28.87-13.46s17.48-7.93,25.35-11a169.31,169.31,0,0,1,21.64-7.08,62.4,62.4,0,0,1,17-2,24.46,24.46,0,0,1,10.45,2.56c.27.15.53.27.77.41l.64.41.54.35.42.33.77.59-.72-.64-.4-.35-.53-.39-.62-.45c-.22-.16-.48-.3-.75-.47A24.37,24.37,0,0,0,211.9.21a61.94,61.94,0,0,0-17.48,1.18,164.84,164.84,0,0,0-22.27,6.19c-8.08,2.79-16.77,6.25-26,10.15S127.23,26,117,30.35c-2.57,1.08-5.18,2.15-7.83,3.19s-5.33,2-8,2.9c-1.36.44-2.73.83-4.09,1.17l-1,.25-1,.2c-.69.14-1.46.27-2.18.4-3,.53-5.93,1-8.93,1.53-6,1-12.12,1.78-18.34,2.32a139,139,0,0,1-18.84.46,84.94,84.94,0,0,1-12.59-1.53,58.63,58.63,0,0,1-6-1.53,52.16,52.16,0,0,1-5.65-2.12l-1.34-.65-.67-.32-.65-.34c-.86-.46-1.69-1-2.51-1.48a38.92,38.92,0,0,1-4.61-3.48,24.54,24.54,0,0,1-6.52-8.55,13.45,13.45,0,0,1-.69-2.33c0-.19,0-.38-.09-.57s0-.39,0-.57l0-.57,0-.56A7.49,7.49,0,0,1,5.76,16l.09-.26L6,15.51,6.2,15l.29-.49.14-.24L6.8,14l.33-.47.39-.44a9.61,9.61,0,0,1,.83-.86,3.4,3.4,0,0,1,.48-.43l.51-.42,1-.85,1.08-.75c.37-.24.71-.51,1.09-.73l1.13-.64a9.07,9.07,0,0,1,1.15-.61,29.73,29.73,0,0,1,9.93-2.77A42.81,42.81,0,0,1,35,5.32a71.73,71.73,0,0,1,9.83,2.09C48,8.32,51,9.4,54,10.52c5.88,2.31,11.32,4.86,16.34,7.43,10,5.15,18.43,10.21,25.23,14.36,6.57,4.5,14.53,10.18,23.69,16.76Q126.1,54,133.89,59.56c5.19,3.68,10.69,7.52,16.54,11.41s12,7.84,18.7,11.63c3.33,1.9,6.78,3.73,10.38,5.46a106.33,106.33,0,0,0,11.31,4.7,59.11,59.11,0,0,0,12.6,2.93c2.15.2,4.32.35,6.53.37a60.23,60.23,0,0,0,6.68-.29A40,40,0,0,0,230,92.17a26.18,26.18,0,0,0,6.05-4.06,21,21,0,0,0,2.52-2.79,18.31,18.31,0,0,0,2-3.28,15.82,15.82,0,0,0,.81-11,19.65,19.65,0,0,0-5.83-9,29.72,29.72,0,0,0-8.75-5.39A44.05,44.05,0,0,0,217.21,54a69.25,69.25,0,0,0-18.78-.23l-1.13.14c-.38,0-.75.09-1.14.15l-2.29.38c-1.5.32-3,.64-4.45,1.08a50.21,50.21,0,0,0-8.36,3.21A61.24,61.24,0,0,0,173.6,63a76.36,76.36,0,0,0-6.55,5.07c-2,1.78-3.94,3.63-5.75,5.51s-3.47,3.8-5.06,5.72a192.81,192.81,0,0,0-15.55,22.64c-1.08,1.77-2.13,3.51-3.15,5.2a41.09,41.09,0,0,0-2.69,5.28,62.44,62.44,0,0,0-3.34,10.14c-1.51,6.47-1.83,12.28-1,16.91a19.62,19.62,0,0,0,2,5.91,13,13,0,0,0,2.86,3.59,10.23,10.23,0,0,0,1.33,1,6.53,6.53,0,0,0,1,.59Z"/></g></g></svg>